<?xml version="1.0" encoding="UTF-8"?>
<svg xmlns="http://www.w3.org/2000/svg" id="Layer_2" data-name="Layer 2" viewBox="0 0 6000 5420">
  <defs>
    <style>
      .cls-1, .cls-2, .cls-3 {
        stroke-width: 0px;
      }

      .cls-2 {
        fill: #ad0000;
      }

      .cls-3 {
        fill: #fff;
      }
    </style>
  </defs>
  <g id="Layer_1-2" data-name="Layer 1">
    <g>
      <path class="cls-1" d="M6000,5420H0C0,3613.33,0,1806.67,0,0,2000,0,4000,0,6000,0v5420ZM4070.62,2074.76c-10.13-.12-19.38-.34-28.62-.34-682.64-.02-1365.29-.01-2047.93-.01-6,0-12.01-.19-17.99.13-3.81.2-7.59,1.18-11.92,1.91-1.44,13.93-3.93,27.04-3.98,40.15-1.21,299.29,1.7,598.58-1.61,897.87-.6,53.95.97,107.92,1.42,161.89.18,21.33-.19,42.67.14,64,.22,14.52,2.97,17.07,18.03,17.17,48.61.31,97.22,1.74,145.79,2.03,187.32,1.11,374.65.45,561.98.45,12,0,24-.08,36,.08,3.81.05,7.62.78,12.29,1.3,2.04,12.81.89,24.75,1.09,36.59.19,11.33.42,22.68-.06,33.99-.5,11.75,2.37,23.81-2.67,36.54-22.7.61-45.3.5-67.89.23-22.45-.27-45,1.53-67.9-1.29-2.58-10.09-.92-19.42-1.7-28.57-.31-3.72-1.57-7.37-2.31-10.64-19.08-2.57-550.05-3.97-618.91-1.72-3.85.13-7.68.94-11.45,1.42-.9,2.65-2.06,4.48-2.06,6.3-.09,253.99-.1,507.98-.03,761.96,0,1.83,1.13,3.66,2,6.3,7.63,2.44,15.63,1.46,23.46,1.47,194.66.06,389.32.05,583.98.04,4,0,8.01.17,12-.08,3.8-.24,7.57-.94,11.62-1.47,2.71-8.82,1.78-16.83,1.79-24.7.05-193.99.04-387.99.04-581.98,0-6.67-.25-13.35.17-19.99.23-3.71,1.6-7.34,2.55-11.41,44.32,0,87.59-.03,130.87.1,1.73,0,3.45,1.53,6.49,2.97.02,24.29.04,48.86.05,73.42,0,24.67,0,49.33,0,74v369.99c0,24.67-.1,49.33.03,74,.12,24.53-.58,49.1.53,73.78,8.85,3.77,16.92,2.5,24.75,2.51,96.66.09,193.33.06,289.99.06,16.67,0,33.33.1,50-.14,3.77-.05,7.53-1.35,12.44-2.3.2-7.92.53-15.17.53-22.41.04-66.66-.04-133.33.11-199.99.02-7.15-1.82-14.69,2.68-21.52,1.91-.46,3.83-1.34,5.75-1.34,40.66-.09,81.32-.12,121.99-.01,2.43,0,4.86,1.29,7.73,2.11.34,5.23.85,9.8.9,14.38.13,11.33.05,22.67.05,34,0,48.67-.07,97.33.09,146,.02,6.38-1.92,13.4,4.74,20.03h22.83c255.33,0,510.65,0,765.98,0,4.67,0,9.35.21,13.99-.1,3.82-.26,7.6-1.17,11.13-1.74,3.29-9.35,1.97-18.07,1.97-26.63.08-239.33.06-478.65.05-717.98,0-6.67.11-13.34-.28-19.99-.19-3.15-1.45-6.23-2.34-9.81-3.93-.48-7.14-1.21-10.35-1.21-266.66.04-533.31.13-799.97.31-1.83,0-3.65,1.23-6.07,2.09-2.9,7.56-1.74,15.61-1.74,23.47-.07,138-.05,275.99-.05,413.99,0,6,.22,12.01-.14,17.99-.22,3.76-1.33,7.47-1.97,10.85-22.14,2.56-119.93,2.11-135.13-.6-.56-2.28-1.72-4.8-1.72-7.33-.02-173.32.06-346.64.22-519.97,0-1.84,1.26-3.68,2.3-6.52,5.7-.27,11.57-.76,17.45-.79,237.92-1.27,475.86,2.36,713.78-2.24,67.31-1.3,134.66-.17,201.99-.25,7.13,0,14.48.94,22.24-2.21.3-5.7.77-10.92.83-16.13,2.58-244.37,1.28-1139.53-2.03-1164.43Z"></path>
      <path class="cls-3" d="M4070.62,2074.76c3.31,24.9,4.61,920.07,2.03,1164.43-.06,5.22-.53,10.43-.83,16.13-7.76,3.15-15.11,2.2-22.24,2.21-67.33.08-134.68-1.05-201.99.25-237.92,4.6-475.85.97-713.78,2.24-5.88.03-11.75.52-17.45.79-1.04,2.84-2.3,4.68-2.3,6.52-.16,173.32-.23,346.64-.22,519.97,0,2.52,1.16,5.05,1.72,7.33,15.2,2.7,112.99,3.16,135.13.6.64-3.38,1.75-7.09,1.97-10.85.36-5.98.14-11.99.14-17.99,0-138-.02-275.99.05-413.99,0-7.85-1.16-15.91,1.74-23.47,2.41-.86,4.24-2.09,6.07-2.09,266.66-.18,533.31-.27,799.97-.31,3.21,0,6.43.73,10.35,1.21.89,3.58,2.15,6.66,2.34,9.81.39,6.65.28,13.32.28,19.99,0,239.33.02,478.65-.05,717.98,0,8.56,1.32,17.28-1.97,26.63-3.54.58-7.31,1.48-11.13,1.74-4.65.32-9.33.1-13.99.1-255.33,0-510.65,0-765.98,0h-22.83c-6.66-6.63-4.72-13.65-4.74-20.03-.16-48.66-.09-97.33-.09-146,0-11.33.08-22.67-.05-34-.05-4.58-.56-9.15-.9-14.38-2.87-.82-5.3-2.1-7.73-2.11-40.66-.11-81.32-.08-121.99.01-1.92,0-3.84.88-5.75,1.34-4.5,6.83-2.67,14.38-2.68,21.52-.15,66.66-.07,133.33-.11,199.99,0,7.25-.33,14.49-.53,22.41-4.91.95-8.66,2.24-12.44,2.3-16.66.24-33.33.14-50,.14-96.66,0-193.33.03-289.99-.06-7.82,0-15.9,1.26-24.75-2.51-1.12-24.69-.41-49.25-.53-73.78-.12-24.67-.03-49.33-.03-74v-369.99c0-24.67,0-49.33,0-74,0-24.57-.03-49.13-.05-73.42-3.04-1.44-4.76-2.97-6.49-2.97-43.28-.13-86.56-.1-130.87-.1-.95,4.07-2.32,7.71-2.55,11.41-.42,6.64-.17,13.33-.17,19.99,0,193.99,0,387.99-.04,581.98,0,7.87.92,15.88-1.79,24.7-4.05.53-7.82,1.22-11.62,1.47-3.98.25-8,.08-12,.08-194.66,0-389.32.01-583.98-.04-7.83,0-15.83.97-23.46-1.47-.87-2.64-2-4.47-2-6.3-.07-253.99-.06-507.98.03-761.96,0-1.83,1.16-3.66,2.06-6.3,3.77-.48,7.6-1.29,11.45-1.42,68.86-2.25,599.82-.85,618.91,1.72.74,3.28,2,6.92,2.31,10.64.77,9.14-.88,18.48,1.7,28.57,22.91,2.82,45.45,1.03,67.9,1.29,22.59.27,45.19.38,67.89-.23,5.04-12.73,2.18-24.79,2.67-36.54.48-11.31.25-22.66.06-33.99-.2-11.84.96-23.78-1.09-36.59-4.67-.51-8.48-1.24-12.29-1.3-12-.16-24-.08-36-.08-187.33,0-374.66.66-561.98-.45-48.57-.29-97.19-1.71-145.79-2.03-15.05-.1-17.8-2.64-18.03-17.17-.33-21.33.04-42.67-.14-64-.45-53.96-2.02-107.94-1.42-161.89,3.31-299.29.4-598.58,1.61-897.87.05-13.12,2.54-26.22,3.98-40.15,4.33-.72,8.1-1.7,11.92-1.91,5.98-.32,12-.13,17.99-.13,682.64,0,1365.29,0,2047.93.01,9.24,0,18.48.21,28.62.34ZM2657.26,2436.33c8.93.17,16.84.46,24.74.46,240,.02,480,.02,720,.02,4.67,0,9.36.26,13.99-.15,3.73-.33,7.38-1.49,11.92-2.47,0-64.24.02-127.51-.06-190.78,0-2.51-.92-5.02-1.45-7.72-7.5-3.13-14.9-2.07-22.11-2.07-242-.05-484-.04-726-.04-3.33,0-6.69-.23-9.99.1-3.84.38-7.63,1.26-11.17,1.87-2.57,17.02-2.64,180.63.13,200.77Z"></path>
      <path class="cls-1" d="M2657.26,2436.33c-2.77-20.14-2.7-183.75-.13-200.77,3.54-.61,7.33-1.49,11.17-1.87,3.3-.33,6.66-.1,9.99-.1,242,0,484-.01,726,.04,7.21,0,14.61-1.06,22.11,2.07.53,2.69,1.44,5.2,1.45,7.72.08,63.27.06,126.53.06,190.78-4.54.98-8.2,2.14-11.92,2.47-4.63.41-9.32.15-13.99.15-240,0-480,0-720-.02-7.9,0-15.81-.29-24.74-.46Z"></path>
    </g>
    <rect class="cls-2" x="3115.16" y="3261.03" width="961.35" height="871.47"></rect>
    <rect class="cls-2" x="1942.78" y="3261.03" width="789.4" height="891.01"></rect>
    <rect class="cls-2" x="2654.02" y="2229.33" width="773.77" height="207.12"></rect>
  </g>
</svg>
