<?xml version="1.0" encoding="UTF-8"?>
<svg xmlns="http://www.w3.org/2000/svg" id="Layer_2" data-name="Layer 2" viewBox="0 0 6000 5420">
  <defs>
    <style>
      .cls-1, .cls-2 {
        stroke-width: 0px;
      }

      .cls-2 {
        fill: #fff;
      }
    </style>
  </defs>
  <g id="Layer_1-2" data-name="Layer 1">
    <g>
      <path class="cls-1" d="M6000,5420H0V0h6000v5420ZM2734.2,3466.99c1.69,7.63.89,16.26.89,24.78.04,442.7.04,885.4.04,1328.1,0,7.33-.09,14.67.1,22,.08,3.18.78,6.34,1.24,9.89,8.57,2.73,16.57,1.8,24.41,1.81,108.67.06,217.34.04,326.01.04,4.67,0,9.36.24,13.99-.14,3.76-.3,7.47-1.36,12.15-2.26.14-9.46.38-18.04.38-26.62.02-302.03.02-604.06.02-906.09,0-6.67-.14-13.34.16-20,.14-3.21,1.15-6.37,1.96-10.55,11.62-1.43,22.92-.73,34.16-.83,11.33-.11,22.67-.02,34-.02s22.68-.28,34,.08c11.08.35,22.4-1.7,34.38,2.12.19,8.56.52,16.45.53,24.34.04,56.01-.06,112.01.14,168.02.03,7.04-2.25,14.73,4.44,22.28h22.87c255.34,0,510.68,0,766.02,0,4.67,0,9.35.19,14-.09,3.83-.24,7.62-1.05,11.65-1.64.65-3.4,1.57-5.95,1.57-8.5,0-330.03-.06-660.06-.21-990.09,0-1.83-1.18-3.65-2.02-6.12-7.58-2.79-15.61-1.62-23.44-1.62-256.67-.07-513.35-.06-770.02-.05-4,0-8.02-.2-12,.1-3.77.29-7.49,1.12-12.37,1.89-.22,8.97-.58,16.86-.58,24.74-.03,214.02-.02,428.04-.03,642.06,0,6.67.23,13.35-.16,20-.22,3.74-1.49,7.42-2.22,10.78-27.5,2.66-120.43,1.87-135.07-1.16-.5-2.28-1.55-4.82-1.55-7.35.02-458.7.12-917.41.3-1376.11,0-1.83,1.34-3.65,2.54-6.74,6.29-.1,12.87-.28,19.46-.29,29.33-.04,58.67.03,88-.08,5.15-.02,10.79,1.2,15.89-5.09,0-21.25,0-43.89,0-66.52s.3-44.01-.08-66.01c-.39-22.42,1.73-44.95-1.55-68.24-14.09-2.31-27.37-1.03-40.54-1.24-14-.22-28.01.2-42-.12-13.22-.3-26.56,1.52-39.4-1.44-4.2-6.58-2.7-13.42-2.75-19.95-.19-22,.03-44.01-.21-66-.05-4.34-1.46-8.67-2.42-14.01h-22.93c-69.34,0-138.67,0-208.01,0-42,0-84-.07-126,.08-5.77.02-12-1.58-18.35,3.72-.14,6.99-.44,14.88-.44,22.78-.03,104.68,0,209.35-.08,314.03,0,7.15,1.09,14.52-1.5,21.11-17.51,3.13-119.23,3.14-136.27.13-3.79-5.91-2.21-12.73-2.24-19.2-.16-36-.08-72.01-.08-108.01,0-70.67.07-141.35-.11-212.02-.02-7.08,2.13-14.71-3.85-22.26-6.53-.11-13.8-.34-21.08-.34-195.34-.02-390.68-.02-586.02-.01-4,0-8.03-.27-11.99.13-3.74.38-7.4,1.49-12.19,2.51v24.69c0,290.7,0,581.39,0,872.09,0,4.67-.23,9.35.11,14,.28,3.81,1.25,7.57,2.13,12.55,8.62.14,16.53.39,24.45.39,194.01.02,388.01.02,582.02.01,4.67,0,9.36.23,13.99-.15,3.73-.3,7.39-1.36,11.96-2.26.21-9.08.55-16.99.55-24.9.03-139.35.02-278.69.03-418.04,0-6-.19-12.01.13-18,.2-3.74,1.19-7.43,1.75-10.71,15.07-2.16,100.33-3.38,127.08-1.87,3.19.18,6.33,1.25,10.74,2.17.15,8.38.42,16.26.43,24.13.02,256.69.02,513.38.02,770.08,0,4.67.23,9.35-.11,14-.28,3.81-1.24,7.57-2.1,12.54-23.3.52-45.91.43-68.51.2-22.44-.22-44.96,1.29-68.58-1.2-.31-8.4-.8-15.58-.81-22.77-.06-75.34.02-150.68-.13-226.02-.01-7.1,1.97-14.7-3.83-22.43-6.49-.11-13.74-.34-20.99-.34-195.34-.02-390.68-.02-586.02-.01-4,0-8.03-.28-11.99.13-3.76.38-7.44,1.49-12.31,2.53v24.61c0,318.03,0,636.06,0,954.1,0,4.67-.23,9.35.12,14,.28,3.78,1.25,7.51,2.1,12.29,8.81.16,16.71.44,24.61.44,194.01.02,388.01.02,582.02.02,4.67,0,9.36.27,13.99-.13,3.73-.32,7.38-1.46,11.97-2.43.15-8.91.41-16.83.41-24.75.02-193.35.02-386.71.02-580.06,0-6.67-.16-13.34.12-20,.16-3.77,1.06-7.51,1.72-11.87,5.03-.33,8.93-.81,12.84-.79,39.98.15,79.97.36,119.95.66,1.12,0,2.24,1.15,4.58,2.44ZM4100.59,3030.61c2.78-18.31,4.48-883.1,1.98-940.68-.14-3.19-1.09-6.35-1.62-9.23-19.38-3.46-645.09-5-844.1-2.17-5.13.07-10.26.77-15.38,1.17-.82,3.02-1.76,4.87-1.77,6.73-.13,30.66-.19,61.31-.09,91.97.01,3.2.12,7.58,2.06,9.39,7.54,6.99,6.11,15.77,6.12,24.3.06,55.98.15,111.96-.06,167.95-.04,11.62,3.09,24.07-6.89,33.97-1.5,1.49-1.15,5.06-1.25,7.69-.19,4.66-.1,9.33-.1,13.99,0,190.61,0,381.21,0,571.82,0,4-.2,8.01.09,11.99.27,3.78,1.07,7.52,1.59,10.94,17.62,2.2,840.69,2.35,859.42.19ZM4071.27,4177.3c-9.48-.2-18.02-.53-26.57-.53-254.52-.03-509.03-.02-763.55-.02-5.33,0-10.68-.27-15.98.16-3.75.3-7.43,1.57-10.75,2.33-2.24,16.68-3.69,616.98-1.66,662.51.14,3.2,1.03,6.36,1.52,9.25,8.35,4.14,16.46,2.54,24.29,2.55,256.51.09,513.03.07,769.54.07,4,0,8.01.16,11.99-.09,3.81-.24,7.59-.91,12.23-1.5.43-6.22,1.04-11.4,1.11-16.58,2.47-177.01,1.2-635.65-2.18-658.14ZM2592.54,4851.78c3.93-7.96,2.37-16.08,2.38-23.9.09-208.61.07-417.21.07-625.82,0-4,.21-8.02-.11-11.99-.3-3.8-1.17-7.55-1.81-11.48-8.75-2.74-16.76-1.8-24.63-1.8-193.93-.05-387.86-.04-581.79-.04-4.66,0-9.35-.24-13.99.13-3.81.3-7.56,1.33-11.02,1.98-3.12,21.38-4.4,505.23-1.85,658.5.08,4.52.64,9.03.97,13.41,2.8,1.1,4.58,2.42,6.37,2.42,205.92.17,411.84.24,617.77.24,2.53,0,5.06-1.06,7.64-1.64Z"></path>
      <path class="cls-2" d="M2734.2,3466.99c-2.34-1.29-3.46-2.44-4.58-2.44-39.98-.3-79.97-.51-119.95-.66-3.91-.01-7.81.47-12.84.79-.66,4.36-1.56,8.1-1.72,11.87-.28,6.66-.12,13.33-.12,20,0,193.35,0,386.71-.02,580.06,0,7.92-.26,15.83-.41,24.75-4.59.97-8.24,2.11-11.97,2.43-4.63.4-9.33.13-13.99.13-194.01,0-388.01,0-582.02-.02-7.9,0-15.8-.28-24.61-.44-.85-4.79-1.82-8.51-2.1-12.29-.34-4.64-.12-9.33-.12-14,0-318.03,0-636.06,0-954.1v-24.61c4.87-1.04,8.55-2.15,12.31-2.53,3.96-.4,7.99-.13,11.99-.13,195.34,0,390.68,0,586.02.01,7.25,0,14.5.23,20.99.34,5.8,7.73,3.81,15.33,3.83,22.43.15,75.34.07,150.68.13,226.02,0,7.18.5,14.36.81,22.77,23.62,2.49,46.14.97,68.58,1.2,22.59.23,45.2.32,68.51-.2.87-4.98,1.83-8.74,2.1-12.54.34-4.64.11-9.33.11-14,0-256.69,0-513.38-.02-770.08,0-7.87-.27-15.75-.43-24.13-4.41-.92-7.55-1.99-10.74-2.17-26.76-1.52-112.01-.29-127.08,1.87-.56,3.28-1.55,6.97-1.75,10.71-.32,5.98-.13,12-.13,18,0,139.35,0,278.69-.03,418.04,0,7.91-.34,15.81-.55,24.9-4.57.9-8.23,1.96-11.96,2.26-4.64.38-9.33.15-13.99.15-194.01,0-388.01,0-582.02-.01-7.92,0-15.83-.25-24.45-.39-.88-4.97-1.85-8.73-2.13-12.55-.34-4.64-.11-9.33-.11-14,0-290.7,0-581.39,0-872.09v-24.69c4.79-1.02,8.45-2.12,12.19-2.51,3.96-.4,7.99-.13,11.99-.13,195.34,0,390.68,0,586.02.01,7.27,0,14.55.23,21.08.34,5.98,7.55,3.83,15.18,3.85,22.26.18,70.67.11,141.35.11,212.02,0,36-.08,72.01.08,108.01.03,6.47-1.55,13.29,2.24,19.2,17.04,3.02,118.76,3.01,136.27-.13,2.59-6.59,1.5-13.96,1.5-21.11.08-104.68.05-209.35.08-314.03,0-7.89.3-15.79.44-22.78,6.35-5.31,12.58-3.7,18.35-3.72,42-.15,84-.08,126-.08,69.34,0,138.67,0,208.01,0h22.93c.96,5.34,2.37,9.67,2.42,14.01.24,22,.02,44,.21,66,.06,6.53-1.45,13.37,2.75,19.95,12.84,2.96,26.18,1.14,39.4,1.44,13.99.32,28-.1,42,.12,13.18.21,26.46-1.07,40.54,1.24,3.29,23.28,1.17,45.82,1.55,68.24.38,22,.08,44,.08,66.01s0,45.28,0,66.52c-5.11,6.29-10.74,5.07-15.89,5.09-29.33.11-58.67.04-88,.08-6.58,0-13.16.19-19.46.29-1.2,3.09-2.54,4.91-2.54,6.74-.18,458.7-.28,917.41-.3,1376.11,0,2.54,1.04,5.07,1.55,7.35,14.64,3.03,107.57,3.83,135.07,1.16.73-3.36,2-7.04,2.22-10.78.39-6.65.16-13.33.16-20,0-214.02,0-428.04.03-642.06,0-7.89.36-15.77.58-24.74,4.88-.77,8.6-1.6,12.37-1.89,3.98-.3,8-.1,12-.1,256.67,0,513.35-.01,770.02.05,7.83,0,15.87-1.17,23.44,1.62.85,2.47,2.02,4.29,2.02,6.12.14,330.03.21,660.06.21,990.09,0,2.55-.92,5.1-1.57,8.5-4.02.59-7.82,1.41-11.65,1.64-4.65.29-9.33.09-14,.09-255.34,0-510.68,0-766.02,0h-22.87c-6.69-7.55-4.42-15.24-4.44-22.28-.2-56-.09-112.01-.14-168.02,0-7.89-.33-15.77-.53-24.34-11.97-3.82-23.3-1.77-34.38-2.12-11.32-.35-22.66-.08-34-.08s-22.67-.08-34,.02c-11.24.11-22.54-.6-34.16.83-.81,4.18-1.81,7.34-1.96,10.55-.3,6.66-.16,13.33-.16,20,0,302.03,0,604.06-.02,906.09,0,8.58-.24,17.17-.38,26.62-4.69.91-8.39,1.96-12.15,2.26-4.64.37-9.33.14-13.99.14-108.67,0-217.34.02-326.01-.04-7.84,0-15.83.92-24.41-1.81-.47-3.55-1.16-6.71-1.24-9.89-.19-7.33-.1-14.67-.1-22,0-442.7,0-885.4-.04-1328.1,0-8.52.8-17.15-.89-24.78Z"></path>
      <path class="cls-2" d="M4100.59,3030.61c-18.73,2.15-841.8,2-859.42-.19-.52-3.42-1.31-7.16-1.59-10.94-.29-3.98-.09-7.99-.09-11.99,0-190.61,0-381.21,0-571.82,0-4.67-.1-9.34.1-13.99.11-2.62-.25-6.2,1.25-7.69,9.98-9.9,6.85-22.34,6.89-33.97.22-55.98.13-111.96.06-167.95,0-8.52,1.42-17.31-6.12-24.3-1.95-1.8-2.05-6.19-2.06-9.39-.11-30.66-.04-61.31.09-91.97,0-1.86.95-3.71,1.77-6.73,5.12-.4,10.25-1.1,15.38-1.17,199.01-2.83,824.72-1.29,844.1,2.17.52,2.88,1.48,6.04,1.62,9.23,2.5,57.59.79,922.37-1.98,940.68Z"></path>
      <path class="cls-2" d="M4071.27,4177.3c3.38,22.49,4.64,481.13,2.18,658.14-.07,5.18-.68,10.36-1.11,16.58-4.64.59-8.42,1.26-12.23,1.5-3.98.25-7.99.09-11.99.09-256.51,0-513.03.02-769.54-.07-7.83,0-15.94,1.59-24.29-2.55-.49-2.89-1.38-6.05-1.52-9.25-2.02-45.53-.58-645.83,1.66-662.51,3.32-.75,7-2.02,10.75-2.33,5.3-.43,10.65-.16,15.98-.16,254.52,0,509.03,0,763.55.02,8.54,0,17.09.33,26.57.53Z"></path>
      <path class="cls-2" d="M2592.54,4851.78c-2.57.57-5.1,1.64-7.64,1.64-205.92,0-411.84-.07-617.77-.24-1.79,0-3.57-1.32-6.37-2.42-.33-4.38-.89-8.89-.97-13.41-2.55-153.27-1.26-637.12,1.85-658.5,3.45-.65,7.2-1.68,11.02-1.98,4.64-.36,9.32-.13,13.99-.13,193.93,0,387.86-.01,581.79.04,7.87,0,15.88-.95,24.63,1.8.64,3.93,1.51,7.68,1.81,11.48.32,3.97.11,7.99.11,11.99,0,208.61.02,417.21-.07,625.82,0,7.82,1.56,15.94-2.38,23.9Z"></path>
    </g>
  </g>
</svg>
