<svg xmlns="http://www.w3.org/2000/svg" viewBox="0 0 478.32 68.05"><path d="M43.62,51.18l-4,1.94c-1.15,2.17-3.39,2.6-5.4,3.38a4.69,4.69,0,0,0-2.6,1,3.52,3.52,0,0,1-.9.67c-2.13.69-4.07,1.65-5.08,3.82-1.34,2.2-3,3.61-5.78,2.5-.76-.17-1.44-.44-1.67-1.29a1.81,1.81,0,0,1,1-1.78c3.3-.42,4-4.1,6.64-5.33,1.14-1,2-2.42,3.49-3a7.2,7.2,0,0,0,4.24-2.52,16.71,16.71,0,0,1,2.23-2.06,10,10,0,0,0,1.1-1.4,5.08,5.08,0,0,1,.76-1,4,4,0,0,1,2.91-1c2,.13,3.47-1.44,5.3-1.89a2.52,2.52,0,0,1,1.94.44,2.48,2.48,0,0,1,.42,1.94,7.87,7.87,0,0,0-.36,3.91A3.15,3.15,0,0,1,43.62,51.18Z" style="fill:#282215"/><path d="M185.51,22.82A25.35,25.35,0,0,0,195.65,24a12.22,12.22,0,0,1,6.9,2,2.38,2.38,0,0,1,.38,2.86,2.59,2.59,0,0,1-2,.86c-3.09-1.07-5.59-4.65-9.5-2.25-1.38.05-2.72-.31-4.09-.28-3.49-.31-6.84,1.28-10.35.78-2.41-4.68-2-5.21,3.82-5.47C182.41,22.56,184,22.2,185.51,22.82Z" style="fill:#aa9381"/><path d="M139.73,23.31a41.89,41.89,0,0,1-9.84,3.81c-1.83.74-3.09-.2-4.25-1.44a2.9,2.9,0,0,1-.54-1.23,4.65,4.65,0,0,1,1.77-4.11c.9-.94,1.48-2.21,2.81-2.71,1.49-.13,2.46,1,3.66,1.54,1.46.77,3.2.57,4.69,1.28C139,21.14,140.36,21.65,139.73,23.31Z" style="fill:#241d14"/><path d="M299.63,42c4.32.21,8.73-.84,13,.82a3.73,3.73,0,0,1-.47,1.91,2.11,2.11,0,0,1-1,.76c-1.31.3-2.22-.78-3.38-1-1.12.14-1.34,1.18-1.89,1.9a5.6,5.6,0,0,1-1.43,1.36c-2.56,1.16-4.8,3.22-7.9,2.86-2.18-1-1.06-2.78-.94-4.31,1.23-2.28-3.17-2.39-1.84-4.72a7.8,7.8,0,0,1,1.45-.1C296.67,41.63,298.23,41.06,299.63,42Z" style="fill:#e3d5c6"/><path d="M68.6,23c5.56-3.18,11.26-5.89,18-5a1.5,1.5,0,0,1,.17,2c-3.26,2.36-6.62,4.53-10.59,5.54-1.75.54-3.61.05-5.37.56-.91.15-1.85.49-2.58-.43A2.4,2.4,0,0,1,68.6,23Z" style="fill:#726557"/><path d="M6.86,53.28,8.62,52c1.94-1,4.21-1.38,5.76-3.1,1.29-.91,2.54-1.89,4.21-2A2.81,2.81,0,0,1,20.47,49a6.45,6.45,0,0,1-.07,2.93A13.14,13.14,0,0,1,18.94,56a2.66,2.66,0,0,1-2,.6c-2.11-.06-3.88-2.43-6.23-.91A4.42,4.42,0,0,1,8,55.59C7.06,55.08,6.48,54.41,6.86,53.28Z" style="fill:#8e7764"/><path d="M102.59,27.73c-5.17.09-9.75,2.88-14.85,3.29a1,1,0,0,1-1.39,0c-1-3.6,2.3-4.16,4.12-5.77a11.49,11.49,0,0,1,3.75-1.44c3-.12,6.12-.71,9.07.6C104.66,25.86,104.2,26.92,102.59,27.73Z" style="fill:#221e12"/><path d="M359.62,50c-8.18,2.52-16.79,2.42-25.1,4.11l-.45-.63c-.31-1.92.84-2.83,2.4-3.45,1.91-.52,3.94-.21,5.82-.9a11.21,11.21,0,0,1,1.42-.31c2.13-.28,4.32,0,6.41-.64a11.11,11.11,0,0,1,2.14-.35,9.27,9.27,0,0,1,2.17.09,9.7,9.7,0,0,1,1.4.3C357.13,48.75,358.69,48.71,359.62,50Z" style="fill:#4a412e"/><path d="M16.58,55.8l1.94-.06a1.13,1.13,0,0,1,1.37.12,3.53,3.53,0,0,1,.7,2.09A3.84,3.84,0,0,1,20,60a12.69,12.69,0,0,1-5,2.37c-2.62-.62-2.94,1-2.89,3-.4.62-.81,1.18-1.65.63-1.29-.38-2.92.69-3.93-.91A2.7,2.7,0,0,1,6,63.15a7.63,7.63,0,0,1,2.52-4C10.76,57,13.64,56.3,16.58,55.8Z" style="fill:#392f20"/><path d="M210.73,26.19a4.23,4.23,0,0,1,4.85,1.87,12.28,12.28,0,0,1,3.33,2.29,3.61,3.61,0,0,1,1,2.41,10.8,10.8,0,0,0-.85,3.68,1.78,1.78,0,0,1-.85,1,2.34,2.34,0,0,1-1.93-.23C215,35,213.17,34.77,211,35.84a4,4,0,0,1-2-.28,1.52,1.52,0,0,1-.76-1.08c-.09-2.25,3.93-2.59,2.53-5.44C210.31,28.09,209.41,27.15,210.73,26.19Z" style="fill:#6f6357"/><path d="M68.6,23V26c0,.94-.37,1.93.33,2.79-.15,1.56-1.22,2.53-2.21,3.55a7.69,7.69,0,0,1-1.36,1.19,5.63,5.63,0,0,1-1,.6,2.62,2.62,0,0,1-1.17.21,2.79,2.79,0,0,1-1.43-1,8.32,8.32,0,0,1-1.59-2.57,3.75,3.75,0,0,1,.06-1.25,6,6,0,0,1,2.35-3.63Z" style="fill:#8c735c"/><path d="M333.52,43.07c4.3-.69,8.58-1.48,13-1.1.18,2.28-2.07,1.57-3,2.46.59,1.35,1.24,2.68-.08,4a9.25,9.25,0,0,1-3.38,1c-1.42.24-2.84.8-4.28.07-2-2,.26-2.69,1.2-3.78-1.88,1.58-2.88.56-3.63-1.22A2,2,0,0,1,333.52,43.07Z" style="fill:#cdb7a3"/><path d="M436.48,23.89l-2,.09c-.83.77-1.79.22-2.69.25-1.1,0-1,.36-.21.85l-3.09.94c-1.07.41-1.89,1.67-3.29,1a2.94,2.94,0,0,1-.42-2.79,3.82,3.82,0,0,1,1.33-1.67c1.2-.7,2.56-1,3.79-1.62,3.29-.32.06-3.76,2.21-4.62,2.71-.2,5.32,0,7.52,1.83,1,2.53-2.37,2.34-2.52,4.14A2.12,2.12,0,0,1,436.48,23.89Z" style="fill:#4f453b"/><path d="M455.46,20.85l-3,0a2.12,2.12,0,0,1-1.52-2.07,3.14,3.14,0,0,1,1.47-2.26,5.58,5.58,0,0,1,1.95-.59c.43-.07.88-.1,1.31-.13,2.49.07,4.4-1.47,6.55-2.34a2.53,2.53,0,0,1,1.27.26c1.18,1.36.39,3,.56,4.45a2.28,2.28,0,0,1-.55,1.22,3.24,3.24,0,0,1-1.72,1.08C459.65,20.67,457.51,20,455.46,20.85Z" style="fill:#31281e"/><path d="M92.55,15.89c4.23-1.52,8.39-3.42,13.07-2.07.62,2.26-1.52,2.55-2.57,3.63a11.25,11.25,0,0,1-3.65,1.43c-.57.09-1.15.13-1.72.18a3.09,3.09,0,0,0-1.39.66,2.84,2.84,0,0,1-.88.61,1.89,1.89,0,0,1-1.07-.18,6.79,6.79,0,0,1-.84-.77A5.41,5.41,0,0,1,92,17.55,1.74,1.74,0,0,1,92.55,15.89Z" style="fill:#9f8875"/><path d="M239.55,32.91c3-.13,6-1.59,9,0,.55.35,1.19.6,1.28,1.37a2.22,2.22,0,0,1-1.22,1.47,5.51,5.51,0,0,1-3.79.66c-1.84-1.26-.69,1.78-1.94,1.37-1.91,1.44-3.77,0-5.66-.06a15.67,15.67,0,0,1-3.26-.56c-1.06-.36-2.3-.49-2.49-2,1-1.57,2.73-1.47,4.26-1.81a5.38,5.38,0,0,1,1.33.09,9.75,9.75,0,0,1,2.17.74c.61.28-.26.28.37.2.29,0-.21-.37-.32-.58A1.09,1.09,0,0,1,239.55,32.91Z" style="fill:#cdb5a0"/><path d="M43.62,51.18,47.69,49c1.09-2.59,3.82-2.53,5.85-3.61a2.29,2.29,0,0,1,2,.48c-.54,2.74-.65,5.21-5,5-2.22-.12-4.59,2.6-7,4.12C43.06,53.47,44.92,52.35,43.62,51.18Z" style="fill:#fafaf9"/><path d="M382.49,35a19.65,19.65,0,0,1,7-3,2.49,2.49,0,0,1,1.65,2.43c-.12,1.58,2.71,2.34,1.2,4.31a4.77,4.77,0,0,1-5.18,1c-.93-1.48-2.45-1.79-4-2C381.78,37,382.2,36,382.49,35Z" style="fill:#c8b49d"/><path d="M355.7,49.07l-1.27-.17c.26-2.53,2.6-2,4.05-2.8,2.21-.43,4.43-.78,6.62-1.28a25,25,0,0,1,8.08.58A2.27,2.27,0,0,1,374.59,47a22.63,22.63,0,0,1-9.52,2c-1.6.91-3.38-.33-5,.42C358.62,49.33,357.12,49.72,355.7,49.07Z" style="fill:#5e5041"/><path d="M55.57,45.84l-1.86.49c-1-1.19-.32-2.23.27-3.29.88-1,2.25-1.52,3-2.72,1.58-1.88,4-.27,5.74-1.36a11,11,0,0,1,3.59-1c1.63.31,3.52.41,2.31,2.94C64.38,42.91,59.37,42.78,55.57,45.84Z" style="fill:#2b2716"/><path d="M433.44,14c1.46-1.44,3.35-.7,5-1,2.58-.54,5.25-1.61,7.23,1.27a2,2,0,0,1-.43,1.5c-4.13,3-9.13,2.66-11.94-.92,1.2-.64,2.49-.21,3.53-.34C435.88,14.22,434.53,14.87,433.44,14Z" style="fill:#3b342b"/><path d="M386.5,39.16c2-.38,4.18.21,5.93-1.26a1.36,1.36,0,0,1,1.35-.16c1,.85,1.7,1.78.7,3.09l-.41.16-.45,0c-2.08,1.36-4.83.66-6.85,2.21a18.33,18.33,0,0,1-4.12,1c-.32-1.33-1.39-1.32-2.43-1.36a2,2,0,0,1-.05-2,6.82,6.82,0,0,1,3-1.57A5.31,5.31,0,0,1,386.5,39.16Z" style="fill:#7f6f5f"/><path d="M401.21,25.76a28.44,28.44,0,0,1,7.36-3.66l.59.24c1.12,1.22,2.79,1.81,3.79,3.19.13,1.73-1.05,2.38-2.37,2.93a17,17,0,0,1-6-.13C404.31,26.34,401.53,27.63,401.21,25.76Z" style="fill:#b39f8c"/><path d="M347.43,41.84c1.87-1.4,4-.68,6.07-.86a2,2,0,0,1,.47,1.33,13.89,13.89,0,0,1-1,4.32,7,7,0,0,1-6.24,2.16c-3.38-1.84-1.46-3.33.3-4.82C348.59,43.51,346.66,42.43,347.43,41.84Z" style="fill:#cfbba6"/><path d="M33.92,56.08l5.71-3c2.19,2.47-.92,3.9-1.37,5.81-.37,1.6-1.71-.44-2.52-.52-1.63-.15-3.36,1.68-5-.2a.27.27,0,0,1-.17-.41A4.27,4.27,0,0,1,33.92,56.08Z" style="fill:#fafaf9"/><path d="M462.17,9.82,470.47,8c.76-.57,1.1,0,1.46.53.49,1.19,1.68,1.94,2,3.22A2.55,2.55,0,0,1,473,14c-.86.57-1.9.07-2.81.46a3.85,3.85,0,0,1-1.17-.07,8.67,8.67,0,0,1-2.78-1.09c-.59-.53-1.08-1.17-1.72-1.65S462.64,10.83,462.17,9.82Z" style="fill:#75685b"/><path d="M45.58,34c2-3.28,5.66-3.34,8.79-4.4l.51.44c.83,2.59-3.12,1.48-2.82,3.66-.21,1.72-.63,3.3-2.47,4a5.16,5.16,0,0,1-4.88-1.31C43.88,35.22,44.66,34.59,45.58,34Z" style="fill:#91785e"/><path d="M366.48,39l4-1c.93,1.88,3.56,2.61,3.5,5.17a2,2,0,0,1-1.32,1.38c-2.66.13-5.29-.32-7.94-.32a2.16,2.16,0,0,1-.86-1,3.36,3.36,0,0,1,0-1.91,3.16,3.16,0,0,1,.71-1A11.8,11.8,0,0,0,366.48,39Z" style="fill:#c9b4a6"/><path d="M68.59,40.93c-.1-2.11-1.72-1.93-3.14-2.06-.46-1.58,2.21-1.15,1.76-2.75A2.76,2.76,0,0,1,67.86,35c2.12-1.52,4.64-1.49,7-1.85,1.75.15,2,1.78,2.82,2.86l-5.09,2c-1.6-.19-2.4.79-3,2.06C69.62,40.79,69.28,41.07,68.59,40.93Z" style="fill:#3a3328"/><path d="M115.32,10c.8-2.16-1.43-5.89,3.15-6.09.83-.44,1.22.07,1.56.7,0,1.78,1.34,3.29,1.14,5.13a4.74,4.74,0,0,1-1.33,2.34,2.21,2.21,0,0,1-1.31.25C117.13,12.05,116.49,10.68,115.32,10Z" style="fill:#927561"/><path d="M233.56,42.84c-1.57.48-2.84-.24-4.09-1.05-1.57-1-3.52-1-5.18-1.84a1.66,1.66,0,0,1,.28-1.35,6.61,6.61,0,0,1,4.84-1.3,45.7,45.7,0,0,0,6.18,1.84c1.6.54,3.4.47,4.86,1.47a1.54,1.54,0,0,1,.29,1.37,3.17,3.17,0,0,1-2.62.93C236.59,43.29,235.1,41.59,233.56,42.84Z" style="fill:#5e4c3e"/><path d="M296.31,46.16c.69,1.28-1.18,2.81.38,4a1.63,1.63,0,0,1,.07,1.19,5.55,5.55,0,0,1-1.13,1.46,10.89,10.89,0,0,1-6.19-1.77c.49-1,2.13-1.24,1.89-2.76-.1-1.11-.57-2.32.8-3C293.69,44.79,295.19,44.62,296.31,46.16Z" style="fill:#b4a79b"/><path d="M150.56,13l2,2c.46,1.82-1,2.51-2,3.44a3.82,3.82,0,0,1-2.22.17c-1.83-.58-3.53-1.27-3.51-3.63a3.44,3.44,0,0,1,.57-1.51C147,11.85,148.69,11.52,150.56,13Z" style="fill:#927763"/><path d="M334.52,54.13c0,1.65,1.29,4-1,4.63-2,.52-4.69,1.05-6-1.76a1.22,1.22,0,0,1-.07-1.25c1.33-1.78,3.75-1.06,5.32-2.32a1.92,1.92,0,0,1,1.87.46Z" style="fill:#917f6a"/><path d="M137.47,12.12c2-.09,2.76-3,5.11-2.11a7.91,7.91,0,0,1,.91.92,2.46,2.46,0,0,1,.36,1.92c-.72,1.64-2.15,2.36-3.72,2.94a6.91,6.91,0,0,1-4.31-.14,3,3,0,0,1-1.5-1.53C134.24,11.67,136.56,13,137.47,12.12Z" style="fill:#bea388"/><path d="M269.8,47.07c-.55,1.42-1.41,3.12-3,1.68-2-1.76-4.55-1.36-6.55-2.65,1-1.57,2.88-1.18,4.3-1.81a7.28,7.28,0,0,1,2.5-.73c.85.62,1.92-.15,2.79.43a2.79,2.79,0,0,1,.47,1.86A5.43,5.43,0,0,1,269.8,47.07Z" style="fill:#4a3f31"/><path d="M312.56,52.84h-2.09c-.9-.58-1.78-1.17-.71-2.35a4.93,4.93,0,0,1,2.14-.74,47.9,47.9,0,0,1,6.67,0,6.71,6.71,0,0,1,1.34.32c1.55.29,1.6,2.47,3.28,2.63a1.59,1.59,0,0,1,.73,1.65c-.29.69-.71,1.11-1.51.68l-1.9-.29a4.7,4.7,0,0,0-1.09-.67C317,54.37,315,52.43,312.56,52.84Z" style="fill:#645749"/><path d="M207.06,38.12l.07-.16c-1.62.26-2.7,2-4.52,1.73a2.42,2.42,0,0,1-2.08-2.26l.94-1.37c-.24-1.74-.34-3.46.76-5,.76-.52,1.33-.2,1.83.41.32,2.46,2.36,2.8,4.2,3.38l.61.26C209.52,36.87,208.21,37.45,207.06,38.12Z" style="fill:#8f7c68"/><path d="M45.58,34l-1,1.91a1.22,1.22,0,0,1,.33,1.2c-1.09,1.66-2.06,3.4-3.23,5a1.93,1.93,0,0,1-1.32.07,3.51,3.51,0,0,1-1.69-2.76c-.21-1.29.59-2.39.68-3.63C41.34,34.84,43.16,33.4,45.58,34Z" style="fill:#6e5d4e"/><path d="M19.75,64c2.36.52,4.15-.67,5.9-2,.9,2.32.15,4.55-1.87,5.28a3.1,3.1,0,0,1-4.26-2.64c-.27-.26-.32-.45-.17-.56A.65.65,0,0,1,19.75,64Z" style="fill:#faf9f8"/><path d="M416.51,30.05c-1.77,3.93-5.86,3.52-9,4.83a1.85,1.85,0,0,1-.42-2c1.82-2.51,4.72-3.28,7.34-4.5a2.74,2.74,0,0,1,2.14.37A1,1,0,0,1,416.51,30.05Z" style="fill:#251e12"/><path d="M31.58,40c.83-.14,1.75-.1,2.11-1.12.94-.71,1.73-.34,2.47.35a5.47,5.47,0,0,1,1.19,2.47,33.54,33.54,0,0,1,0,4,4.88,4.88,0,0,1-.4,1.28,2.46,2.46,0,0,1-1.51,1.28,2.42,2.42,0,0,1-2.2-1.4c-.38-2-.33-4-1.84-5.62A1.19,1.19,0,0,1,31.58,40Z" style="fill:#b39c89"/><path d="M179.56,32.94c-2.83-.17-5.93,1-8.21-1.75-.25-2,1.37-2,2.63-2.41a11.38,11.38,0,0,1,3.94.3,5.19,5.19,0,0,1,2.61,1.5C181.25,31.79,180.38,32.36,179.56,32.94Z" style="fill:#3a3229"/><path d="M153.53,28.06c-2.37-1-5.24-.52-7.19-2.61a1.33,1.33,0,0,1-.12-1.43c2.93-2,5.73-1.26,8.47.46a2.61,2.61,0,0,1,.43,2.15A2.14,2.14,0,0,1,153.53,28.06Z" style="fill:#473d33"/><path d="M398.43,28.46l.79-.94c1,.3,1.29,1.14,1.61,2a23.29,23.29,0,0,1,.14,3.92,4,4,0,0,1-1.57,2.93,2.38,2.38,0,0,1-2-.09,9.85,9.85,0,0,1-2.46-4.34A3.41,3.41,0,0,1,395,30.5C395.59,28.9,397.69,29.83,398.43,28.46Z" style="fill:#a99683"/><path d="M318.42,43.18c2.6,1,5.34.73,8,.84a2.93,2.93,0,0,1,1,1.89,3.09,3.09,0,0,1-.58,2c-2.09.63-4-1.4-6.12-.43a3.18,3.18,0,0,1-1.26-.17,20.64,20.64,0,0,1-3.1-2.23C316,43.28,317.59,43.65,318.42,43.18Z" style="fill:#c4a98c"/><path d="M436.55,22c-.54-.31-1.44-.52-1.54-.93-.18-.78.64-1,1.31-1.07,1.13-.11,2.37.12,3.14-1.05,1.66-1.29,3-.76,4.25.67a2,2,0,0,1-.26,2.26,2.32,2.32,0,0,1-.91.09C440.55,22.6,438.55,23,436.55,22Z" style="fill:#50453b"/><path d="M258.59,45.86c-2.1.11-4.26.65-6.17-.77.33-.75,1-1.17,1.5-1.79.35-.92.08-2.06,1-2.76a3.25,3.25,0,0,1,2.57-.2,4.35,4.35,0,0,1,2.59,2.16,3.17,3.17,0,0,1,0,2C259.83,45.23,259.14,45.47,258.59,45.86Z" style="fill:#988c80"/><path d="M430.4,22l-3.93,1a2.73,2.73,0,0,1-1-1.61c-.05-1.8-1.42-2.91-2.28-4.29-.25-1.09.45-1.58,1.27-2l1,0a11.22,11.22,0,0,0,1.05.63c.93.5,1.9.91,2.86,1.35C431.41,18.39,430.6,20.23,430.4,22Z" style="fill:#706051"/><path d="M174.58,29.75c-1.18.26-2.59,0-3.23,1.44a.83.83,0,0,1-.79-.25c-1.05-1.54-3-1.71-4.29-3a2.57,2.57,0,0,1-.14-1.4c1.74-2.61,4.06-.93,6.17-.86a5,5,0,0,1,3.27,1.72C176.21,28.62,175.66,29.3,174.58,29.75Z" style="fill:#7b6c5e"/><path d="M413.33,18.57A2.64,2.64,0,0,1,415.48,17a4.73,4.73,0,0,1,3.34,3.18,3.17,3.17,0,0,1-2.08,2.61,13.59,13.59,0,0,1-2.7.9c-1.28.09-2.47,0-2.87-1.52C411.48,20.74,413.24,20.15,413.33,18.57Z" style="fill:#b79f8a"/><path d="M473.52,11.81c-.35-1.25-3.19-.61-2.18-2.88,1.24-1.39,2.55-2.36,4.35-.82A9.39,9.39,0,0,1,478.32,12C476.66,13.28,475.05,13.37,473.52,11.81Z" style="fill:#baa692"/><path d="M309.47,51l1,1.88-8.84-.58a1.33,1.33,0,0,1-.32-1.44,5.83,5.83,0,0,1,4.22-2C307.21,48.87,308.8,49.06,309.47,51Z" style="fill:#3d372a"/><path d="M210.73,26.19l.9,2.75c-1,1.15-2.31,1.18-3.68,1a8,8,0,0,1-4.6-2.84,1.09,1.09,0,0,1,.17-1.41C206.05,24,208.28,26.72,210.73,26.19Z" style="fill:#d7bfa2"/><path d="M146.6,23.6c-.09.62-.17,1.24-.26,1.85l-4.68-2.3c-.58-.68-1.57-1-1.67-2.11a2.55,2.55,0,0,1,.4-1.32c2.06-1.74,3.83-1.19,5.44.68A3.7,3.7,0,0,1,146.6,23.6Z" style="fill:#5b4f45"/><path d="M269.8,47.07l-.25-1c.66-1.15,2.57-1.36,2.39-3.15a3,3,0,0,1,.42-1.2,4,4,0,0,1,1.12-.7c1.06-.34,2.13-.74,3.24-.18a5.28,5.28,0,0,1,1.21,3c.13,1.35-1.28,1.44-1.84,2.23C274.18,47.6,271.94,47,269.8,47.07Z" style="fill:#c7b4a4"/><path d="M200.53,37.43,202.59,39c.5,1.81-1.72,1.09-2,2.16l-1.94,2c-2.21-.07-3-1.07-2.13-3.21Z" style="fill:#5c4e43"/><path d="M353.44,42l.06-1,5-.83c1,.53,2.18.89,2.33,2.29a2.09,2.09,0,0,1-.67,1.22,5.91,5.91,0,0,1-4.89,1.08C354.08,44.22,353.07,43.55,353.44,42Z" style="fill:#baa390"/><path d="M473.52,11.81l4.8.23c-.14,3.83-3.52,3.72-5.89,4.83a2,2,0,0,1,0-2.88Z" style="fill:#6e6156"/><path d="M198.57,35.82a8.69,8.69,0,0,0-5.71-1c-.55-.13-.68-.45-.47-.95,1-.9,3.06-.74,3-2.82a3.52,3.52,0,0,1,4.12-.61C202.47,32.78,200.76,34.34,198.57,35.82Z" style="fill:#423a2f"/><path d="M284.57,50.24c-.2.81-.87,2.55-1.31.79-.86-3.39-3.56-3.75-5.86-5a3.66,3.66,0,0,1,2.17-1.62,4.76,4.76,0,0,1,1.41,0c1.82.55,3.77.87,5,2.63C286.4,48.55,285.59,49.44,284.57,50.24Z" style="fill:#7e7b76"/><path d="M210.51,35.05c2.73-1.66,5.56-3.61,6,1.92-.42.78-1.46.43-1.95,1.06l-2-.1C211.66,37.1,209.14,37.44,210.51,35.05Z" style="fill:#3a362a"/><path d="M275.51,36.92l5.29,1.8a1.61,1.61,0,0,1-.82.9,18.53,18.53,0,0,1-3.05.72l-1.28.16a12.1,12.1,0,0,1-4-.62,2.4,2.4,0,0,1-1.64-1.35,1.69,1.69,0,0,1,.79-2C272.4,36.57,274,36.09,275.51,36.92Z" style="fill:#a79f8b"/><path d="M134.53,14l1.14.95a3.06,3.06,0,0,1-1.73,1.12,25,25,0,0,1-3.43.75,3.69,3.69,0,0,1-3.14-1.38,2.62,2.62,0,0,1-.35-2,2.34,2.34,0,0,1,1.53-1.33h4C132.49,13.42,133.92,13.29,134.53,14Z" style="fill:#8f7963"/><path d="M397.45,36l2-.13a.85.85,0,0,1,1.15-.07c.56,1.32-.53,2-1.07,2.92l-5,2.09-1-2.82a2.68,2.68,0,0,1,1.59-1.89C395.86,35.8,396.63,35.3,397.45,36Z" style="fill:#726556"/><path d="M92.55,15.89l.09,2a9.18,9.18,0,0,1-2,3.46,2.86,2.86,0,0,1-3.85-.76c-.08-.22-.16-.46-.23-.69,0-.61,0-1.22,0-1.84C88.48,17.12,90.08,15.3,92.55,15.89Z" style="fill:#ad937d"/><path d="M198.57,35.82c-.19-1.66,2.9-2.56,1.05-4.6a1.83,1.83,0,0,1,1.09-2.1l1.85-.2a1.49,1.49,0,0,1,.1,2c-.4,1.71,1,3.82-1.19,5.12Z" style="fill:#312517"/><path d="M237.33,42.14l3.27-.28c2.38-1.72,4.9-1.48,7.46-.54a1.39,1.39,0,0,1,.73,1.41c-1.34,2.2-3.65.23-5.26,1.23-2.77.08-5.54.26-8.16-.93C235.78,42.2,236.79,42.67,237.33,42.14Z" style="fill:#3d3429"/><path d="M124.68,1.37c1.43,2.69.93,5.78,1.77,8.6-.37,1-1,1.5-2.08,1.12a5,5,0,0,1-.89-1.05c-.8-1.4-1.92-2.7-1.47-4.51S123,2.26,124.68,1.37Z" style="fill:#382f24"/><path d="M218.52,30.84c-1.68-.18-2.14-1.66-2.94-2.78,2.94,1,6.12-.81,9,.8l-.1.18a1.35,1.35,0,0,1,.44,1.65c-1,1-2.28.45-3.42.71C220.48,31.35,219.53,31,218.52,30.84Z" style="fill:#d4b989"/><path d="M102.56,17l3.06-3.13a4,4,0,0,0,.85-.07c.48,1,1.14,1.66,2.37,1.18a3.12,3.12,0,0,1,.69,1.84,3.71,3.71,0,0,1-.44,1.91c-1.07,1.1-2.39.59-3.64.59C104.17,18.89,103,18.41,102.56,17Z" style="fill:#665a4f"/><path d="M445.44,15c-1.6-3.2-4.61-1.41-7-2,2.17-1.28,4.61-.78,6.94-1.05.86-.65,1.84-.42,2.8-.37a3,3,0,0,1,1.64,1.34,1.9,1.9,0,0,1-.77,2.39A6.88,6.88,0,0,1,445.44,15Z" style="fill:#4f433b"/><path d="M373.46,42.81c-.24-2.07-4.69-1.49-3-4.77l2.79-.15a1.51,1.51,0,0,1,1.24-.2,11.05,11.05,0,0,1,2.3,3.24,1.91,1.91,0,0,1-.23,1.32C375.62,43,374.7,43.76,373.46,42.81Z" style="fill:#cab6a3"/><path d="M196.5,39.93c.37,1.29.58,2.7,2.13,3.21-.42,1.76-1.73,3.55-3.2,2.28C193.46,43.72,194.14,41.39,196.5,39.93Z" style="fill:#c8c5bd"/><path d="M158.51,18.05l1.06-.33,3.93.41c0,.61.09,1.22.13,1.84-2.18,1.3-5,1.3-6.88,3.21a1.9,1.9,0,0,1-1.33,0c-1.55-1.72-1.62-3.25.59-4.48C156.8,18.33,157.79,18.73,158.51,18.05Z" style="fill:#b79e8c"/><path d="M288.5,40.93l.75.82a1.34,1.34,0,0,1,.75,1c-.6,2.76-3.52,1.44-4.91,2.82-1.71.1-3.36,0-4.63-1.38a1.65,1.65,0,0,1-.11-1.39c1.11-1.08,2.63-1.13,4-1.63A11.77,11.77,0,0,1,288.5,40.93Z" style="fill:#dac9ab"/><path d="M395.47,31c0,.32,0,.64,0,1a.93.93,0,0,1,.33.75c0,.28-.07.42-.13.42a9.6,9.6,0,0,1-4,2.22,1.43,1.43,0,0,1-1.19-.4l-1-3,4.18-1.74A2.34,2.34,0,0,1,395.47,31Z" style="fill:#baa792"/><path d="M14.71,62c1.58-1,2.74-2.8,5-2.36a1.51,1.51,0,0,1-.22,2.17l-1,.94a11.3,11.3,0,0,1-1.76,2.85l-1,.43a3.18,3.18,0,0,1-1.66-2.86A1.81,1.81,0,0,1,14.71,62Z" style="fill:#817465"/><path d="M14.49,62.92c.41,1,.82,2.08,1.24,3.13-1.8,2.87-3.58,2.47-5.35,0l1.34-1.23C12.27,63.61,12.83,62.45,14.49,62.92Z" style="fill:#2f2414"/><path d="M448.37,12.18l-2.95-.24a69.21,69.21,0,0,1,14-1.94,1,1,0,0,1-.19,1.41,6.34,6.34,0,0,1-2.18,1C454.15,13.34,451.24,13.57,448.37,12.18Z" style="fill:#897a6d"/><path d="M124.68,1.37l-2,4.64c-.89.4-1.35-.15-1.78-.79-.45-1.41-1-2.81-.34-4.3C122.12-.66,123.44,0,124.68,1.37Z" style="fill:#605649"/><path d="M400.56,30c-1-.52-1.11-1.51-1.34-2.45.15-1.17,1-1.53,2-1.76.81,1.14,3.27-.16,3.26,2.2C404.1,30.45,402.4,30.35,400.56,30Z" style="fill:#a08c7a"/><path d="M326.52,45.9,326.46,44c2.38-.1,4.6-1.43,7.06-.94,0,.3,0,.59,0,.89l-.26.56a8.19,8.19,0,0,1-2.17,2.26C329.31,47.76,327.69,48,326.52,45.9Z" style="fill:#dbc6b1"/><path d="M153.47,15l2.19,1.91c-.16.81-3.58.33-.89,2.27-1,1.08-1.74,2.54-3.59,2.19-1.5-.85-1.59-2-.61-3.27-.14-1.55,1.3-2.1,2-3.13C152.87,15,153.17,15,153.47,15Z" style="fill:#b49780"/><path d="M374.48,38l-1.23-.08c2.62-2.42,6.14-2,9.24-2.93,1.08.66.09,1.32,0,2C380,38.73,377.43,39.81,374.48,38Z" style="fill:#b8a891"/><path d="M35.63,39.93c-.38-.85-1.2-.86-1.94-1,1.35-2,3.56-2.51,5.7-3.08,1.44,1-.06,2.13.22,3.18C38.45,40,37.33,41.22,35.63,39.93Z" style="fill:#594c41"/><path d="M425.93,26.75l2.61-.73c-1.21,1.63,1.08,7.14-4.44,4a2.28,2.28,0,0,1-.24-1.45C424.2,27.57,424.7,26.74,425.93,26.75Z" style="fill:#82756b"/><path d="M284.57,50.24l.94-3.29a1.82,1.82,0,0,1,1.85-.47c1.4,1,3.58.69,4.46,2.6-.26,2.14-2.27.86-3.22,1.65Z" style="fill:#71675c"/><path d="M60.59,30c0,.32,0,.64,0,1a2.68,2.68,0,0,1-1.82,1,5.24,5.24,0,0,1-2.82-.34A3.49,3.49,0,0,1,54.59,30l-.21-.38c1.63-.48,2.11-2.87,4.23-2.55C59.51,27.86,61.25,28.08,60.59,30Z" style="fill:#927c6f"/><path d="M108.78,17.24l-.11-2.13c.3-.93,1.62-.73,1.88-1.7,0-.7.34-.76.88-.6,1.36.32,2.88-.1,4.12.85a1.62,1.62,0,0,1,.26,1.35,15,15,0,0,1-3.51,2.51A3.3,3.3,0,0,1,108.78,17.24Z" style="fill:#817364"/><path d="M7.65,61c0,.82.08,1.64-.75,2.16-1.53.43-3.26,1.32-3.4-1.48l.25-1.4a2.51,2.51,0,0,1,1.57-1.93C7.49,58,8,59.09,7.65,61Z" style="fill:#947969"/><path d="M3.5,61.64c.68,1.55,2.14,1.28,3.4,1.48l-.45,2c-1.59-.61-3.29,1.84-4.83-.18-.64-1-1.1-2.06.36-2.84Z" style="fill:#8b6f58"/><path d="M288.5,40.93a5.79,5.79,0,0,1-4,1.06c-.67.52-1,0-1.39-.43-1-1-2.56-.37-3.57-1.29a1,1,0,0,1-.29-.78c0-.29.09-.43.16-.43l1.36-.34C283.62,38.55,286.28,39,288.5,40.93Z" style="fill:#a38c74"/><path d="M125.72,24.88l4.17,2.24c-2.82,1.79-5.53.47-8.26-.3C122.07,24.23,124.09,25,125.72,24.88Z" style="fill:#3f3831"/><path d="M318.42,43.18,316.5,45c.06,2-1.57,1.12-2.49,1.47a3.49,3.49,0,0,1-1.16-.14,2.19,2.19,0,0,1-.81-.79,2.32,2.32,0,0,0-.52-1.56l1.07-1.15Z" style="fill:#bc9f86"/><path d="M380.4,42.84c1-.22,2.07-.77,2.17,1,.38.39-2.77,1.14.13,1.29-.89,1-2.05.94-3.23.83-1.34-.59-3.16.57-4.2-1.14C376.31,42.36,378.1,41.92,380.4,42.84Z" style="fill:#5d5041"/><path d="M347.43,41.84c.46,1.41,2.05-.44,2.39.79.08.29-.82.87-1.28,1.31-2.68,1.39-5.36.91-8,0,1.51-2.11,4.45.09,6-2A2.21,2.21,0,0,1,347.43,41.84Z" style="fill:#ceb8a1"/><path d="M102.59,27.73l1-2.77c1.39-2.22,2.84-1.31,4.29-.07a1.31,1.31,0,0,1-.2,1.35C106.26,27.7,104.41,27.67,102.59,27.73Z" style="fill:#352d24"/><path d="M86.55,30.94l1.19.08a5,5,0,0,1-4,2,1.65,1.65,0,0,1-2.61-.61,2.76,2.76,0,0,1,.11-2.25,2.11,2.11,0,0,1,1.28-.77A5.1,5.1,0,0,1,86.55,30.94Z" style="fill:#2b251b"/><path d="M424.47,15.09l-1,1.91c.72,1.25,2.21,2.28,1.21,4.05a2.1,2.1,0,0,1-2.18.25,3.39,3.39,0,0,1-1-1.17c-.61-1.46-1.14-2.93-.17-4.45C422.21,14.64,423.36,15,424.47,15.09Z" style="fill:#867666"/><path d="M117.28,26.15l-.39.06-.31-.25c-.47-.44-1.16-.65-1.37-1.35a15.17,15.17,0,0,1,.24-3.36,3.36,3.36,0,0,1,1.23-2.49c2,.23,2.12,1.94,2.7,3.31a5.72,5.72,0,0,1,.12,2.4C119.13,25.51,118.85,26.69,117.28,26.15Z" style="fill:#2f281d"/><path d="M472.44,14c0,1,0,1.92,0,2.88L470.63,18a1.48,1.48,0,0,1-2.35-.21,2.27,2.27,0,0,1-.08-1.34A4.39,4.39,0,0,1,470.44,14C471.11,12.86,471.77,13.88,472.44,14Z" style="fill:#5f5449"/><path d="M19.63,49l-1-2.1A2.82,2.82,0,0,1,21.65,45a.77.77,0,0,1,1.26.06,3.32,3.32,0,0,1-.63,3.55C21.5,49.34,20.66,49.79,19.63,49Z" style="fill:#8a7763"/><path d="M77.73,36c-1.68.29-1.32-1.53-2.17-2.1a1.53,1.53,0,0,1-.43-1.22,1.79,1.79,0,0,1,1.43-1.29,4,4,0,0,1,3,1.19c.58.78,0,1.68.25,2.5A2.13,2.13,0,0,1,77.73,36Z" style="fill:#2d261b"/><path d="M301.5,51.16c0,.37.08.74.13,1.1-1.9,1.3-4,.62-6,.56,0-.77-.05-1.56.87-1.9C298.2,50.33,299.91,49.41,301.5,51.16Z" style="fill:#3c3228"/><path d="M289.52,42.94l-.27-1.19c1.25-3.37,3.39-1.32,5.27-.86.32.24.43.47.32.7s-.22.34-.34.34l-.95.17a2.67,2.67,0,0,1-2.87,1.56A2.29,2.29,0,0,1,289.52,42.94Z" style="fill:#b6a185"/><path d="M468.39,17a2.2,2.2,0,0,0,2.24,1c-.05,1.46-.67,2.23-2.24,1.8-1.53-.92-3.44.29-4.93-.86,0-.32,0-.65,0-1a3.65,3.65,0,0,1,2.28-1.7A2.51,2.51,0,0,1,468.39,17Z" style="fill:#3a3028"/><path d="M407.49,33c0,.64,0,1.27,0,1.9l-5,2.17-.47-.55a4,4,0,0,1,1.34-3.94,4.11,4.11,0,0,1,1.39-.52A2.87,2.87,0,0,1,407.49,33Z" style="fill:#4a3f32"/><path d="M451.45,19l1,1.83-6.94,1c-.91-1.16-.28-1.9.68-2.56C447.89,18.71,449.63,18.12,451.45,19Z" style="fill:#241b12"/><path d="M166.56,28c2.13-.07,4.28-.19,4,3l-1.67.29a2.45,2.45,0,0,1-2.66-1.11A2,2,0,0,1,166.56,28Z" style="fill:#493f35"/><path d="M142.72,11c-.05-.34-.09-.68-.14-1l4-2.93a2.27,2.27,0,0,1,1.5,1.25,3.16,3.16,0,0,1,0,1.37,3.27,3.27,0,0,1-1.92,2A3.94,3.94,0,0,1,142.72,11Z" style="fill:#61584e"/><path d="M179.56,32.94,180.61,31c1-1.19,2.25-1.15,3.57-.65,1.39,1.06,1.07,2.19.12,3.34l-.69.37Z" style="fill:#20190e"/><path d="M117.28,26.15a2.79,2.79,0,0,0,1.41-2.33,2.2,2.2,0,0,1,2.88-1.28,2.32,2.32,0,0,1,1.31,2.19c-.67.82-1.78,1.16-2.31,2.12A3.26,3.26,0,0,1,117.28,26.15Z" style="fill:#504137"/><path d="M386.31,42.85c2.1-1.94,4.69-2,7.31-1.88-1,2-2.76,2.43-4.81,2.09A2,2,0,0,1,386.31,42.85Z" style="fill:#3e3521"/><path d="M418.42,20a6.85,6.85,0,0,1-2.94-3,5.07,5.07,0,0,1,4-1,2.52,2.52,0,0,1,.6,2.71A2.18,2.18,0,0,1,418.42,20Z" style="fill:#a7917f"/><path d="M255.45,44c-.58,1.56-2.08.55-3,1.09l-2.85-.31a1.61,1.61,0,0,1-.55-1.24,2.74,2.74,0,0,1,.66-1.2C252.5,39.76,253.56,43.33,255.45,44Z" style="fill:#2e2518"/><path d="M142.72,11l3.8-.08c1.41-.11,2.81-.19,3.88,1l.16,1c-1.69,0-3.38-.07-4.91.84a4.45,4.45,0,0,1-2.27-1.58Z" style="fill:#4b4134"/><path d="M22.6,44.94l-.48,0-.47,0c.83-2.47,3.43-1.89,5.09-3,.83-.5,1,.09,1.19.71a3.28,3.28,0,0,1-.88,1.65,5.19,5.19,0,0,1-1.53,1.14,4.09,4.09,0,0,1-1.25.25A2.31,2.31,0,0,1,22.6,44.94Z" style="fill:#706256"/><path d="M419.45,19c0-1,0-2,0-3l1.86-.28c.36,1.43.72,2.87,1.09,4.31C421.08,20.66,419.74,21.32,419.45,19Z" style="fill:#948675"/><path d="M166.58,29.93l2.31,1.3c-2.19,1.33-4.32,1-6.43-.2a2.3,2.3,0,0,1,1.35-1.67A2.64,2.64,0,0,1,166.58,29.93Z" style="fill:#73695c"/><path d="M475.69,8.11a6.81,6.81,0,0,0-4.35.82L470.47,8c1-1.57,2.81-1.51,4.27-1.85S476.84,6.72,475.69,8.11Z" style="fill:#a19281"/><path d="M60.59,30c-.56-1-2.13-1.36-2-2.88,1.26-.59,2.43-1.46,3.94-1.27C61.77,27.12,62,28.9,60.59,30Z" style="fill:#827467"/><path d="M386.31,42.85l2.5.21a12.83,12.83,0,0,1-6.11,2l-1.32-.76,1.19-.53Z" style="fill:#322b1b"/><path d="M6.86,53.28l.81,1.44c.77,1.19.43,2.07-.74,2.73a2.22,2.22,0,0,1-2.32-.51C4.66,55.29,4.25,53.35,6.86,53.28Z" style="fill:#b4a496"/><path d="M312.56,52.84c2.85-1.4,5.35,0,7.9,1-1.64,1-3.34.72-5,.19Z" style="fill:#20190e"/><path d="M375.41,44.85c1.35.35,3-.5,4.06,1.07L374.59,47l-1-1a1.53,1.53,0,0,1,.79-1.35A1,1,0,0,1,375.41,44.85Z" style="fill:#30271a"/><path d="M224.55,38.92V40c.33.17.44.34.34.52s-.22.27-.33.27a11.3,11.3,0,0,1-5.12-1.56,1.15,1.15,0,0,1-.17-1.39,3.13,3.13,0,0,1,2.86-.65A3.74,3.74,0,0,1,224.55,38.92Z" style="fill:#54493b"/><path d="M200.57,41.16l2-2.16,4.54-1C205.46,40.07,203.4,41.4,200.57,41.16Z" style="fill:#191306"/><path d="M202.66,30.94c0-.67-.07-1.35-.1-2,0-1,0-1.93,0-2.89l1-.31.27,1.38c1,1.5,2.13,2.91,2.25,4.81-.7,1.8-1.52,1.39-2.4.15Z" style="fill:#af987f"/><path d="M163.56,30,162.46,31c-2,0-3.51-1.07-5.16-1.92a2.22,2.22,0,0,1,1.12-.95,5.22,5.22,0,0,1,1.47-.32,5.55,5.55,0,0,1,3.62.79A.93.93,0,0,1,163.56,30Z" style="fill:#494137"/><path d="M120.55.92a7.05,7.05,0,0,1,1,4.08,1.32,1.32,0,0,1-2,0l-1.11-1A3.13,3.13,0,0,1,120.55.92Z" style="fill:#50463a"/><path d="M150.4,12c-1.35-.11-2.87.43-3.88-1l1.17-1.8c1.28-.89,2,.09,2.71.86Z" style="fill:#2b231d"/><path d="M115.65,25l.93,1-8.9.28-.1-1.28c1.37-1.47,3.16-1.27,4.91-1.28A4.42,4.42,0,0,1,115.65,25Z" style="fill:#2b221b"/><path d="M115.58,14.07c-1.43-.28-3.22.64-4.15-1.26l4-.91a.9.9,0,0,1,1.16.16,1.45,1.45,0,0,1,0,1.27A2.16,2.16,0,0,1,115.58,14.07Z" style="fill:#423c30"/><path d="M27.59,42.8l-.85-.8c1.32-1.37,2.8-2.35,4.84-2l.15,1C30.86,42.82,29.83,44.23,27.59,42.8Z" style="fill:#7c6d5b"/><path d="M210.51,35.05c-.07,1.48,1.45,1.85,2,2.88l-5.47.19c.6-1,1.2-2,1.81-3Z" style="fill:#261a0b"/><path d="M192.28,34.1a6.42,6.42,0,0,1,.58.69c-3.11.17-6.27,1-9.25-.7l-.11-.33C186.48,32.56,189.45,31.54,192.28,34.1Z" style="fill:#e3e1de"/><path d="M413.33,18.57a2.92,2.92,0,0,1-1.86,3.4c-.76,1.33-1.65,1.67-2.73.33l-.17-.2C409.67,20.27,411.84,19.87,413.33,18.57Z" style="fill:#b39f8c"/><path d="M425.5,15.93a7.12,7.12,0,0,1,0-.8c1.85-1.2,3.94-.93,6-1a1,1,0,0,1-.18,1.21,5.73,5.73,0,0,1-1.85.92A4.47,4.47,0,0,1,425.5,15.93Z" style="fill:#4b3f33"/><path d="M14.38,48.89C13.2,51.3,11,51.74,8.62,52,10.14,50.22,12.26,49.55,14.38,48.89Z" style="fill:#edeae5"/><path d="M455.46,20.85c2.19-1.78,4.89-.43,7.24-1.17a.67.67,0,0,1,.93.39Z" style="fill:#393026"/><path d="M79.84,35.1c-1.23-.58-.49-1.39-.25-2.14.4-.88.89-1.55,2-1a2.12,2.12,0,0,0,2.1,1A5.75,5.75,0,0,1,79.84,35.1Z" style="fill:#160f03"/><path d="M124.58,11l1.87-1a3.76,3.76,0,0,0,2.1,2.08l-1,1a2.44,2.44,0,0,1-3,.19A1.78,1.78,0,0,1,124.58,11Z" style="fill:#5f5648"/><path d="M360.48,42l-1.94-1.8,3.63-.37c1.22,0,3-1.41,3.29,1.16l-.93,0A4.18,4.18,0,0,1,360.48,42Z" style="fill:#aa9a8d"/><path d="M436.55,22l6,0c-1.72,1.6-4,1.52-6.06,1.91Z" style="fill:#1d1408"/><path d="M134.53,14c-1.18-.12-3.07.49-2-1.94l4.91.08Z" style="fill:#937e60"/><path d="M219.49,38.07l0,1.18L214.53,38A1.93,1.93,0,0,1,216.48,37l1.9.14A1,1,0,0,1,219.49,38.07Z" style="fill:#373025"/><path d="M110.55,13.41a1.82,1.82,0,0,1-1.88,1.7c-1.26.41-2.25.36-2.2-1.36C107.68,11.82,109.16,13.16,110.55,13.41Z" style="fill:#443a30"/><path d="M395.47,31l-1.81-.77c1.46-.95,2.62-2.69,4.77-1.77C398.29,30.29,396,29.67,395.47,31Z" style="fill:#8a7b69"/><path d="M416.51,30.05a2.17,2.17,0,0,1,0-.88c-.63-1.66.71-1.78,1.7-2.18,1.42-.11,2.76,0,3.49,1.48-.56,1.75-2.45.42-3.32,1.44Z" style="fill:#3c2a1d"/><path d="M418.35,29.91l3.11-.95c1.07-1.58,2-2,2.77.24a3.26,3.26,0,0,0-.13.82Z" style="fill:#ecece9"/><path d="M232.48,29.7c1.34.8,2.2,2.36,4,2.45a.78.78,0,0,1-.39,1.25c-1.32.43-2.62.72-3.8-.34a2.22,2.22,0,0,1,.36-3Z" style="fill:#a48f7b"/><path d="M224.57,40.81a6.91,6.91,0,0,0,0-.79c1.89-.13,3.83-.37,4.91,1.77C227.68,42.23,226.16,41.33,224.57,40.81Z" style="fill:#2f2610"/><path d="M158.32,28.9l-1,.21a6,6,0,0,1-3.77-1.05l1.05-1.12C156.34,26.62,158.13,26.24,158.32,28.9Z" style="fill:#372c21"/><path d="M258.59,45.86l.92-1c2.06-1.32,4.07-1.7,5.95.32-1.53,1.42-3.52.36-5.21,1Z" style="fill:#302213"/><path d="M288.6,50.73c.61-1.15,2.42-.38,2.87-1.78a.74.74,0,0,1,1.14-.05c1,3.75-2.22,1.27-3.17,2.15A2.52,2.52,0,0,1,288.6,50.73Z" style="fill:#4c4338"/><path d="M322.41,55.05,323.65,54c.87-.5,1.64-.1,2.42.24a3.11,3.11,0,0,1,1.33,1.33l.06.64a1.89,1.89,0,0,1,0,.82Z" style="fill:#a3998d"/><path d="M120.57,26.85a1.85,1.85,0,0,1,2-1.92,3.62,3.62,0,0,1,2-1.37,1.23,1.23,0,0,1,1.07.41,2.77,2.77,0,0,0,.1.91c-.88,1.67-3.12.46-4.09,1.94Z" style="fill:#5d5248"/><path d="M431.63,25.08l-2.42-.47c1.67-1.75,3.54-.82,5.32-.63C434,25.52,432.77,25.17,431.63,25.08Z" style="fill:#1b1308"/><path d="M446.44,20l-1,1.9a1.64,1.64,0,0,1-2,0V20c-.09-1.26.72-1.56,1.73-1.49A1.21,1.21,0,0,1,446.44,20Z" style="fill:#55483d"/><path d="M236.53,32.89a6,6,0,0,1-.08-.74c1.15-.23,2.27-.36,3.1.76,0,.34,0,.69,0,1a2.43,2.43,0,0,1-3,0h0C236,33.62,236,33.26,236.53,32.89Z" style="fill:#c3b5a6"/><path d="M69.63,40.1c.5-1.43.2-4,3-2.06Z" style="fill:#110d00"/><path d="M459.53,10.79a6.82,6.82,0,0,0-.07-.79l2.71-.18c1.12.32,2.49-.05,3.29,1.17-1.36,1.38-3,1.29-4.68.86A2.5,2.5,0,0,1,459.53,10.79Z" style="fill:#695a4b"/><path d="M150.4,10l-2.71-.86L147.63,8a3,3,0,0,1,2-1.3C151.57,7.45,150.54,8.83,150.4,10Z" style="fill:#4c463e"/><path d="M463.63,20.07l-.93-.39.76-.73c1.65.23,3.49-.6,4.93.86Z" style="fill:#1f160f"/><path d="M249.52,43.05c0,.29,0,.59,0,.88-1.72.87-3.49.56-5.26.19l-.4.05-.34-.21c1.4-1.69,3.35-.7,5-1A.57.57,0,0,1,249.52,43.05Z" style="fill:#2a1f12"/><path d="M279.38,45c-.25,1.12-1.35.64-2,1h-1.31c-.69-1.5,1.47-1.08,1.44-2.13a1.15,1.15,0,0,1,1-.28A1.44,1.44,0,0,1,279.38,45Z" style="fill:#2c2115"/><path d="M360.48,48.88c1.57-1.82,3,.86,4.59.09-1.37,1.14-3,.85-4.6.87-.34-.21-.45-.43-.33-.64S360.37,48.88,360.48,48.88Z" style="fill:#3e3723"/><path d="M431.54,15a6.49,6.49,0,0,0-.05-.77l1.95-.21,3.45.24c-1.25,1.12-2.39.63-3.43.77A1.28,1.28,0,0,1,431.54,15Z" style="fill:#2e281c"/><path d="M4.61,56.94l1.84.11c.72,1.15-.26,1.34-1,1.7L3.75,60.24C3.67,59,3.36,57.79,4.61,56.94Z" style="fill:#faf7f4"/><path d="M116.57,13l-1.1-1.07L115.32,10a2.93,2.93,0,0,1,3.23,2C118.18,12.89,117.63,13.43,116.57,13Z" style="fill:#705c4a"/><path d="M16.75,65.62c-.14-1.4.72-2.18,1.76-2.85L19.75,64a1.53,1.53,0,0,0-.23.68Z" style="fill:#332b1d"/><path d="M2,62.08l-.36,2.84C.88,64.78-.1,64.81,0,63.71S1,62.21,2,62.08Z" style="fill:#edeae5"/><path d="M149.67,6.72a2.08,2.08,0,0,1-2,1.3l-1-.94C147.53,6.23,148.49,5.49,149.67,6.72Z" style="fill:#65544c"/><path d="M185.51,22.82l-5,.18a.6.6,0,0,1-.26-.6c.05-.21.11-.32.18-.32l.15-.17C182.25,22.21,184.09,21.37,185.51,22.82Z" style="fill:#fbfbfa"/><path d="M315.42,54l5-.19c0,.31,0,.62.05.94C318.82,54.46,317,55.19,315.42,54Z" style="fill:#6a5d4e"/><path d="M360.48,48.88c0,.32,0,.64,0,1l-.4.22-.45,0c-1.25-.57-2.89.49-3.92-1Z" style="fill:#282208"/><path d="M153.37,5.34c-.44.64-.72,1.55-1.72,1.26-.25-.08-.58-.94-.47-1.06a3.84,3.84,0,0,1,1.52-1C153.37,4.29,153.37,4.87,153.37,5.34Z" style="fill:#beb6ab"/><path d="M140.56,21l1.1,2.16-1.93.16L137.55,21A2.05,2.05,0,0,1,140.56,21Z" style="fill:#3a2d20"/><path d="M399.51,38.74l.95-2.79c1.11-.54,1.47.44,2,1l0,.1C401.87,38.22,400.6,38.33,399.51,38.74Z" style="fill:#514a42"/><path d="M244.27,44.12l5.26-.19c0,.28,0,.56,0,.85A8.56,8.56,0,0,1,244.27,44.12Z" style="fill:#5c4e41"/><path d="M294.5,41.93l0-1c1.74.19,3.65-.46,5.11,1.06Z" style="fill:#c0a88b"/><path d="M237.33,42.14l-2,.89-1.81-.19C234.36,40.18,236.1,42.51,237.33,42.14Z" style="fill:#281f0f"/><path d="M365.46,40.94c-.79-1.25-2.15-.9-3.29-1.16,1.3-1,2.81-.84,4.31-.78A1.93,1.93,0,0,1,365.46,40.94Z" style="fill:#baa899"/><path d="M29.66,54c-1.64.42-1.78,2.33-3.06,3.1-3.61.42-2.84-2.45-3.31-4.39.83-1.72,1.32-3.67,3.33-4.53A5.07,5.07,0,0,1,28.91,48a3,3,0,0,1,2.42,1.86A3.32,3.32,0,0,1,29.66,54Z" style="fill:#574e41"/><path d="M23.57,53c1.59.93.59,3.78,3,4.08A6.55,6.55,0,0,0,22.83,61c-.85,2.39-2,1.46-3.36.82.07-.72.14-1.44.22-2.16V57.92a1.77,1.77,0,0,1,.88-.6,7.3,7.3,0,0,1,.81,0c-.11-.31-.47-.36-.65-.62A3.83,3.83,0,0,1,20,55C20.54,53.19,21.64,52.36,23.57,53Z" style="fill:#332b1d"/><path d="M47.56,44l-2-.09c-1.58.55-2-.45-2.28-1.68a1.88,1.88,0,0,1,.83-1c1.33-.5,2.8-.79,3.66-2.12a4.37,4.37,0,0,1,1-.83c1.59-.28,2.71-1.53,4.21-2A2.22,2.22,0,0,1,55,37a2.89,2.89,0,0,1,.12,2.78c-1.26,1.4-3.2,2-4.2,3.74C49.88,44.35,48.83,44.93,47.56,44Z" style="fill:#52493d"/><path d="M54.6,43c-.3,1.12-.6,2.24-.89,3.36l-6,2.64c-3.14-.92-1.77-2-.09-3a44.27,44.27,0,0,1,5.72-3.17A1.74,1.74,0,0,1,54.6,43Z" style="fill:#272013"/><path d="M43.63,42a3.35,3.35,0,0,0,2,2c-1.67.81-2.52,3.4-5,2.34l-.62-1a4.25,4.25,0,0,1-.22-1.17,4.77,4.77,0,0,1,.19-1.19A1.88,1.88,0,0,1,40.7,42l.91-.08A1.38,1.38,0,0,1,43.63,42Z" style="fill:#4a4338"/><path d="M29.66,54a6,6,0,0,0,1-4,2.27,2.27,0,0,1,1.17-.74,2.55,2.55,0,0,1,2.8,1.7A4.77,4.77,0,0,1,29.66,54Z" style="fill:#332b1d"/><path d="M34.6,50.93l-3-1.06a2.58,2.58,0,0,1,.8-2.92,1.6,1.6,0,0,1,1.22-.25l1.83,1.2a1.23,1.23,0,0,1,1.25-.16c.12.19.24.38.37.57l-.42.54Z" style="fill:#4a3e34"/><path d="M53.6,42.94c-1.34,2.31-3.51,3-6,3,0-.63,0-1.27,0-1.9l3-1.11a2.14,2.14,0,0,1,2.54-.47Z" style="fill:#372f25"/><path d="M33.92,56.08c-1,.79-1.94,1.74-3.36,1.72C30.81,55.53,31.94,55,33.92,56.08Z" style="fill:#332b1d"/><path d="M40.59,44.82l0,1.46c-1.25-.33-2.05.5-3,1.1A1.74,1.74,0,0,1,37.15,46a1.78,1.78,0,0,1,1.29-1.67A2.56,2.56,0,0,1,40.59,44.82Z" style="fill:#695a45"/><path d="M37.61,46v1.42s0,.47,0,.47a.69.69,0,0,1-1,.15l-.12-.39a.71.71,0,0,1,0-.89,1.35,1.35,0,0,1,0-.82A.6.6,0,0,1,37.61,46Z" style="fill:#3b2a17"/><path d="M36.64,48l1-.15c-.08.6-.34,1-1,1C36.63,48.56,36.63,48.28,36.64,48Z" style="fill:#b8a697"/><path d="M156.55,23c.82-4.64,4.6-2.3,7.08-3l2.78.88c1.13.24,2.33.41,2.39,2-1.06,1.48-2.93.66-4.23,1.49-1.49.17-2.95.57-4.47.6A4.39,4.39,0,0,1,156.55,23Z" style="fill:#d0b9a3"/><path d="M180.46,22.08a2.19,2.19,0,0,1,.08.92c-2.61.65-5.75,1-3,4.9a1.36,1.36,0,0,1-2,.1l-3-1.08c-.52-1.37-1.81-2.58-.91-4.26,1.21-.64,2.64.29,3.83-.53Z" style="fill:#baa08d"/><path d="M175.48,22.13c-1.09,1.28-2.62.69-4,.92a2,2,0,0,1-1.82.59,2,2,0,0,1-1.06-.76l-2.23-2C169.66,19.65,172.44,21.84,175.48,22.13Z" style="fill:#ab907f"/><path d="M200.71,29.12c0,.88-.07,1.74-1.09,2.1-1.46-.31-3-.79-4.07.75-2,1.58-3.83.54-5.67-.38a1.78,1.78,0,0,1-.68-1.22,7.33,7.33,0,0,1,2.32-3.44C195.75,22.77,198,27,200.71,29.12Z" style="fill:#7a6c61"/><path d="M189.55,30c0,.29,0,.58,0,.87-1.63,1.65-3.2,1.18-4.73-.15-2-1.34-4.33.7-6.29-.72-1.32-.06-2.65-.13-4-.21.32-.58.65-1.16,1-1.75l2-.1c3.12-1.72,6.53-1.91,10-1.91.58.7,2.12.23,2.06,1.7C189.59,27.72,189.54,30,189.55,30Z" style="fill:#716659"/><path d="M189.55,30c-2.19-.55-.9-2.87-2-4a6.43,6.43,0,0,1,4,.94C191.52,28.37,191.67,29.9,189.55,30Z" style="fill:#91877c"/><path d="M140.56,21l-3,0c-1.64-.5-3.61.56-5-1.06-.15-1.41-1.41-1.94-2.24-2.81a1,1,0,0,1,.29-1.16l2.89-1a7.73,7.73,0,0,0,2.93,2.72c.38.16.76.34,1.12.53.72.35,1.48.64,2.21,1a2.1,2.1,0,0,1,.84.83C140.57,20.36,140.56,20.68,140.56,21Z" style="fill:#665646"/><path d="M130.59,16c0,.32,0,.64,0,1,0,.6-.57.76-1,1l-2,3c-2.59,0-2-2.09-2.22-3.58a4.47,4.47,0,0,1,.76-2.31,1,1,0,0,1,1.42-.14Z" style="fill:#716359"/><path d="M126.6,17.09c0,1.4-.42,2.91,1,3.94-1.17.64-1.5,1.85-2,2.94h-1a2.1,2.1,0,0,1-1.6-1.81,8.78,8.78,0,0,1,.59-3.08,5.94,5.94,0,0,1,.49-1.16,3.17,3.17,0,0,1,1.43-1.18A1,1,0,0,1,126.6,17.09Z" style="fill:#5d5043"/><path d="M129.61,18l1-1c1,.76,3.3.71,2,3Z" style="fill:#362e22"/><path d="M290.65,43.09l2.89-1c.41,1.7,6.27-.31,2.77,4l-5,0a1.18,1.18,0,0,1-1.25-.43A2,2,0,0,1,290.65,43.09Z" style="fill:#e9e0d1"/><path d="M301.5,51.16l-5-.24a3.75,3.75,0,0,1,.19-.75L304.51,47a1.78,1.78,0,0,1,1.44,1,1.37,1.37,0,0,1-.5,1.63Z" style="fill:#80705f"/><path d="M312.5,44.93v1l-.38.59c-1.72,1.36-3.38,1.53-4.94-.25a3.7,3.7,0,0,1-.46-1.33,2.38,2.38,0,0,1,.8-1.87c1.78-.37,2.2,2.16,4,1.85A.66.66,0,0,1,312.5,44.93Z" style="fill:#c1ac94"/><path d="M307.5,45c0,.34,0,.67,0,1,.51,1,0,1.65-.77,2.23a1.14,1.14,0,0,1-1.21-.16l-1-1,.93-1.1C306.06,45.44,306.36,44.3,307.5,45Z" style="fill:#b6a491"/><path d="M307.5,45l-2.06,1c.1-1.39-.1-3,2.08-2.87C307.51,43.69,307.51,44.32,307.5,45Z" style="fill:#c4af99"/><path d="M312.5,44.93l-1,0c0-.33,0-.66,0-1Z" style="fill:#d5c0a9"/><path d="M75.59,25c3.78-1.43,6.78-4.54,11-5.1V20c1.17,1.53.83,2.9-.4,4.19-2.61,1.82-5.66,1.55-8.6,1.77A2.78,2.78,0,0,1,75.59,25Z" style="fill:#c1b1a4"/><path d="M75.59,25l2.19.21c2,1.34.7,2.52-.17,3.72a6,6,0,0,1-1.17.9c-1.59.71-3.19,1.41-4.5-.47-.41-1.46-1.81-2.63-1.31-4.36C72.28,23.89,73.94,25.33,75.59,25Z" style="fill:#8f7968"/><path d="M70.63,25c1.06,1.14,2.41,2.13,1.93,4a3.71,3.71,0,0,1-2.2,2.48A2.81,2.81,0,0,1,69,31.34c-.87-.68-1.14-1.44-.38-2.38-1.41-1-1.35-2,0-3Z" style="fill:#776453"/><path d="M23.57,53c-1.3.66-2.87,1.05-3.09,2.87a.49.49,0,0,1-.85.16l-1.11-.27c.14-1.35.12-2.75,1.2-3.81.81-1.88,2.85-2.44,4.13-3.84A3.38,3.38,0,0,1,25,47.45c1,0,1.8.14,1.77,1.39C25.19,49.82,25.7,52.42,23.57,53Z" style="fill:#6d5c4c"/><path d="M16.58,55.8C14.5,58.25,11,58,8.65,60c-1.42-2.49.21-3.78,2-5C13.05,52.29,14.65,55.2,16.58,55.8Z" style="fill:#786552"/><path d="M10.64,54.93c-.75,1.64-2,3.08-2,5-.33.34-.66.68-1,1-1-.51-.42-2.46-2.15-2.21l1-1.7c1-.47,1.14-1.38,1.22-2.33Z" style="fill:#cfb89c"/><path d="M24.58,48.87c-1.18,1.71-3.25,2-4.86,3.06l-.09-3a2.14,2.14,0,0,0,2-1.14C23.06,47,23.9,47.7,24.58,48.87Z" style="fill:#836a4d"/><path d="M112.62,24.93l-5,0c-1.33,0-2.66-1-4,0L93.52,24.9a1.06,1.06,0,0,1,.34-1.39c2.44-1.17,5.15-1.14,7.73-1.75,1.63-.12,3.26-.18,4.89-.15.57,0,1.13,0,1.69,0C110.09,22.13,113.25,21,112.62,24.93Z" style="fill:#40362c"/><path d="M86.55,30.94a6.72,6.72,0,0,1-4-1c1.27-3.6,3.89-4.88,7.55-4.38.16.19.33.38.5.56C89.75,28.15,86.42,28.12,86.55,30.94Z" style="fill:#2c261a"/><path d="M93.63,24.08c0,.28-.06.55-.11.82l-3,1.19.07-.26a5.52,5.52,0,0,1-1.79-1.14c-1-2.87,1.26-2.46,2.82-2.74a3.44,3.44,0,0,1,2.06.79A1,1,0,0,1,93.63,24.08Z" style="fill:#6e5d4f"/><path d="M325.77,54.81,323.65,54l-1.16-1a2,2,0,0,1,.1-1.81c1.06-2.25-2.66-2.11-2.07-4.12,2.38-2.24,4.21-.88,6,.9A19,19,0,0,0,331,47a4.9,4.9,0,0,1,4.44,1.75c1.5.42,2.79-.24,4.1-.78a1.65,1.65,0,0,1,.27,2c-.94.86-2.39,0-3.3,1-1.37.5-2.35,1.26-1.91,3l-1.94.11c-.55-.77-.92-1.71-2-2-1.41-.23-2.86-.76-4,.65A4.84,4.84,0,0,1,325.77,54.81Z" style="fill:#b0967f"/><path d="M346.5,48c2.23,0,4.44,0,6-2,.85-.38,1.21.14,1.47.83.09,1.11-.71,1.58-1.47,2.08l-1.89.13c-1.25.71-2.57.4-3.88.3A.89.89,0,0,1,346.5,48Z" style="fill:#9e8873"/><path d="M339.45,49.81c0-.6.05-1.2.07-1.8l4-.3a1.8,1.8,0,0,1,.58,1.1,1.63,1.63,0,0,1-.57,1.09,6.3,6.3,0,0,1-1,.2C341.46,50.46,340.4,50.76,339.45,49.81Z" style="fill:#9e8873"/><path d="M352.5,48.87c.33-.67.67-1.34,1-2a3,3,0,0,1,1.35-.83c1.38-.26,2.69-.23,3.7.95l-4.13,1.92Z" style="fill:#96806d"/><path d="M343.49,49.9l0-1a2.19,2.19,0,0,1,2.87,0l4.23.14C348.38,50.47,345.88,49.78,343.49,49.9Z" style="fill:#96806d"/><path d="M339.45,49.81l3.08.29c-1.87,1.31-4,.62-6,.84C337.21,49.85,338.39,50,339.45,49.81Z" style="fill:#705e4a"/><path d="M14.49,62.92l-2.77,1.86c-.21-1.13-2.66-1.78-.93-3.23a2.53,2.53,0,0,1,3.92.47C14.63,62.32,14.55,62.62,14.49,62.92Z" style="fill:#160e02"/><path d="M19.63,56a3.54,3.54,0,0,1,.85-.16l1.13,1c-.05.64-.69.71-1,1.09l-.9,0Z" style="fill:#32291a"/><path d="M203.64,32.06c.74.12,1.58.93,2.1-.34A18.34,18.34,0,0,1,207.43,29l4.2,0c2.74,1,.53,2.35,0,3.11a17.9,17.9,0,0,1-3.33,2.8C205.21,36.42,203.12,36.4,203.64,32.06Z" style="fill:#c9b6a1"/><path d="M219.49,38.07l-1.11-1c.05-.38.11-.77.16-1.15,1.15-2.26,3-2.28,5.06-1.59,1.25.8,2.52,1.88,1.85,3.39-.47,1.07-1.87.87-2.91.19Z" style="fill:#978271"/><path d="M223.54,35c-1.76-.13-3.5-.2-5,1-.91-1.46-.51-2.46,1.05-3.06a2.78,2.78,0,0,1,2-.87,6.15,6.15,0,0,1,2.22.25c1.15.48,2.51.67,3,2.12C225.92,36,224.78,35.75,223.54,35Z" style="fill:#594b41"/><path d="M221.68,32.8l-2.09.1-1.06-2.06c1.1-1.41,2.14-1.14,3.13.13A1.32,1.32,0,0,1,221.68,32.8Z" style="fill:#978573"/><path d="M58.54,31l2-.08a3,3,0,0,1,2,2.18,2.72,2.72,0,0,1-1.44,1.59A10.15,10.15,0,0,1,56.7,35a5.31,5.31,0,0,1-1.41-.41c-1.11-.81-1.71-1.71-.46-2.89C56.09,31.63,57.53,32.35,58.54,31Z" style="fill:#7b654e"/><path d="M67.61,35.86v1.06c-.43.58-1,.5-1.65.5a5.32,5.32,0,0,1-2.26-1.94.86.86,0,0,1,0-1.07L63.6,34c.35-.33.7-.66,1-1l1-.72c.91-.75,2-.46,3-.58a2.18,2.18,0,0,1,1.2,1.45C69.85,34.61,67.83,34.48,67.61,35.86Z" style="fill:#342c23"/><path d="M63.72,34.41a4.21,4.21,0,0,0,0,.62,3.84,3.84,0,0,1-2.25,2.53,3.09,3.09,0,0,1-2.71-.24,1.65,1.65,0,0,1-.46-1.25c.52-1.64,2.32-1.26,3.34-2.12l.92-.85Z" style="fill:#4a3e39"/><path d="M68.56,32.07a2.55,2.55,0,0,1-2.88.17Q67.15,30.6,68.6,29a2,2,0,0,0,1,2C69.84,31.87,69.59,32.33,68.56,32.07Z" style="fill:#796c5e"/><path d="M64.64,33l-1,1Z" style="fill:#baa291"/><path d="M346.38,48.86h-2.87l0-1.16c.62-2.53-2-2.54-3-3.76h8c-.41,1.47-4.15,1.25-2,4A6.86,6.86,0,0,1,346.38,48.86Z" style="fill:#bba590"/><path d="M335.42,48.79l-4.78-1c-.53-.7-.08-1,.5-1.32,1.26-.42,1.4-1.87,2.37-2.56v0C334.77,45.32,338.24,45.8,335.42,48.79Z" style="fill:#e1cdbd"/><path d="M424.23,29.2c-.85-.88-1.85-.14-2.77-.24-.63-1.25-1.95-.82-2.94-1.2-.85-1.2-2.58-.91-3.47-2-.59-1.66.46-2.68,1.43-3.74.65-.66,1.29-1.32,1.94-2l1-1c.71,1.16,1.88,1,3,1,0,.31,0,.62,0,.93.38,1.74,3.71.43,3.19,3.09l.33,2.73C425.37,27.57,424.8,28.38,424.23,29.2Z" style="fill:#a58f7b"/><path d="M431.54,15l1.92,0c3.69,2.89,7.38,2.79,11.08,0,1.31.89,2.61.27,3.91,0a2,2,0,0,0,1-2,.91.91,0,0,1,1.17-.19A14.58,14.58,0,0,1,452.46,17c-.33.67-.67,1.33-1,2a8.1,8.1,0,0,1-5,1c-1-1.3-2-1.24-3,0a6.76,6.76,0,0,0-4-1c-2.47-1.47-5.3-1.45-8-2a2.64,2.64,0,0,1-2.26-1,.83.83,0,0,1,.56-1Z" style="fill:#3f352a"/><path d="M429.47,16a2.1,2.1,0,0,1,2,1c2.31,2.23,2.09,3.92-1.06,5-2-.67-.17-3.2-1.94-4C428,16.88,428.67,16.4,429.47,16Z" style="fill:#50453b"/><path d="M425.6,24c-.06-2.06-4.61.51-3.19-3.09l2,.05a1.34,1.34,0,0,1,2,0l0,2Z" style="fill:#7a675b"/><path d="M450.4,13.06a7.23,7.23,0,0,0-.93,0l-1.1-.85c3.06-.13,6.13-.1,9.06-1.19,1.1.67,1.95,1.49,1.72,2.94-.4,2.05-2.64,1.79-3.74,3l-.45,0-.46,0A10.62,10.62,0,0,1,450.4,13.06Z" style="fill:#6e6052"/><path d="M468.39,17l-2.94,0c-1.76-.25-1.1-2.21-2.12-3a5.14,5.14,0,0,1-.88,0,1.48,1.48,0,0,1-.41-1.31c1.6-1.61,3-.55,4.41.33,1.09.06,2.28-.2,3,1-.47.48.13-.11-.17.44-.41.75-2.55,1.06-.77,2.49Z" style="fill:#5a4f45"/><path d="M462.44,12.94c0,.34,0,.68,0,1a8.67,8.67,0,0,1-7,2.94c-.06-2.08,2.26-1.6,3-2.81a4.73,4.73,0,0,1,2.12-1.68A1.9,1.9,0,0,1,462.44,12.94Z" style="fill:#584c41"/><path d="M450.4,13.06c1.6,1,3.61,1.64,4.1,3.85l-2,.08C449.81,16.71,450.63,14.61,450.4,13.06Z" style="fill:#4f433b"/><path d="M463.33,14c1.28.59,1.51,1.92,2.12,3a2.21,2.21,0,0,1-2,1C461.67,16.71,463.85,15.32,463.33,14Z" style="fill:#584c41"/><path d="M93.63,24.08l0-1.08a2.78,2.78,0,0,1,1.07-2.91,4.75,4.75,0,0,0,.93-.15c.69-.4,1.55.08,2.22-.46a2.61,2.61,0,0,1,1.18,0,6.68,6.68,0,0,1,2.31,1.88c.37.49.73,1,.28,1.62A23.83,23.83,0,0,1,93.63,24.08Z" style="fill:#78624f"/><path d="M100.54,21.91l-2-1.95a1.37,1.37,0,0,1-.49-.87,1.19,1.19,0,0,1,.5-.85l4-1.29,3,2c-.1.22-.19.43-.27.65C104.28,21.54,102.34,21.59,100.54,21.91Z" style="fill:#524539"/><path d="M94.66,20.09c-.19,1,.06,2.22-1.07,2.91l-2-.05a1.9,1.9,0,0,1-.32-2.15c.74-1.27,1.12-3.28,3.3-1.62Z" style="fill:#a99079"/><path d="M94.57,19.18c-1.62-.43-2,1.21-3,1.81a.58.58,0,0,1-1,0c-.12-1.56.09-2.89,2-3.09C93.53,17.94,94.41,18,94.57,19.18Z" style="fill:#bea686"/><path d="M97.59,20c-.72,1.16-1.33-.14-2-.08l.11-1.19a2.65,2.65,0,0,1,1.14-.24,1.5,1.5,0,0,1,1,.49A.85.85,0,0,1,97.59,20Z" style="fill:#9f8b71"/><path d="M97.61,19.09l-1.08-.25v-.69l2,.09,0,.82A.61.61,0,0,1,97.61,19.09Z" style="fill:#442f22"/><path d="M96.52,18.15a2.28,2.28,0,0,1,0,.69l-.43.09-.4-.18C95.81,18.32,96,18,96.52,18.15Z" style="fill:#1d0a02"/><path d="M240.53,41c-1.71-.24-3.6.49-5.11-.9a1.22,1.22,0,0,1-.29-1.11c.39-1.08,1.55-1.26,2.27-2,1.71-2.39,3.45,2.76,5.16,0,1.27,1,2.42,2,2.26,3.86C243.43,42.19,242,40.63,240.53,41Z" style="fill:#ae9785"/><path d="M235.64,38.8c-.08.42-.15.85-.22,1.27-2.21,0-4.33-.31-6-2-1-1.81-.13-2.77,1.53-3.36l.72.21c.64,1.44,2,.79,3.06,1.08A10.45,10.45,0,0,1,235.64,38.8Z" style="fill:#8f7966"/><path d="M244.48,40.87c-.52-1.35-2.11-2.17-1.92-3.88.88,0,.61-2,2-1.06.82,1,2.13,0,3,.75a1.71,1.71,0,0,1,.31,1.22c-.68,1.07-.48,2.56-1.59,3.44C245.61,41.42,245,41.5,244.48,40.87Z" style="fill:#918176"/><path d="M249.48,33.9c1.42.09,2.92-.12,4.06,1a1.13,1.13,0,0,1,.15,1.39,3.81,3.81,0,0,1-3.35,1.58,3,3,0,0,1-2.08-.92,1.8,1.8,0,0,1,.25-2.13Z" style="fill:#7c6b5d"/><path d="M236.53,32.89c0,.36,0,.72,0,1.07a7.35,7.35,0,0,1-4.85.93l-.28.12c-1-.56-2.13-1.1-2.14-2.54,1.33-2,2.32-.65,3.34.35Z" style="fill:#ddd1be"/><path d="M236.52,34h3l1.88.19C239.73,34.8,238,35.65,236.52,34Z" style="fill:#edd9c2"/><path d="M248.51,34.86l0,2a.6.6,0,0,1-1,.1c-1.11-.08-2.33.14-3-1.07Z" style="fill:#847066"/><path d="M235.64,38.8a2.55,2.55,0,0,1-.88-2.83l2.64,1A2.28,2.28,0,0,1,235.64,38.8Z" style="fill:#dac6af"/><path d="M226.46,34.11c-1-.41-2.25,0-3-1.13a2.56,2.56,0,0,1,1-2.13c0-.6,0-1.2,0-1.81.8-.11,1.57-.11,2.05.71,1.24.88,3.14,1.45,1.72,3.6A1.54,1.54,0,0,1,226.46,34.11Z" style="fill:#e9d5ba"/><path d="M227.68,33c.91-1.54-.67-2.22-1.15-3.28l6.09.34v2.72c-1-.08-2.15-1.72-3.12.12A1.28,1.28,0,0,1,227.68,33Z" style="fill:#caae82"/><path d="M374.48,38l8-1c1.21,1,4.65-2.1,4,2.21-.8,1.11-2,.8-3,.78-2.38,0-4.46,2-7,1C374.46,40.86,374.47,39.41,374.48,38Z" style="fill:#c9af9a"/><path d="M390.47,35h1c1.54-.94,2.83-.36,4.05.67a.93.93,0,0,1-.08,1.32l-2,1.07-1.06-.11C392.62,36.36,389.88,36.76,390.47,35Z" style="fill:#b39c85"/><path d="M358.56,47l-4.15-.1a1.05,1.05,0,0,1,.19-1.32c1.79-.89,3.92-.51,5.66-1.56,1.4-.29,2.79-1.31,4.22-.08,2.68-1.79,5.34-.07,8,0a.92.92,0,0,1-.18,1.35c-2.22.64-4.63-.57-6.8.66Z" style="fill:#a68f7f"/><path d="M365.5,46c2.1-1.75,4.69-.45,7-1.12a1.47,1.47,0,0,1,2.09.24l-.94.91Z" style="fill:#625142"/><path d="M58.61,36.06c0,.3,0,.61,0,.92-.53,2.33,1.51.81,2.14,1.42a3.08,3.08,0,0,1,1.93,1.72C61.29,42.3,59,39,57.59,40.93a2.25,2.25,0,0,1-2.85.36.92.92,0,0,1-.14-1.35V37c-.74-1.37.14-2.19,1-3a2.91,2.91,0,0,0,.78,0C57.25,34.56,58.46,34.75,58.61,36.06Z" style="fill:#4f443a"/><path d="M62.68,40.12c-.74-.18-1.58-.13-1.94-1,.52-1.05,1.67-1.25,2.52-1.87.76-.34,1.51-.94,2.36-.2l2-.1c.23,1.69-1.94.74-2.14,1.95Z" style="fill:#8c7d73"/><path d="M54.59,41l3,0c-.06,2.06-1.54,2-3,2l-1,0h0C53,41.83,52.74,40.87,54.59,41Z" style="fill:#3a3422"/><path d="M448.45,15c-1.29,1.47-2.6,1.42-3.91,0,.3,0,.6,0,.9,0A2.8,2.8,0,0,1,448.45,15Z" style="fill:#66574a"/><path d="M374.56,45.07l-2.09-.24c0-.3,0-.59,0-.89l1-1.12,3-1c1.4-.15,2.55-1.52,4.11-.8-.05.59-.1,1.19-.16,1.78-1.67.64-3.6.67-5,2A4.22,4.22,0,0,0,374.56,45.07Z" style="fill:#a08879"/><path d="M380.56,41.06c-1.33.47-2.63,1.08-4.11.8,0-.3,0-.61,0-.91,2.26-.87,4.51-1.71,7-1C382.78,41.05,381.59,40.85,380.56,41.06Z" style="fill:#c3ac99"/><path d="M404.44,32.77l-.95.21c-1,.13-2,.75-3,0-1.64-1-.29-2,.06-3l3.91-2a10.53,10.53,0,0,1,6-.12c.08.23.15.45.23.67C409.44,31.16,406.45,31.24,404.44,32.77Z" style="fill:#8c7968"/><path d="M408.74,22.3a3,3,0,0,0,2.73-.33c.71,1.18,1.89,1,3,1,.54,1-.07,1.66-.78,2.26a1,1,0,0,1-1.19-.26C409.92,25.93,409.41,24,408.74,22.3Z" style="fill:#a68f7d"/><path d="M412.49,25h1c1.83-.34,1.37,1.11,1.6,2a2.52,2.52,0,0,1-2.38,1.85,2.85,2.85,0,0,1-2.21-.87v-.14C411.19,26.92,412.61,26.49,412.49,25Z" style="fill:#9b8672"/><path d="M354.49,45.92a7.77,7.77,0,0,1-.08,1l-.9,0-1-.9c.12-1.38-.46-2.92.94-4l2.05,2C356.11,45.09,355.06,45.38,354.49,45.92Z" style="fill:#c9b5a1"/><path d="M462.44,12.94l-1.72.13a1.33,1.33,0,0,1-.26-2.1l5,0a2,2,0,0,1,1,2C465.11,13.45,463.79,12,462.44,12.94Z" style="fill:#7d6d5d"/><path d="M468.5,16.9c-2.47-1.87-.28-2.24.94-2.93h1Z" style="fill:#716459"/><path d="M55.63,34l-1,3-2.08.17c-1.37-1.14-.45-2.74-.82-4.08-.07-2,2.78-1.23,2.89-3.06l1.12,1.14a.49.49,0,0,1-.17.78C54.56,32.64,54.54,33.32,55.63,34Z" style="fill:#a4886a"/><path d="M51.7,33.06c1.57,1.1.76,2.67.82,4.07-.78,1.72-2.28,1.9-3.89,1.82-.54-1.12.3-1.46,1-1.86Z" style="fill:#59483b"/><path d="M49.67,37.09l-1,1.86c0,.32,0,.63,0,.95-1.16,1.06-2.14.46-3.1-.33A3.5,3.5,0,0,1,44.6,37c0-.35,0-.7,0-1.06Z" style="fill:#6e5e52"/><path d="M252.94,36l.6-1.07a.65.65,0,0,1,.82-.07c1.84,1.12,4.13.55,6,1.57a2.68,2.68,0,0,1,.73,1.19c0,1.6-1.08,2.54-2.2,3.44a1,1,0,0,1-1.24-.1l-3-.12-.48-.38c-.63-.77,1.2-2.53-1.08-2.63C252.82,37.26,253,36.62,252.94,36Z" style="fill:#c6ae9b"/><path d="M260.52,38c0-.3,0-.6,0-.91a.92.92,0,0,1,1.52-.13c2-1.23,4.29-.81,6.48-.9l2,1.08c0,.57,0,1.14,0,1.71-.56,1.09-1.66,1.29-2.67,1.67a4.52,4.52,0,0,1-1.27.17,8.08,8.08,0,0,1-2.41-.72C262.91,39.32,261.23,39.52,260.52,38Z" style="fill:#a08c79"/><path d="M262,36.91l-1.52.13c-2-.77-4.6,0-6.12-2.17C257,35.05,260.24,33.3,262,36.91Z" style="fill:#574d3d"/><path d="M360.48,42c1.08-1.47,2.65-.86,4-1,0,.67,0,1.34,0,2-.82.63-1.83.49-2.77.65a2.19,2.19,0,0,1-1.22-.72Z" style="fill:#b19a89"/><path d="M361.44,43l3.05,0c0,.31,0,.62,0,.94l-4,1C359.93,43.85,360.86,43.52,361.44,43Z" style="fill:#cbb6a7"/><path d="M67.61,35.86c-1.45-2.5,1.8-1.53,2.06-2.78a1.32,1.32,0,0,1,1-.62c1.28,0,2.54-.44,3.83-.23a2.47,2.47,0,0,1,1.07.7c0,.33,0,.66,0,1Z" style="fill:#1a170f"/><path d="M124.58,11l0,1.84a3.13,3.13,0,0,1-1.87,1.71,3.93,3.93,0,0,1-2.6.11,2.13,2.13,0,0,1-1-.85,1.64,1.64,0,0,1,.4-1.81l1-2a3,3,0,0,1,4,0Z" style="fill:#69594a"/><path d="M124.53,10l-4,0c.41-1.79-2.51-2.94-1-4.95l2,0,1.09,1C122.21,7.83,124.8,8.22,124.53,10Z" style="fill:#796454"/><path d="M119.55,12c0,.66,0,1.31,0,2-1.34.77-2.64,1.42-3-.95h0l2-1Z" style="fill:#827262"/><path d="M227.68,33l1.82-.1c.89.46,1.89.82,1.92,2.07a3.23,3.23,0,0,0-2,3l-4.91.88a2.17,2.17,0,0,1-2-1c4,.21,1.63-1.67,1-3,1-.11,2.18.24,2.92-.85Z" style="fill:#7a6658"/><path d="M244.48,40.87l2.09,0c.62-.61.35-1.58.87-2.23,1.38-1.33,2.81-.79,4.25-.15a3,3,0,0,1,1.21,1.63,1.51,1.51,0,0,1-.5,1.21c-1.3.27-2.47,1.25-3.92.73l-7.88-.16c0-.3-.06-.6-.07-.89C241.81,39.17,243.17,41.28,244.48,40.87Z" style="fill:#796758"/><path d="M290.54,45.88c.26.09.54.17.81.24.61.84,1.68,1.47,1.26,2.78l-1.14.05c-.94-1.47-4,1.28-4-2a2.21,2.21,0,0,1,.5-1l.47-.36a2.93,2.93,0,0,1,1.13-.23A2.18,2.18,0,0,1,290.54,45.88Z" style="fill:#554939"/><path d="M140.58,20.05l-1.05-.2c-1.21-1.76.49-2.7,1.1-4l.74-1c1.4-.41,2.8-.68,4.16.17-.18,2.24,2.39,1.51,3.06,2.83a1.8,1.8,0,0,1,.33,2,3.29,3.29,0,0,1-3.34,1C144.08,19.68,142.46,19.1,140.58,20.05Z" style="fill:#b9a58f"/><path d="M145.53,15.05a3.4,3.4,0,0,1-3.94-.07.63.63,0,0,1-1,0l2.82-2.74a1.73,1.73,0,0,1,2.27,1.6Z" style="fill:#9a826c"/><path d="M148.51,20.08c0-.73.06-1.46.08-2.2l2,.23c0,1.06-.14,2.17,1,2.84a1.54,1.54,0,0,1,.21,2C149.46,23.38,148.51,22.26,148.51,20.08Z" style="fill:#c4a98c"/><path d="M331.43,51.11c.78.81,1.94,1.45,1.21,2.89-.38,3.93-4,.11-5.18,2.17l.11-.33c-1.2-1.48-.92-2.78.45-4C329.14,51.56,330.08,50.45,331.43,51.11Z" style="fill:#e2d1c1"/><path d="M140.56,15h1c0,.33,0,.67,0,1a3.5,3.5,0,0,1-1.78,1c-1.29.27-2.61.5-3.2,1.93-1.91-.59-3.79-1.2-3.11-3.87l2.19-.08Z" style="fill:#877666"/><path d="M266.43,39.64a1.56,1.56,0,0,1,.88-.11c1.83.63,4.36-.25,5.23,2.43,0,.28,0,.57-.06.85-.48,1.54-1.45,2-2.94,1.34-.74-.25-1.51,1.4-2.23,0a4,4,0,0,1-1.47-1.65A3,3,0,0,1,266.43,39.64Z" style="fill:#f8e8d8"/><path d="M266.56,42.73l.75,1.38-1.85,1-5.95-.32,0-1.95C261.87,42.52,264.2,42,266.56,42.73Z" style="fill:#958272"/><path d="M269.54,44.15l2.94-1.34c1.3,3.3,1.16,3.46-2.93,3.26C269.55,45.43,269.54,44.79,269.54,44.15Z" style="fill:#3b3021"/><path d="M320.52,47c.94,1.61,6.58.5,2.8,4.84-.9-.42-2.06-.06-2.82-.92a3.27,3.27,0,0,0-.88-.11c-1.55-.59-1.68-1.66-1-3a2.42,2.42,0,0,1,.89-.85Z" style="fill:#9e8975"/><path d="M319.47,48.14a1.87,1.87,0,0,0,.15,2.69h-8.11a1.07,1.07,0,0,1-.33-.79c0-.3.05-.45.1-.45a3.74,3.74,0,0,1,2.6-2C315.7,48.16,317.8,46.13,319.47,48.14Z" style="fill:#756555"/><path d="M311.51,49.89v1l-2,.12-4-1.26c0-.56.05-1.11.08-1.66a9,9,0,0,1,.89-.24c1.42-.89,2.63.09,3.91.45A2.37,2.37,0,0,1,311.51,49.89Z" style="fill:#726457"/><path d="M320.5,50.94c1,.1,2.14-.17,2.82.93L322.49,53C320.82,53.28,321.15,51.62,320.5,50.94Z" style="fill:#6a5d4e"/><path d="M44.6,37c.83.42.93,1.2,1,2,.64,1.3-.14,2.14-1,3-.33,0-.65,0-1,0l-2,0A4.76,4.76,0,0,1,44.6,37Z" style="fill:#493d34"/><path d="M40.7,42a4.8,4.8,0,0,0-.14.83,2.18,2.18,0,0,1-2.56.68c-.72-.31-.92-1-1.34-1.6l-1-2,4-.94C40,40,40.33,41,40.7,42Z" style="fill:#806c54"/><path d="M410.46,28l2,0c.5.61,1.45.26,1.92.92-1.87,2.07-4.62,2.65-6.88,4.06l-3.05-.21C405.22,29.63,409,30.25,410.46,28Z" style="fill:#836c5d"/><path d="M414.37,28.92a2,2,0,0,1-1.92-.92,2.15,2.15,0,0,0,2-1c.35-.31.43-.93,1-.93,1.53-.33,3.3-1.08,3,1.73-.84.24-1.71.44-2,1.41Z" style="fill:#8c7968"/><path d="M33.6,46.7l-1,.43L32,46.77a3.21,3.21,0,0,0-3.34-1.41,3,3,0,0,1-2.13-1.44c.34-.38.69-.75,1-1.12,1.8.39,2.82-1,4.14-1.76C34.81,42.12,34.3,44.38,33.6,46.7Z" style="fill:#ceb79c"/><path d="M36.66,41.94l1,1.08c.43.36,1,.55,1.3,1.07a.75.75,0,0,1-.52.86l-.84,1-1-.06C35.47,44.55,36.63,43.26,36.66,41.94Z" style="fill:#907b60"/><path d="M36.54,46.71c0,.3,0,.6,0,.9l-1.09.29Z" style="fill:#30200f"/><path d="M178.55,30c2,.71,4-1.6,6,0,.3.2.4.4.29.58s-.21.28-.31.28l-3.93.18A2.43,2.43,0,0,1,178.55,30Z" style="fill:#5b5145"/><path d="M148.51,20.08a6,6,0,0,0,3.12,2.76,2.94,2.94,0,0,1,3.88,0l1,.1,4,1c.75.54,1.63,1,1.11,2.19a3.27,3.27,0,0,1-1.23.63c-2.29.41-4.06-.75-5.84-1.9l-8-1.3-1-2.67C146.27,19.69,147.43,20,148.51,20.08Z" style="fill:#947e6d"/><path d="M154.56,24.91c2.24-.9,3.77,1.78,5.95,1.15.72,1.28-.17,2-.91,2.84h-1.28c-.85-1.4-2.68-.95-3.74-1.95C154.57,26.27,154.57,25.59,154.56,24.91Z" style="fill:#574b41"/><path d="M400.5,32.94c1-.29,2-1.56,3,0l-1,4-2-1-1-.06C399.78,34.91,400.14,33.92,400.5,32.94Z" style="fill:#94806d"/><path d="M395.47,36.94c0-.33,0-.66,0-1-1.64-1-1.48-2,0-3l0-.95a5.31,5.31,0,0,1,2,4.06Z" style="fill:#9e8879"/><path d="M319.47,48.14c-2-1-4.1,3.25-6-.21a1.4,1.4,0,0,1,0-2c.55-1.7,2.3.21,3-1,1.48,0,2.94,0,3,2C319.49,47.36,319.48,47.75,319.47,48.14Z" style="fill:#b49987"/><path d="M331.48,46.92l-.84.9a3.26,3.26,0,0,1-4.14.1c0-.68,0-1.35,0-2,1.64,1.48,3.31.21,5,.08q.42.32.27.63C331.68,46.82,331.58,46.92,331.48,46.92Z" style="fill:#c1a893"/><path d="M266.56,42.73c-2.32.84-4.63,2.14-7,.15L257.64,41c.31,0,.62,0,.93,0,1.72-1.46,4.13-.54,5.95-1.7l1.91.37C266.47,40.67,266.52,41.7,266.56,42.73Z" style="fill:#e8d9c8"/><path d="M248.48,42l4-1.11a1.41,1.41,0,0,1,2,0l.14-.09c.26,1,.52,2.1.77,3.15-2,.18-3.59-2.93-5.93-1a6.32,6.32,0,0,0-1-.13C248.53,42.62,248.5,42.32,248.48,42Z" style="fill:#5c4e41"/><path d="M426.44,20.94l-2,0c-.33-1.33-.67-2.66-1-4C425.24,17.72,426.84,18.58,426.44,20.94Z" style="fill:#8c7969"/><path d="M429.47,16l-1,2-3-2,4.26-.89A1.78,1.78,0,0,0,429.47,16Z" style="fill:#5e5045"/><path d="M161.67,25.83,160.52,24c1.38-.11,2.73-.93,4.13-.08,1.46-1.11,3.51,1,4.84-.88l2,0c.63,1.21,2.32,2.15,1,3.87-2,1-4-2.15-6-.05a2,2,0,0,1-1.89.71A4.14,4.14,0,0,1,161.67,25.83Z" style="fill:#c8af9b"/><path d="M164.74,26.86h1.81c0,.37,0,.74,0,1.1,0,.66,0,1.31,0,2l-3,0V29C163,27.73,162.77,26.68,164.74,26.86Z" style="fill:#5d5449"/><path d="M415.52,26l-1,.93a2.07,2.07,0,0,0-1-2c.34-.66.67-1.33,1-2a2.06,2.06,0,0,1,2-1Z" style="fill:#afa18c"/><path d="M207.43,29c1.51,2.2-.67,2.11-1.69,2.74-1.19-1.31-2.69-2.49-2-4.62C205.42,26.93,206.14,28.5,207.43,29Z" style="fill:#eee2cf"/><path d="M272.54,42l-5.23-2.43,3.18-.73,2,.21c1,.72,2.22,1.39,1,2.87Z" style="fill:#f7eddf"/><path d="M278.51,44.08a2.33,2.33,0,0,0-1-.13c-1.19-.7-1-1.88-1-3-.36-.21-.48-.42-.37-.64s.22-.34.33-.34l.18-.25C280.24,40,279.67,41.89,278.51,44.08Z" style="fill:#bdaa99"/><path d="M276.5,40a4.57,4.57,0,0,1,0,1l-3.08.9-1-2.87Z" style="fill:#dfcfc0"/><path d="M361.44,43l-1,1.91c-1.85,1.19-3.93,1-6,1l1-2,5-1Z" style="fill:#d6c3b3"/><path d="M184.54,30.85a4.94,4.94,0,0,1,0-.86,7.66,7.66,0,0,0,5,.84l6,1.14c.89,3.74-2.42,1.05-3.27,2.13l-8.78-.34Z" style="fill:#34271f"/><path d="M288.4,45.8l-1,1.13-1.93,0c-1.74-.48-3.61-.6-5-2-.27-.23-.36-.46-.27-.68s.18-.34.27-.34a6.83,6.83,0,0,0,5,.91C286.86,44,287.75,44.52,288.4,45.8Z" style="fill:#6f665c"/><path d="M280.53,44v1l-1.15.05-.87-.94c0-1.69.47-3.59-1.83-4.33.71-1.06,1.77-.73,2.76-.69a8.65,8.65,0,0,1,.08.89c.63.54,1.47.92,1.57,1.91a2.07,2.07,0,0,1-.46,1.16A4.14,4.14,0,0,0,280.53,44Z" style="fill:#8e7e6a"/><path d="M122.58,14.06c.36-.92,1.19-1.09,2-1.26l3,.23c0,.65,0,1.31,0,2h-.49l-.5,0c-.74.56-1.82-.61-2.45.48C123.2,15.45,122.35,15.35,122.58,14.06Z" style="fill:#96826b"/><path d="M90.61,21l1,0c0,.65,0,1.3,0,2-1.14.15-3.07-.54-2.1,1.92-1.52.74-3.1,1.71-3.9-.85.67-1.27,1.36-2.53,1-4.05A6.66,6.66,0,0,0,90.61,21Z" style="fill:#9c8672"/><path d="M224.49,30.85a2,2,0,0,1-1,2.13l-1.82-.18c0-.61,0-1.22,0-1.83A2.52,2.52,0,0,1,224.49,30.85Z" style="fill:#e5d3b9"/><path d="M107.61,22.94h-1c-1-1.16-1.77-2.37-1-4h0a3.58,3.58,0,0,1,3.22-.12,2.3,2.3,0,0,1,2.77-.23C114.33,23.8,108.87,21.45,107.61,22.94Z" style="fill:#584b41"/><path d="M111.55,19.27l-2.75-.42c0-.54,0-1.07,0-1.61l3.81-.29c.14.16.27.32.41.47a2.37,2.37,0,0,1,.06,1.24l-.34.53A1.17,1.17,0,0,1,111.55,19.27Z" style="fill:#dfc6b0"/><path d="M154.64,18.84l-2.47-1.66,3.49-.26,2.85,1.13c-.41.87-1.23.89-2,1C155.82,19.51,155.18,19.6,154.64,18.84Z" style="fill:#9b7760"/><path d="M154.64,18.84l1.85.2c-1.65.94-1,2.47-1,3.84l-3.88,0c0-.63-.06-1.26-.08-1.89Z" style="fill:#d1bca4"/><path d="M288.4,45.8l-2.9-.94c.07-3.29,3.33.08,4-1.92l1.12.15c0,.93-.07,1.86-.1,2.79l-1,0a.73.73,0,0,0-1.09,0Z" style="fill:#d1b8a4"/><path d="M280.63,43a4,4,0,0,1-.08-1c.77-.95,1.65-1.58,2.94-1l1,1C283.49,43.3,282,42.88,280.63,43Z" style="fill:#bba792"/><path d="M395.45,32.91a2.77,2.77,0,0,0,0,3l-4-1A5.78,5.78,0,0,1,395.45,32.91Z" style="fill:#a48e7d"/><path d="M460.46,11c.09.7.17,1.4.25,2.1l-2.28,1c-.33-1-.66-2.08-1-3.11l2.1-.19A5.09,5.09,0,0,0,460.46,11Z" style="fill:#c5b5a3"/><path d="M331.48,46.92c0-.31,0-.63,0-.94a1.85,1.85,0,0,1,2-2A3,3,0,0,1,331.48,46.92Z" style="fill:#cdb7a3"/><path d="M55.54,31.92a4,4,0,0,0,.16-.78L58.54,31C58.15,33.28,57.12,33.49,55.54,31.92Z" style="fill:#53473f"/><path d="M112.59,17c.09-2,1.54-2,3-2,.88-.82,1.88-.48,2.87-.32a1.26,1.26,0,0,1,.32,1.37,3.48,3.48,0,0,1-2,1c-1.44.18-2.88.69-4.32.05Z" style="fill:#847565"/><path d="M118.69,15,115.58,15c0-.31,0-.61,0-.91.33-.36.67-.72,1-1.09.73,1.18,1.89,1,3,.95v0C119.92,14.83,119.49,15.08,118.69,15Z" style="fill:#6e6355"/><path d="M283.49,41l-2.94,1-1-2.1C280.8,40.45,282.68,38.71,283.49,41Z" style="fill:#847260"/><path d="M313.48,45.94c0,.66,0,1.33,0,2a3.13,3.13,0,0,1-2,2L310.43,49c-.55-1.85,1.5-1.95,2.08-3v0C312.82,45.93,313.15,45.94,313.48,45.94Z" style="fill:#b2a08e"/><path d="M85.59,24c1,1.44,2.53.9,3.9.85l1.13,1C87.3,26,84.92,28,82.5,29.91H82l-.46,0c-1.18,1.36-2.51,1.82-4.11.66a2.46,2.46,0,0,1-.94-1.71c.36-1.25,2.32-2,1.25-3.7Z" style="fill:#594e44"/><path d="M77.6,30c1.33,1,2.65,0,4,0,0,.68,0,1.36,0,2l-2,1-3-1C76.11,30.86,76.69,30.33,77.6,30Z" style="fill:#362f25"/><path d="M124.57,19c-.33,1-.66,2-1,3-.44.75-.87,1.54-2,1l-2.9.83c0-.61-.09-1.23-.14-1.85-1.17-2.23.69-2.82,2-3.71a7.45,7.45,0,0,1,2-.67,2.49,2.49,0,0,1,1.31.24A7,7,0,0,0,124.57,19Z" style="fill:#7c6c59"/><path d="M111.55,19.27l1.15-.14c1.55.66,2.41,2.21,3.84,3l-.9,2.83-3-.06c-.65-3.24-3.32-1.39-5-2C107.68,20.38,112.56,23,111.55,19.27Z" style="fill:#62564c"/><path d="M116.54,22.16c-3.52,1.82-2.63-1.94-3.84-3l-.1-.13a2.81,2.81,0,0,1,2.74-.82,2.27,2.27,0,0,1,1.21.83Z" style="fill:#21180d"/><path d="M116.55,19l-1.08-.13a1.56,1.56,0,0,1,1.14-1.66,10.83,10.83,0,0,1,3.68-.19,3.41,3.41,0,0,1,1.35.66.79.79,0,0,1-.13,1.26c-1.27.73-3,1.06-3,3C117.89,21,117.22,20,116.55,19Z" style="fill:#493e33"/><path d="M24.58,48.87l-2.92-1,.94-2.89,2,0a2.18,2.18,0,0,1,0,3A6.85,6.85,0,0,1,24.58,48.87Z" style="fill:#a8917d"/><path d="M77.6,30c-.35.65-.69,1.31-1,2l-1,1c-.32,0-.64,0-.95,0-.62-.66-1.84-.12-2.28-1.13.61-2,3.28-1.14,4.1-2.87h.06Z" style="fill:#494138"/><path d="M121.59,23l2-1,1,2a2,2,0,0,1-2,1C122.26,24.28,121.93,23.63,121.59,23Z" style="fill:#3f3328"/><path d="M24.63,48c0-1,0-2,0-3a7.68,7.68,0,0,1,.83-.19c.91,2.17,3.07.39,4.36,1.38a2.41,2.41,0,0,1,1,.89c0,1.74-1.66,1.21-2.52,1.77l-1.56,0Z" style="fill:#bda79a"/><path d="M29.61,46.87c-1.51-.44-3.66.39-4.14-2.09.36-.29.72-.58,1.09-.86.8.09,1.61.18,2.05,1C29.34,45.38,30.11,45.8,29.61,46.87Z" style="fill:#e4cdb7"/><path d="M164.74,26.86A2.11,2.11,0,0,0,163.56,29l-4-.07c.3-.95.61-1.89.91-2.84l1.16-.23C162.76,26,163.94,25.86,164.74,26.86Z" style="fill:#5e544a"/><path d="M328.53,52a5.52,5.52,0,0,0-1,3.86l-1.79-1c-.08-1-.16-1.9-.25-2.85A2.32,2.32,0,0,1,328.53,52Z" style="fill:#cebca9"/><path d="M28.32,48.82,30.72,47a1.41,1.41,0,0,1,1.92-.3l-.06.4c-.34.91-.67,1.83-1,2.74-.31.05-.63.08-.95.1C30.13,49,29.22,48.94,28.32,48.82Z" style="fill:#5d5041"/><path d="M20.59,57.94l1-1.09C22.62,58.48,21.21,57.83,20.59,57.94Z" style="fill:#9c8c7f"/><path d="M54.59,41a2,2,0,0,0-1,2l-3.06,0c.22-2.53,1.9-3.08,4.05-3Z" style="fill:#30271d"/><path d="M44.61,42c.32-1,.65-2,1-3l3,.91C47.88,41.77,46.33,42,44.61,42Z" style="fill:#4a4338"/><path d="M38.64,43.94l-1-.92,2.89-.16c0,.35,0,.7,0,1A1.27,1.27,0,0,1,38.64,43.94Z" style="fill:#594739"/><path d="M38.64,43.94l2,0c0,.3,0,.6,0,.91L38.45,45C38.52,44.62,38.58,44.28,38.64,43.94Z" style="fill:#2b2413"/><path d="M169.49,23c-1,3.87-3.24.51-4.84.88.68-2.88,2.82,0,4-1C168.92,22.92,169.21,23,169.49,23Z" style="fill:#e7d5c6"/><path d="M139.69,16.05l1.88-.06-2,3.86-1.88-1C136,16.29,138.81,16.86,139.69,16.05Z" style="fill:#d2beae"/><path d="M139.69,16.05c-.7.93-2.21,1.29-2,2.85l-1.06,0C134.67,14.7,138.07,16.36,139.69,16.05Z" style="fill:#958475"/><path d="M124.55,14.87c.74-1.08,1.35.13,2,.11,0,.7,0,1.41,0,2.11-.26,0-.51.09-.76.15l-.57-.13a2.72,2.72,0,0,1-.89-.73c-.09-.17-.17-.35-.25-.53A.94.94,0,0,1,124.55,14.87Z" style="fill:#ccb599"/><path d="M125.84,17.24l-.94.8a.87.87,0,0,1-1.25-.08,1.06,1.06,0,0,1-.48.19c-.41-.52-.93-1-.83-1.76.59-.92,1.31-1.19,2.22-.43h0c.3.31.6.61.91.91Z" style="fill:#ceb298"/><path d="M123.65,18l1.25.08c-.12.3-.23.61-.33.91C124,18.87,123.6,18.61,123.65,18Z" style="fill:#e8ccb8"/><path d="M312.51,45.94c.22,1.64-1.49,2-2.07,3l-4-1.18L307.51,46C309.18,47.3,310.84,46.2,312.51,45.94Z" style="fill:#95836f"/><path d="M76.47,28.88c-.32,2.27-2.93,1.61-3.9,3.05a1,1,0,0,1-1,.35,1.69,1.69,0,0,1-1-1.33l2-2C73.91,30.75,75.16,28.67,76.47,28.88Z" style="fill:#725d50"/><path d="M70.6,31l1,1q.5,1.47-1,1.11h-.46l-.46.06-1.1-1c.34-.36.68-.74,1-1.11Z" style="fill:#51473d"/><path d="M105.58,19a6.4,6.4,0,0,1,1,4l-5,0-1-1.05Z" style="fill:#665a4f"/><path d="M328.53,52l-3,0c1.68-2.28,3.79-1.59,5.91-.85Z" style="fill:#bda893"/><path d="M58.61,36.06,56.41,34l5.19,0Z" style="fill:#957e6b"/><path d="M65.62,37l-1.91,1c-1.2.52-1.79-.18-2.26-1.13L63.68,35C65,35,65.57,35.77,65.62,37Z" style="fill:#18180b"/><path d="M61.45,36.89,63.71,38c-.74,1.06-1.93.85-3,1.07-1.09-.32-3.34.52-2.13-2.11Z" style="fill:#251d18"/><path d="M97.61,19.09a1.58,1.58,0,0,1,1,0,5.43,5.43,0,0,1,0,.9q-.47,0-.93.06C97.58,19.71,97.59,19.4,97.61,19.09Z" style="fill:#b39e85"/><path d="M251.55,39.07c-1.34.07-2.65-1-4-.07-.26-.22-.35-.44-.27-.67s.16-.35.24-.35c0-.33,0-.65,0-1l1-.09,2,.1C251.21,37.51,252.1,37.93,251.55,39.07Z" style="fill:#a69181"/><path d="M247.53,38l0,1c.48,1,.8,2-1,1.83C245.86,39.53,245,38.17,247.53,38Z" style="fill:#a99684"/><path d="M251.55,39.07,250.5,37,253,36c.22.6.46,1.2.69,1.8a2.3,2.3,0,0,1-1.14,2.09Z" style="fill:#957f6d"/><path d="M264.52,39.28c-1.11,3.62-3.86,1.51-6,1.7-.21-1.58,1.36-2,2-3Z" style="fill:#dac8b5"/><path d="M252.5,39.9a2.16,2.16,0,0,1,1.14-2.09c2.62.37.57,2.09.9,3.13l-2,0C252.51,40.57,252.51,40.24,252.5,39.9Z" style="fill:#736054"/><path d="M70.58,33l1-1.11c.32,0,.65,0,1,0l2.08,1C73.28,32.61,72,34.69,70.58,33Z" style="fill:#2f2820"/><path d="M124.56,16l-2,.8a1.21,1.21,0,0,1-1,1.21l-.48,0-.47-.07c-.63-.69-1.66-1-1.93-2a2.76,2.76,0,0,1,0-.86l.87-1.09,3,.11c.39.9,1.18.86,2,.81C124.55,15.24,124.56,15.6,124.56,16Z" style="fill:#d2baa4"/><path d="M288.46,45.91c.38-1,.75-1,1.09,0Z" style="fill:#554b40"/><path d="M32.64,46.73l-1.92.3-1.11-.15c-.33-.65-.66-1.3-1-2C31.18,42.79,32.26,44,32.64,46.73Z" style="fill:#e8d8c2"/><path d="M116.47,17.88c-.33.33-.67.66-1,1L112.6,19c0-.63-.07-1.26-.1-1.89A6.06,6.06,0,0,1,116.58,16,1.19,1.19,0,0,1,116.47,17.88Z" style="fill:#ac9983"/><path d="M116.47,17.88l.11-1.91,2.12-.07a1.8,1.8,0,0,1,1.93,2Z" style="fill:#6f5f53"/><path d="M121.58,18c.32-.41.65-.81,1-1.21.2.46.41.92.62,1.39l-1.67.8C121.54,18.62,121.56,18.29,121.58,18Z" style="fill:#7b6752"/><path d="M125.47,16.87l-.91-.91Z" style="fill:#edd4b6"/></svg>