<svg xmlns="http://www.w3.org/2000/svg" viewBox="0 0 565.68 45.29"><path d="M25.83,28.86c-3.25.5-5.38-3.56-8.85-2.2A8.15,8.15,0,0,1,15.87,25C14,22.14,9.47,23.66,8,20.13a2.45,2.45,0,0,1,.48-1.33c1.71-1.18,3.8-.4,5.59-1.11a4,4,0,0,1,2.8-.15c1.87,5,4.49-.6,6.64.45,1.67,2.1,3.85,1.83,6.1,1.31a5.8,5.8,0,0,1,1.38.11c1.78.57,3.71.57,5.41,1.43,1.63,1.34,3.63,2.39,4,4.8a2.17,2.17,0,0,1-1.15.75c-3.38-.74-5.15,2.27-7.77,3.32-1.46.47-2.89,0-4.33-.16A6.56,6.56,0,0,1,25.83,28.86Z" style="fill:#352a1c"/><path d="M125.79,36.34a9.85,9.85,0,0,1-5.35.32c-1.22-.61-2.43-1.2-3.67,0s-2.65.57-4,.53c-1.48.53-3,.07-4.44,0-1-.18-1.8-.64-2.73-.86a8.31,8.31,0,0,0-5.19-.79c-.41.11-.84.19-1.26.26a13.87,13.87,0,0,0-1.91.33A3.19,3.19,0,0,1,96,35.77a7.53,7.53,0,0,1-2.4-1.29C90,32.28,85.2,34.3,82,31a1.81,1.81,0,0,1-.33-1.37c1.37-1.62,3.15-.51,4.73-.72a17.1,17.1,0,0,1,4.2.71c4.08.25,8.09,1.35,12.21,1,1.45.08,2.83.52,4.27.66,2.09.19,4.17.61,6.27.11a16.09,16.09,0,0,1,2.75-.53c1.6.09,3.14.6,4.74.73a6.94,6.94,0,0,1,2.52.75c.77.5.86,1.35,1.1,2.12C124.85,35.1,125.54,35.57,125.79,36.34Z" style="fill:#342d22"/><path d="M59.69,18.6l25.07,1.94a25.64,25.64,0,0,1,9.76.67,25.74,25.74,0,0,0,9.3.11l6.87.56c.89,1.53,0,2.13-1.31,2.45-1.48,0-2.91-.81-4.43-.32a4.07,4.07,0,0,0-2.21,1.21c-.3,1.47-.45,3.05-2.19,3.66a11.93,11.93,0,0,1-7.82.34c-1.87-1.09-4.82-.17-5.7-3.08,1.13-1,1.13-1-1.93-2.72-1.87-1-3.88-.76-5.88-.67a7.66,7.66,0,0,1-1.44-.17,77.39,77.39,0,0,0-9-1c-1.25-.13-2.51-.21-3.76-.36a26.18,26.18,0,0,1-3.74-.57A4,4,0,0,1,60,20,1.12,1.12,0,0,1,59.69,18.6Z" style="fill:#d0bd9f"/><path d="M483.51,17.09l4-.09a10.78,10.78,0,0,0,7-.14c3.67-.07,7.42-1,10.87,1.11.29.54.45,1.14.69,1.7.62.68,1.4.5,2.17.37a4.06,4.06,0,0,1,1.93,0,1.85,1.85,0,0,1,.92,1,2.07,2.07,0,0,1-.46,1.92,3.61,3.61,0,0,1-1.25.56c-1.27.27-2.76-.24-3.74,1.06l-9,.12c-1.78-1.44-4.06-1-6.06-1.62-.43-1.61.8-2.12,1.83-2.76a5.6,5.6,0,0,1,2.81-.29c1.47.29,2.95.84,4.37-.05-2.8,0-5.56-.35-8.32.18-1,.11-2,.12-3,.15-2.12,0-4.27.31-6.28-.67C480.26,17.4,482.87,17.86,483.51,17.09Z" style="fill:#5e544a"/><path d="M331.83,23.69l2.06,1c1.85.95,1.5,2.3.68,3.74a2,2,0,0,1-1.27.73c-2.72,0-5.47.3-8.16-.48-3.16-3.1-7.06-2.93-11-2.48-3.22.38-5.94-.1-6.75-3.89,1.68-1.91,4.08-2.64,6.24-3.79l4.15,1.72c.59,1.51,1.81,1.45,3.1,1.24a4.64,4.64,0,0,1,2,.16,8,8,0,0,1,1.72,1c1.65,1.58,3.48,1.46,5.39.56A2.12,2.12,0,0,1,331.83,23.69Z" style="fill:#cbb798"/><path d="M49.14,39.28l0-2.62A24.69,24.69,0,0,1,52,30.9a5.56,5.56,0,0,1,4.33-.74c5.37-1,10.8-.27,16.2-.57,2.57-.14,5.34-.64,7.33,1.8a1.1,1.1,0,0,1-.57,1.3c-1.54.82-3.41.23-5,1.09-2.34,1.27-4.53,0-6.78-.41-.85-.16-1.92-1-2,.81-1.34,1-3,.64-4.41,1a8.69,8.69,0,0,1-1.34.21c-1.54.11-3.18-.53-4.58.63l.1.39C54,39,53.1,42.4,49.14,39.28Z" style="fill:#28241a"/><path d="M356.65,23c6,1.41,12.39.76,18.06,3.71-2.17,2.18-5.17,1-7.66,1.9a7.17,7.17,0,0,1-2.4.06,50.18,50.18,0,0,0-10-1.56,30.09,30.09,0,0,0-7.81-.6c-1.36,0-2.72.05-4.07-.07-1.68-.26-3.28-.68-4.26-2.26,1.92-3.82,5.82-1.46,8.55-2.74a7.21,7.21,0,0,1,2.27-.11C351.82,21.46,354.14,22.66,356.65,23Z" style="fill:#d6c5b1"/><path d="M55.89,31.23a6.54,6.54,0,0,0-4.18.47,2.25,2.25,0,0,1-.65-1.8c.13-1.22.77-2.33.82-3.57a2.53,2.53,0,0,0-1-1.95c-1-1.14-1.42-2.22.38-3,1.15-.22,2.07.7,3.26.66-.51-1.42-2.21-1.12-2.91-2.17-.12-1.72,1.1-1.85,2.32-2l5.79.72a2.87,2.87,0,0,0,.12.83c.9,2.8,3.93,3.31,5.63,5.24a1.77,1.77,0,0,1,0,1.28c-1.35,1.29-3.37.65-4.82,1.67a2.83,2.83,0,0,1-1.28.23c-2-.64-2,.75-2.09,2C57.06,30.57,56.45,30.87,55.89,31.23Z" style="fill:#615948"/><path d="M191.13,10.69c3-3.56,7.55-2.33,11.33-3.17S210.22,6.9,214,5.81c1.41-1,3-.45,4.53-.63a1.27,1.27,0,0,1,.78,1.12c-1.45,2.55-5.1.7-6.54,3.28a15.06,15.06,0,0,1-8.41,3c-4.08.06-8.19.72-12.17-.75A2.64,2.64,0,0,1,191.13,10.69Z" style="fill:#f2e5d2"/><path d="M377.87,36.58c-.68-2.26-3.83,1.55-4.12-1.67a1.11,1.11,0,0,1-.31-.83c0-.31.06-.46.12-.46A4.88,4.88,0,0,1,379,32.47c2.35.93,4.8.79,7.24.88a9.88,9.88,0,0,1,2.09.26,10.22,10.22,0,0,1,1.32.44c2.36,1.61,6.12.58,7.52,4-.28,1.22-2.7.44-2.21,2.38-3.73-.86-8.38,1.72-11.08-3-1.29-1.31-2.73-.7-4.16-.34A2.15,2.15,0,0,1,377.87,36.58Z" style="fill:#695247"/><path d="M162.84,34.2c-4.19-1.15-7.61.91-11.11,2.65-2.24-.51-4.76-.31-6.27-2.57a4.13,4.13,0,0,1-.26-3,9.05,9.05,0,0,1,1.71-3.3,2.43,2.43,0,0,1,2-.41,23.75,23.75,0,0,1,3.49,2.1c1.79,3.37,2.88-1.18,4.43-.4a2.81,2.81,0,0,1,1.24.28,15.75,15.75,0,0,1,1.65,1.81c.9.83,2.23.9,3.13,1.74A.88.88,0,0,1,162.84,34.2Z" style="fill:#312a24"/><path d="M313.61,18.51c-.41,3.86-3.43,3-5.87,3.25l-.56-.26c-1.07-1-2.37-1.71-3.45-2.71-1-1.53-1-3.81-3.8-3.73a3.45,3.45,0,0,1-3.3-2.56,2.89,2.89,0,0,1,.26-2.1.8.8,0,0,1,1.22-.05c1.26,1.77,3.13,2.37,5.16,2.67,1.59.55,3.33.69,4.81,1.59a3.82,3.82,0,0,1,2.43,2.05Z" style="fill:#d8bfb2"/><path d="M43.41,34.4l-1-.5a4.93,4.93,0,0,1-1-1.89c-.25-1.61-.78-3.22,0-4.82,1.44-1.21,3.43-1.6,4.67-3.13,1.59-.23,2.4.87,3.26,1.9a11.84,11.84,0,0,1,.75,1.1c.58.94,1.33,1.82,1,3.06a18.38,18.38,0,0,1-4.77,5.61A3,3,0,0,1,43.41,34.4Z" style="fill:#2d2920"/><path d="M456.68,22.55c3.93-.9,7.72-2.55,11.88-2.32,1,.76,2.16-.2,3.18.34A10.42,10.42,0,0,1,475,21.9a2.2,2.2,0,0,1,.67,2.74c-1.3,1.7-3.2,1.76-5.08,1.87-1.58,0-3.19.12-4.63-.75,0-1.46-.46-1.59-3.82-1.1C460.19,24.28,457.57,25.64,456.68,22.55Z" style="fill:#907f76"/><path d="M44,16c2.32.4,4.91-2.88,7,.51.36,2.75.12,5.18-3.21,5.95a11.55,11.55,0,0,1-2.12,0,17,17,0,0,1-2.13-.26,7.46,7.46,0,0,1-1.38-.39A5,5,0,0,1,41,21c-1.23-1.61-3.44-2.83-2.23-5.45C40.6,14.72,42.27,15.88,44,16Z" style="fill:#7d7866"/><path d="M368.41,8.6c.78,0,1-.46,1.13-1.16.14-.86-.28-2.24.92-2.36s1.6,1.27,2.16,2.18c.18,1,1.38,1.41,1.54,2.45A3.34,3.34,0,0,1,373,12.93c-1.73.74-3.59,1.29-4.5,3.2l-2.47.18a2.45,2.45,0,0,1-1.62-1.09c-.3-1-.22-2.19-1.4-2.75-.49-.44-.94-.9-.56-1.64l2-1A12.56,12.56,0,0,1,368.41,8.6Z" style="fill:#7d7c73"/><path d="M366.72,27.83c2.42-2.06,5.35-.6,8-1.14h0c1.88,1.28,4.16-.27,6.06.88,2.39.34,4.42,2.11,7,1.83,1.22,2.57-.61,2.74-2.33,3-4.91-.25-9.63-2.14-14.72-1.22A3.29,3.29,0,0,1,366.72,27.83Z" style="fill:#c8b2a3"/><path d="M3,15.37C-2.06,14,.61,11,1.59,8.42a.84.84,0,0,1,1.09-.13,3.11,3.11,0,0,0,2.75,1,4.59,4.59,0,0,1,2.36,1,8.27,8.27,0,0,1,1.92,1.86c1.36,3.28,5.8.95,7.3,4-2.58,2.6-5.53,2.53-8.66,1.19C6.51,16.84,5.1,15.11,3,15.37Z" style="fill:#655a4d"/><path d="M232.79,3.18l3.07-.35c.46,2.09,0,4.26.65,6.33a3,3,0,0,1-1.46,2.31,6.1,6.1,0,0,1-2.07.69c-2.4.32-4.85.11-7.2.8a5,5,0,0,1-1.49,0,2,2,0,0,1-1.53-1.46A2.89,2.89,0,0,1,223.9,9c1.11-1.1,3.57-.2,3.84-2.57a2.25,2.25,0,0,1,.79-.91c.7-.41,1.44-.74,2.1-1.22A6.76,6.76,0,0,1,232.79,3.18Z" style="fill:#b89f86"/><path d="M560.54,18.64c-7.35.31-14.72.32-22,1.52a1.82,1.82,0,0,1-.12-2.28c2.1-1.56,4.56-1.76,7.05-1.82,1.59,0,3.18-.07,4.78-.07,2.71.83,5.56.11,8.31.69,1.44.07,2.92,0,4.13,1C562.21,18.54,561.15,18.09,560.54,18.64Z" style="fill:#211a15"/><path d="M8.54,20c1.81,1.86,4.49,1.42,6.62,2.5,1.11.55,2,.9,2,2.28-1.56,1.36-3.43-.57-5,.46A18,18,0,0,1,4.9,23.9a1.58,1.58,0,0,1,1.68-.45c-.45-.36-1-.08-1.51-.24a2.84,2.84,0,0,1-1.21-.7c-.6-2.05-.51-3.76,2.05-4.27C7.15,18.3,7.83,19.19,8.54,20Z" style="fill:#342c22"/><path d="M373.45,9.57c-.28-.77-.56-1.54-.83-2.31,1.87-1.25,3.26-3,6.09-.81,1.91,1.47,4.49-.87,6.7-1.77.67.73,1.76.92,2.36,1.76.44.72.15,1.6.48,2.34a2.37,2.37,0,0,0,.18.73c.32.88-.19,1.18-.93,1.31-1.82-.68-3.66-1.2-5.6-.44C379.36,7.25,376,12.28,373.45,9.57Z" style="fill:#a18f7e"/><path d="M449.77,32.47l-1,0c-2-1-3.87-.16-5.81.1a73.19,73.19,0,0,0-8.07,1.13l-.27.27-.36-.14c-1.25.34-2.5.74-3.78.14a1.92,1.92,0,0,1-.93-1.71c.83-1.73,2.81-1.62,4.12-2.59a9.39,9.39,0,0,1,2.9-1.12c4.49-.41,9-.79,13.14,1.57A1.66,1.66,0,0,1,449.77,32.47Z" style="fill:#796b64"/><path d="M545.48,17l-6.92,1.41a3.38,3.38,0,0,1-1.16-3,4.18,4.18,0,0,1,1-2.21c6.5,2.37,13.54,1.63,20.13,3.5a12.31,12.31,0,0,1-8.06.25A6.16,6.16,0,0,0,545.48,17Z" style="fill:#88745e"/><path d="M125.79,36.34c-1.06-.48-2.5-.12-3.17-1.44,3-1.64,6-.71,9.77.08-2.13-.73-2.89-1.75-3.16-3.17a2.5,2.5,0,0,1,1.11-2.48,8.76,8.76,0,0,1,4.9,2.34c.89,1.4,1.53,3,3.12,3.84a3.4,3.4,0,0,1,1.45,2.1,1.66,1.66,0,0,1-.42,1.2C135.1,36.61,130.36,36.94,125.79,36.34Z" style="fill:#191411"/><path d="M325.65,28.64l-3.95-1.18c-1-1.2-3.34-.82-3.53-3,.82-3.24,3.21-2.23,5.33-2,.95.18,1.72.8,2.64,1.05a15.21,15.21,0,0,0,4.78.94c1.78.16,3.66.44,4,2.78a3.09,3.09,0,0,1-3,1.39C329.88,28,327.77,28.39,325.65,28.64Z" style="fill:#70614f"/><path d="M34.22,12.45l.94,1c.55,1.34-.19,2.31-.93,3.3a3.42,3.42,0,0,1-1.94,1,8.8,8.8,0,0,1-5.49-1.88c-.48-1.14-.32-2.5-1.71-3.33-1-.59-1.56-1.81,0-2.74C28.73,8.61,31.44,10.64,34.22,12.45Z" style="fill:#927b6b"/><path d="M509.51,17.72c2.38-.1,4.79,0,7-1.19a1.74,1.74,0,0,1,.49,1.06c.57,2.79,2.86.09,4,1.21,1.81.57,3.95.54,4.93,2.65a1.46,1.46,0,0,1-.57,1.37c-2.08,1.25-4.17,0-6.26,0-3-.17-6.17.5-8.48-2.2v-.09C509.75,19.79,508.91,19,509.51,17.72Z" style="fill:#7a6759"/><path d="M236,9c-2-2-1.57-4-.17-6.13,1.51-2.45,3.27-4,6.11-1.72a2.07,2.07,0,0,1,.62,2,4,4,0,0,1-1,1.85,7.36,7.36,0,0,1-2.12,1.6,9.12,9.12,0,0,0-2.93,2.19Z" style="fill:#7c6c5e"/><path d="M435.68,29.69l-1.87,1.14c-4.84.2-8.75,4-13.74,3.59-1.73-2.17-.3-3.27,1.45-4.25,2,0,3.6-1.1,5.21-2.11l2.86-.38c2,.46,4.08-.57,6,.68A.9.9,0,0,1,435.68,29.69Z" style="fill:#b1a28c"/><path d="M108.79,23.69a1.67,1.67,0,0,0,1.9-1.81c2.71.27,5.37-1.25,8.11-.23.74,1.13,2.37,1,3.12,2.1a2.13,2.13,0,0,1-.14,1.87c-1.8,1.15-3.8-.07-5.66.49-1.56.24-3.16-.42-4.69.25a3.09,3.09,0,0,1-2-.1,2.67,2.67,0,0,1-1.27-1.49A1.07,1.07,0,0,1,108.79,23.69Z" style="fill:#d2c8b9"/><path d="M191.13,10.69l1,.15c.93.8.6,1.63.08,2.47-.81,1.75-3.42,1.82-3.73,4-1.28,1.29-2.56,2.57-4.61,2.3-1.87-.39-2.08-3-4.17-3.14-.82-.57-1.09-1.25-.43-2.12a1.74,1.74,0,0,1,.94-.32,24.93,24.93,0,0,0,7-1.44,40.77,40.77,0,0,1,4-1.81Z" style="fill:#c6b6a5"/><path d="M349.66,22.16l-2,0c-2.79,1-5.7.34-8.54.6-1.22-.11-2.49-.67-2.42-1.87.1-1.58,1.71-.95,2.71-1.08,1.73-.24,3.53.31,5.2-.51l4.1-1c1.8.68,2.95,1.73,2.24,3.86A.91.91,0,0,1,349.66,22.16Z" style="fill:#ccb19a"/><path d="M429.76,32.73l1.11,1c-.83,2.41-3.74,1.48-5,3.15-3.86-.78-6,3.6-9.72,3.25a1,1,0,0,1-1.42,0,2.05,2.05,0,0,1,.11-2.23C419.39,35,424.18,32.74,429.76,32.73Z" style="fill:#59503b"/><path d="M525.47,21.23c-1.45-1.13-3.69-.12-4.94-1.8,0-.82.67-1.41.72-2.21l9.23-1.82c1,1.11.82,2.19-.1,3.25C528.8,19.6,527.41,21,525.47,21.23Z" style="fill:#ab896f"/><path d="M373.45,9.57c3,.32,6-2.87,9,0a1.19,1.19,0,0,1,.26,1.07c-.5.88-1.54,1.14-2.17,1.88L376,13.87a3.37,3.37,0,0,1-3.61-1.19Z" style="fill:#7e6857"/><path d="M438.45,25.51c3.16-1.58,6.6-.63,9.89-1.1,1.84-.4,3.69-.89,5.47.22-1,2.77-5.91,4.75-9.9,3.88a12.48,12.48,0,0,1-4.53-1.78A2.62,2.62,0,0,1,438.45,25.51Z" style="fill:#9d8f87"/><path d="M224.37,12.44a7.54,7.54,0,0,0,.82-.2,11.42,11.42,0,0,1,7.17-.07,2.54,2.54,0,0,1,1.15,1.12c0,.27,0,.54-.08.81-2.87,3.57-6.57,1.44-10,1.44a1.5,1.5,0,0,1-.72-.9,2.63,2.63,0,0,1,.16-1.18C223.25,12.89,223.87,12.75,224.37,12.44Z" style="fill:#38322e"/><path d="M7.29,10.89,5.42,9.76c-1.06-.14-2.16-.17-2.93-1.08a4,4,0,0,1-.9-.26c3.42-4.6,8-2,12.14-1.92C14,8,12.67,8.31,11.8,8.94,10.16,9.26,9.44,11.74,7.29,10.89Z" style="fill:#827254"/><path d="M364.46,14.79c.5.51,1,1,1.52,1.52l-10.2,5.09a1.5,1.5,0,0,1-1.33-.2,2.51,2.51,0,0,1-.44-1.32,3.29,3.29,0,0,1,1.42-2.34c1.24-.81,3.13-.78,3.49-2.73a1.88,1.88,0,0,1,1.35-1.24,11.57,11.57,0,0,1,3.15.49A3.16,3.16,0,0,1,364.46,14.79Z" style="fill:#655748"/><path d="M145.71,33.89c1.62,1.78,4.78.41,6,3l-2.31,1.38c-2.38,3-3.14,2.89-7.22-1.19C142.6,35.13,143.27,33.53,145.71,33.89Z" style="fill:#3b342b"/><path d="M181.57,27.51l-3.11,2.09a21.62,21.62,0,0,1-3.69.11,3.69,3.69,0,0,1-2.69-2.06c-.1-2.7,1.63-3.34,3.85-3.43,1.61.26,3.23.55,4.83.93C181.52,25.77,182.16,26.43,181.57,27.51Z" style="fill:#33312a"/><path d="M525.47,21.23c1-1.46,2-2.89,4-2.86,1.44.76,3.22-2.11,4.5.42a4.64,4.64,0,0,1-.39,3.19.8.8,0,0,1-.73.41,6.75,6.75,0,0,1-2.45,1.09,9.1,9.1,0,0,1-2.7.29,2.94,2.94,0,0,1-2.15-1.51Z" style="fill:#695542"/><path d="M190.9,22.15c-1.39,2.22-4.07,2.51-6,4a2.42,2.42,0,0,1-2,.44,2.27,2.27,0,0,1-1.44-2.28,3.23,3.23,0,0,1,2-1.9c1-.35,2.07-.47,2.66-1.5a6.75,6.75,0,0,1,1.35-2.14,2.16,2.16,0,0,1,1.28-.13,4.5,4.5,0,0,1,2.4,2.26A1.6,1.6,0,0,1,190.9,22.15Z" style="fill:#201e18"/><path d="M349.8,31.28l-12-.13a1.05,1.05,0,0,1,.23-1.31c2.54-1.87,5.38.75,8.38-.6.24,0-.58-.71-.38-.08.07.25,0,.38-.28.41a7.07,7.07,0,0,1-2.93-.13,1.31,1.31,0,0,1-.16-1.43,3.94,3.94,0,0,1,2.12-1c3-.16,5.94-.31,8.17,2.24a1.93,1.93,0,0,1-.84,2.08A2.51,2.51,0,0,1,349.8,31.28Z" style="fill:#604d46"/><path d="M142.28,36.71c2.34.68,4.11,4.08,7.14,1.52-.89,1.33,1.63,4.07-1.78,4.38-4.36.31-6.45-1.55-6.52-5.82A.8.8,0,0,1,142.28,36.71Z" style="fill:#979089"/><path d="M47.38,21.54c3.44-.08,2.41-3.4,3.67-5.06a3.89,3.89,0,0,1,2.85,1.4l-2.21,1.8a1.44,1.44,0,0,1-.16,2.07c-1.64,1.42-.46,1.76.8,2.07.38,1.88-1.19,2.74-2.06,4a.88.88,0,0,1-1.18-.26l-.05-1C48.76,24.76,46,23.85,47.38,21.54Z" style="fill:#5d5544"/><path d="M215.6,17.4c-2.69.52-5.15,2.14-8,1.62-1.27-1-3.15.52-4.3-1a1.4,1.4,0,0,1,.68-1.35c4.22-1,8.32-3,12.83-1.65C218.9,17,216.8,17,215.6,17.4Z" style="fill:#241c11"/><path d="M533.52,19.3c-.94-2.06-3.08,1.06-4-.93,1.12-.73,1-1.87,1-3l7.94-2.23,0,2a12.7,12.7,0,0,0-3.71,4.14A1.1,1.1,0,0,1,533.52,19.3Z" style="fill:#927c66"/><path d="M422.74,30.93a3,3,0,0,0-3,3c-.86,2.46-3.49,2.43-5.19,3.71a3.45,3.45,0,0,1-3.52-.16c-1-2.34,1.49-2.53,2.31-3.75,2.53-1.43,4.92-3.1,7.38-4.66l2-.08A1.25,1.25,0,0,1,422.74,30.93Z" style="fill:#cfbfac"/><path d="M342.73,28.21c0,.25,0,.51.06.76-1.3,1.42-3,.45-4.51.8a10.86,10.86,0,0,1-4.62.75,9.2,9.2,0,0,1-5-1,3,3,0,0,1,2.64-1.29h.61l2.87-.93a4.19,4.19,0,0,1,3.73-1.05C340.06,26.55,341.64,26.86,342.73,28.21Z" style="fill:#5c4a32"/><path d="M435.72,28.75c-2.05-.3-4.38.95-6.13-1.07a16.43,16.43,0,0,1,8.86-2.17c.13.11.26.22.38.34C439.4,28.53,438.34,29.47,435.72,28.75Z" style="fill:#a39687"/><path d="M46.36,35.27a12.15,12.15,0,0,1,4.47-5.33c.27-.64.58-.67,1-.07,0,.61-.05,1.22-.07,1.83.44,2.35-.73,3.85-2.62,5a1.2,1.2,0,0,0-.89.14C47.12,36.85,46.64,36.18,46.36,35.27Z" style="fill:#25231a"/><path d="M241.92,3.54c0-.81,0-1.62.05-2.43l4.86-.58c.94,1.42,3.5,1.56,3.14,4-1.38,2.23-3.24,1.36-5.06.79C243.83,4.87,242.64,4.6,241.92,3.54Z" style="fill:#7b6c5f"/><path d="M404.82,43.27l-5.9-1.94a1,1,0,0,1-.29-.86c.05-.3.11-.45.17-.46a4.65,4.65,0,0,1,6-.81c1.15.75,2.36,1.39,3.51,2.16a2.07,2.07,0,0,1,.92,1.74,2.26,2.26,0,0,1-1.37,1.41C406.66,44.58,405.84,43.69,404.82,43.27Z" style="fill:#564c41"/><path d="M463.84,30.36c-.94.39,1.28,3.27-1.76,2.13a29,29,0,0,0-5.13-.92,8.27,8.27,0,0,1-3.88.34c-1.3-.08-1.73-.72-.81-1.86,2.85-1.24,5.75-2.23,8.94-1.6A4.13,4.13,0,0,1,463.84,30.36Z" style="fill:#1f211c"/><path d="M420.73,29.1c-1.89,2.25-3.63,4.7-6.93,5-2,.81-2.68.12-2.09-1.92,2.53-1.67,6.34-.87,8-4.15Z" style="fill:#efe6d8"/><path d="M408.94,43.16l-1.16-1c.1-2.07,1.9-2.16,3.25-2.79a3.81,3.81,0,0,1,3.69.63l1.4.17c0,.58.07,1.16.1,1.73-.18.66-.87.75-1.27,1.16a3.75,3.75,0,0,0-2.77,1.22C410.71,45.05,409.64,44.65,408.94,43.16Z" style="fill:#41372e"/><path d="M408.88,39.16l3.24,1.09c-.41,1.69,1.26,4.13-1.59,4.92-2.11.59-2.25-1.25-2.7-2.59a1.89,1.89,0,0,1,.05-2.42Z" style="fill:#6a6462"/><path d="M145.73,23.42c1.29-2.78,3.6-2.91,6.16-2.38a2.18,2.18,0,0,1,.57,1.13c0,1.09.5,2.11.47,3.21a2.37,2.37,0,0,1-2.28,1.27,3.37,3.37,0,0,1-2-.64C149,23.69,145.84,25.27,145.73,23.42Z" style="fill:#9d866a"/><path d="M42.6,32l-.15,1.86c-1.83.65-2.8-1.42-4.43-1.41-1-.55-2.25-.47-3.32-.88-.43-.76-.08-1.29.5-1.75,1.18-.66,2.42-1.21,3.58-1.91C42.92,26.64,40.74,31.22,42.6,32Z" style="fill:#181814"/><path d="M141.67,36.65c.06,3.93,3,5,6,6-1.73,2.51-3.58,1.64-5.23,0a36.21,36.21,0,0,1-3-3.82l-.31-.24.12-.38C140.11,37.82,139.89,35.63,141.67,36.65Z" style="fill:#6a645e"/><path d="M287.38,18.75a1,1,0,0,1-.85-.19c-2.07-1.15-4.47-1.51-6.48-2.81a2.1,2.1,0,0,1,.3-2.14,4,4,0,0,1,2.25-.78c3,.5,6.32.51,6.57,4.76C288.86,18.42,288.43,19.07,287.38,18.75Z" style="fill:#605245"/><path d="M164.28,28.48c-.3,3.07,3.28,1.39,4,3.25-.57,1.58-2,1.83-3.39,2.12a1.74,1.74,0,0,1-1.33-.37c-1.12-1.27-3.54-.85-3.94-3C160.28,27.66,161.74,26.78,164.28,28.48Z" style="fill:#444346"/><path d="M96.4,35.58l1.08.17c.21.21.27.41.17.6s-.18.27-.26.27A16,16,0,0,1,91,36.29c-3.74.54-7.48-.72-11.23-.06A4.33,4.33,0,0,1,76.35,35c.49-2.43,2.53-1.7,4-1.81,3.64-.26,7.25.42,10.87.69C93.08,34,94.69,34.93,96.4,35.58Z" style="fill:#24211f"/><path d="M258.87,2.12,268,1.34c0,1.06.81,2.12,0,3.16a2.08,2.08,0,0,1-1.25.41c-2.84-.9-5.88.83-8.67-.66C257.25,3.13,257.89,2.56,258.87,2.12Z" style="fill:#786356"/><path d="M124.66,23.05c.06-.66.13-1.32.19-2,1.24-1,2.84.35,4.07-.65a8.55,8.55,0,0,0,.88,0,1.9,1.9,0,0,1,.58,1.2,7.4,7.4,0,0,1-.78,2.67,4.26,4.26,0,0,1-2.46,2.51,2.81,2.81,0,0,1-3.06-1.69A1.94,1.94,0,0,1,124.66,23.05Z" style="fill:#e1d8cc"/><path d="M138.39,16.26a1.69,1.69,0,0,1,.85.17c1.15.53,2.9-.06,3.36,1.79a2.48,2.48,0,0,1-.27,1.31,2.74,2.74,0,0,1-1.17.61c-2.08,0-3.42,1.78-5.32,2.24A1.91,1.91,0,0,1,134.6,22c-.63-1.55-.15-3.07.1-4.6C135.52,15.73,137.32,17.15,138.39,16.26Z" style="fill:#3b1d0c"/><path d="M266.37,13.49h-2.94a7.31,7.31,0,0,1-4-.23c-1.26-.54-2.71-.07-3.93-.75a1.46,1.46,0,0,1-.59-1.15,2,2,0,0,1,.83-1,8.4,8.4,0,0,1,2.53-.9,12,12,0,0,1,2.67.16,36.21,36.21,0,0,1,5.9,1.33,1.74,1.74,0,0,1,.78,1.09C267.65,12.86,266.89,13.07,266.37,13.49Z" style="fill:#342b1e"/><path d="M453.65,25.45c-1.51-1.65-3.56-.57-5.31-1l8.34-1.87c1.8,1.67,4,.48,5.95.79-.35,2.94-3.09,1.93-4.67,2.84a6,6,0,0,1-3,.12A3.28,3.28,0,0,1,453.65,25.45Z" style="fill:#b09d8b"/><path d="M483.51,17.09,481.56,19a2,2,0,0,1-1.15,1.5c-1.13.47-2.42-.73-3.51.33a3.92,3.92,0,0,1-2.72-.11c-.65-.43-1.17-.91-.71-1.77A25,25,0,0,1,483.51,17.09Z" style="fill:#7a6d65"/><path d="M203.59,17.42c0,.28-.07.55-.1.82-.28.55.31.83.39,1.27-1.36,1.61-3.33,1-5,1.35-1.32-.6-2.68-1.11-4-1.69a1.5,1.5,0,0,1-.65-1.11A1.77,1.77,0,0,1,195,17a22.21,22.21,0,0,1,7.06-1A2.11,2.11,0,0,1,203.59,17.42Z" style="fill:#534839"/><path d="M372.84,35c-4.37,3.5-7.61.2-11-1.86a2,2,0,0,1,1.79-1c1.42,0,2.78.51,4.21.58a9.61,9.61,0,0,1,1.41.22C370.55,33.34,372.08,33.48,372.84,35Z" style="fill:#f9f6f1"/><path d="M354.46,19.83l.24,1.82a3.93,3.93,0,0,1-4.09.44c.08-1.64-1.39-2.5-1.92-3.84l2-2.1c.71-.33,1.2.05,1.68.5A8.66,8.66,0,0,1,354.46,19.83Z" style="fill:#7b685d"/><path d="M490.74,22.54c1.84,1,5-1.52,5.84,2.13-3.33,0-6.68-1.32-10,.2a1.77,1.77,0,0,1-2.24.26c-.73-.52-1.24-1.13-.78-2.1C485.85,21.16,488.25,21.22,490.74,22.54Z" style="fill:#201e1a"/><path d="M250,4.22C249,3,246.69,2.77,246.83.53c3,.41,5.89,1.85,9.06,1.43.64,1.54-.72,1.87-1.54,2.53a6.18,6.18,0,0,1-1.26.48,4,4,0,0,1-2.65-.26Z" style="fill:#57473a"/><path d="M316.86,25.55c-2.66-.34-5.41-.41-7.36-2.7-.33-1.86,1.05-1.79,2.21-2a6,6,0,0,1,1.38.3c1.67,1.1,4.22.86,5,3.28C318.06,25.23,317.82,25.81,316.86,25.55Z" style="fill:#323023"/><path d="M372.41,12.68,376,13.87a19.36,19.36,0,0,1-7.57,2.25C368.2,13.17,369.23,11.68,372.41,12.68Z" style="fill:#78585c"/><path d="M534.5,19.18c-.46-3.1.91-4.38,4-4,0,1.07.08,2.13.11,3.2l0,1.8-.19.17-.22-.14A3.09,3.09,0,0,1,534.5,19.18Z" style="fill:#77634c"/><path d="M268.05,4.25c.12-1-1.37-1.93,0-2.91,1.91,0,4.83-2.71,5,1.88A2.54,2.54,0,0,1,271.39,5a4.19,4.19,0,0,1-2.5.09A1.46,1.46,0,0,1,268.05,4.25Z" style="fill:#594d40"/><path d="M6.64,18.86C4,18.91,4.7,21.14,4.23,22.6c0,.65-.71.66-1,1-2.82-2.59.17-4.69.6-7a4.43,4.43,0,0,1,4.23.3A1.61,1.61,0,0,1,6.64,18.86Z" style="fill:#524c41"/><path d="M521.25,17.22c1.63,1.34,0,1.64-.72,2.21a15.52,15.52,0,0,1-3.27.5c-.75,0-2.09.7-2.23-.71,0-.53,1-1.15,1.47-1.73a3.88,3.88,0,0,1,3.18-1.31Z" style="fill:#a38470"/><path d="M164.28,28.48c-2.14-.27-3.86.12-4.21,2.67.16.9-.07,1.36-1.06.9a2,2,0,0,1-.82-2.07,4.3,4.3,0,0,1,.76-2.45,5.13,5.13,0,0,1,3.69-2.59c1.08,0,1.52.84,2,1.6Z" style="fill:#343238"/><path d="M145.73,23.42c.76,1,3.13-.1,3,2.19-.13,2.48-2.25,1.75-3.61,2.26a3.3,3.3,0,0,1-1.36-.18,2.31,2.31,0,0,1-1-2.38Z" style="fill:#b79b7e"/><path d="M304.57,26l-1.81.36a3.44,3.44,0,0,1-.91-1c-.84-1.68-1.51-3.38-.49-5.23a2.06,2.06,0,0,1,1.89-.7,2.36,2.36,0,0,1,1.14.8c.68,1.9,2.91,3.39,1.56,5.83A1.88,1.88,0,0,1,304.57,26Z" style="fill:#967d6f"/><path d="M425.84,36.88c.39-3.1,3.69-1.56,5-3.15a3.45,3.45,0,0,1,3.34.13C432.1,36.75,428.73,36.15,425.84,36.88Z" style="fill:#513e32"/><path d="M179.3,14.38c.43.53.3,1.7,1.52,1.33a3.56,3.56,0,0,1-1.39,3.34,2.83,2.83,0,0,1-2.82.81c-.93-.57-1.7-1.22-1.18-2.48C176.22,15.73,177.26,14.4,179.3,14.38Z" style="fill:#291c13"/><path d="M344.59,19.28c-1.77,1.69-4,.53-6,1-2.66.61.21,1.33,0,2a2.72,2.72,0,0,1-3.93,0,2.74,2.74,0,0,0-.07-2.93Z" style="fill:#f6d4b3"/><path d="M349.8,31.28l1.94-.15a36.09,36.09,0,0,1,4.15-.34,11.5,11.5,0,0,1,2.87.27A2.69,2.69,0,0,1,360.81,33C357,33.29,353.11,34.15,349.8,31.28Z" style="fill:#f9f6f1"/><path d="M434.84,33.73c2.36-1.91,5.26-1.53,8-1.88.67.49,1.73,0,2.24.89A19.71,19.71,0,0,1,434.84,33.73Z" style="fill:#080300"/><path d="M158.17,17.17c3.16-2.79,6.63.18,9.9-.54a.86.86,0,0,1,.29,1.18,3.51,3.51,0,0,1-1.88.87,20.65,20.65,0,0,1-2.71.32c-1.55-.25-3,.36-4.54.47A2.17,2.17,0,0,1,158.17,17.17Z" style="fill:#c8b9a6"/><path d="M188.32,13.9c-2.7-.15-5.37,1.32-8.08.16l5-2C187,11.5,189,10.35,188.32,13.9Z" style="fill:#e5d4c5"/><path d="M303.45,20.23c-3.67,1.6-5.79-.71-7.88-3.11a1.84,1.84,0,0,1,1.73-.91c1.61.2,2.76,1.41,4.23,1.91a15.33,15.33,0,0,1,2.11,1.56A.74.74,0,0,0,303.45,20.23Z" style="fill:#f7f2ed"/><path d="M177.18,16.14l.94,2.25a1,1,0,0,1-.22,1.29,4.5,4.5,0,0,1-2.9.52,4.77,4.77,0,0,1-2.12-.74,2.25,2.25,0,0,1-.84-2.64c1.36-.41,2.67-1.21,4.18-.58Z" style="fill:#32231c"/><path d="M215.6,17.4c.75-.4,1.62-.69,1.86-1.66a1.94,1.94,0,0,1,1.09-1.55c1.65-.24,3.38-1.35,4.83.47a.9.9,0,0,0,.1.88C221.07,17.06,218.36,17.35,215.6,17.4Z" style="fill:#050300"/><path d="M129.82,21.45c0-.34,0-.69,0-1l3.3-1.52a.78.78,0,0,1,1.3.24,6.65,6.65,0,0,1-.6,3.93C131.92,23.91,130.59,23.39,129.82,21.45Z" style="fill:#b6b0a9"/><path d="M372.84,35l-4.16-1c-.35-1.74.65-2.41,2.13-2.62,1.69-.25,3,.19,3.07,2.19,0,.47-.08.94-.13,1.41l-.46-.14Z" style="fill:#665342"/><path d="M105.5,35.41c.79.18,1.57.37,1.92,1.23.34.21.44.41.31.59s-.25.26-.37.25l-3-.34c-1.63-1.47-4.83,1-5.75-2.28h1A8.8,8.8,0,0,1,105.5,35.41Z" style="fill:#0a0400"/><path d="M158.17,17.17a2,2,0,0,1,.86,2,34.13,34.13,0,0,1-3.19,5,1.42,1.42,0,0,1-1.62-.87c-.66-1.61.19-3,.62-4.48Z" style="fill:#c1b3a2"/><path d="M360.36,14l-1,1a3,3,0,0,1-3.94.26,1.23,1.23,0,0,1-.09-1.57l2.08-1.82c1.34-.8,2.32-.17,3.21.81A1.3,1.3,0,0,1,360.36,14Z" style="fill:#81756b"/><path d="M190.9,22.15l-.26-1.27c-.61-3.91,1.59-3.14,3.83-2.29l.17.16a2.08,2.08,0,0,1,.05,2.87Z" style="fill:#524a39"/><path d="M194.69,21.62c0-1,0-1.92-.05-2.87,1.86-.21,3.78-.52,4.22,2.11A3.93,3.93,0,0,1,194.69,21.62Z" style="fill:#302716"/><path d="M527.61,23.31l2-1a4.19,4.19,0,0,1,1.56,2.48c-.18,1-.13,2.19-1.74,1.57a2.89,2.89,0,0,1-2.88-1,1.79,1.79,0,0,1-.49-1.28C526.36,23.41,526.7,22.82,527.61,23.31Z" style="fill:#5c5a58"/><path d="M520.59,25.18a.61.61,0,0,1-.76.33c-1.65.6-2.92-.89-4.49-.8l.1.08a2.39,2.39,0,0,1-.35-1.5c.85-2,2.68-1,4.09-1.32a1.84,1.84,0,0,1,2.06,1.84A2,2,0,0,1,520.59,25.18Z" style="fill:#2b251f"/><path d="M398.94,40.19c0,.38,0,.76,0,1.14l-4-.92c-1.21-2.58.87-1.93,2.08-2.12a1.54,1.54,0,0,1,1.14-.5,1.84,1.84,0,0,1,1.1.63A1.5,1.5,0,0,1,398.94,40.19Z" style="fill:#5e4e41"/><path d="M164.63,26.54l-2-1.22A1.9,1.9,0,0,1,162.2,24a2.87,2.87,0,0,1,4.75-1.5,1,1,0,0,1-.19,1.33c0,.27-.07.55-.12.82Z" style="fill:#27281f"/><path d="M509.51,17.72l1.05,2.85-1.93.07c-1.42-.07-2.92.24-4.08-.95.27-.57.54-1.15.82-1.72A7,7,0,0,1,509.51,17.72Z" style="fill:#685951"/><path d="M166.76,23.8l.07-1.11c1-2.88,1.49-3,6.73-2l.47.58-1.15,1.14C170.54,21.56,169,24.26,166.76,23.8Z" style="fill:#040300"/><path d="M82.37,36.59l-3-.55c-.29-.22-.37-.42-.25-.6s.24-.25.35-.24L91,36.29C88.16,37.5,85.23,36.11,82.37,36.59Z" style="fill:#342d22"/><path d="M305.27,19.92l1.45-.21c2.63-1.21,4.71-.9,5.84,2.08-1,.36-2.46-.51-3.06,1.06C308,22,306.14,21.68,305.27,19.92Z" style="fill:#90826a"/><path d="M142.73,25.31a1.59,1.59,0,0,1,.72,1.89c-.15,1.23-.3,2.45-2.07,1.94-.61-1.17-2.45-.56-2.88-2Z" style="fill:#86685b"/><path d="M391.49,12.43l.95,1.08c.28.16.38.33.31.52s-.16.29-.25.29l-7-1.73c-.42-.87.1-1.28.77-1.61a3.47,3.47,0,0,1,1.4,0A5,5,0,0,1,391.49,12.43Z" style="fill:#282420"/><path d="M386.47,11.49l-1,1.1-5-.06c-.08-1.33.66-1.89,1.88-2C384,9.65,385.65,8.87,386.47,11.49Z" style="fill:#523b29"/><path d="M287.38,18.75l1.19-1.21a2.35,2.35,0,0,1,1.91-.7,2.22,2.22,0,0,1,1.82,2.63,1.88,1.88,0,0,1-.8,1.11C289.72,20.89,288.07,20.9,287.38,18.75Z" style="fill:#625448"/><path d="M154.84,18.82c1.33,1.41-.47,2.78-.05,4.18-1.44.93-2.31.15-3-1a2.14,2.14,0,0,1,.15-.94A3,3,0,0,1,154.84,18.82Z" style="fill:#c2b2a5"/><path d="M452.66,30.34c.92,2.19,3,.36,4.29,1.23a19.85,19.85,0,0,1-7.18.9c0-.63,0-1.26,0-1.89a1.79,1.79,0,0,1,2.53-1.39A1,1,0,0,1,452.66,30.34Z" style="fill:#5c5752"/><path d="M188.32,13.9c-.17-2.06-1.68-1.87-3.1-1.84,1.68-1.93,3.59-2.75,6-1.25Z" style="fill:#d8c7b9"/><path d="M388.73,29.64l2,.38a.58.58,0,0,1,0,.48c1,2.22,1.87,4.33-2,4.14l0,0C386.51,33,388.31,31.29,388.73,29.64Z" style="fill:#c8b2a3"/><path d="M333.66,30.52c1-1.68,2.65-1.13,4.12-1.21.34.21.45.43.34.64s-.22.33-.34.33c0,.29,0,.58,0,.87C336.16,32.5,334.72,32.77,333.66,30.52Z" style="fill:#393528"/><path d="M7.81,17c-1.34-.05-2.75.73-4-.32L3,15.37c1.92-2,3.33,0,4.92.62.23.23.3.45.2.66S7.9,17,7.81,17Z" style="fill:#3b3529"/><path d="M124.66,23.05l-.09,1.77a1.77,1.77,0,0,1,.15,1.24,3.42,3.42,0,0,1-2.92,1.12l-.58-.27a.86.86,0,0,1,.18-1.12l.18-2c-.15-.92.07-1.39,1.09-.92Z" style="fill:#b7ab9f"/><path d="M44,16c-1.81,2.19-3.32-1.51-5.08-.26a2.48,2.48,0,0,1-1.47.45c-.82-.22-1.63-.54-1.35-1.58.14-.57.72-.43,1.17-.19C39.63,14.54,42,14.63,44,16Z" style="fill:#927f70"/><path d="M473.47,19c.38.4.77.8,1.16,1.19-.29,2.3-1.75,1.4-3,1.09-1.11-.1-2.35.19-3.08-1A9.36,9.36,0,0,1,473.47,19Z" style="fill:#7a685f"/><path d="M350.61,22.09l4.09-.44,1.08-.25.87,1.58c-2.49,1.13-4.75.25-7-.82Z" style="fill:#dac2aa"/><path d="M280.36,14l.14,1.73c.56.45.56.89,0,1.34l-4.06-1a1.62,1.62,0,0,1,0-2.28A3,3,0,0,1,280.36,14Z" style="fill:#484036"/><path d="M280.51,17c0-.45,0-.89,0-1.33,2.35.24,4.61.64,6,2.85C284.25,19.12,282.4,18,280.51,17Z" style="fill:#352d24"/><path d="M360.36,14l.12-1.42c-.15-.78.38-1.25.82-1.76h1.1l1.07,1.05a1.94,1.94,0,0,1,.1,2.76C362.44,14.74,361.25,15.13,360.36,14Z" style="fill:#b2a39a"/><path d="M355.37,13.69l.18,1.37a1.63,1.63,0,0,1,0,2.23,3.35,3.35,0,0,1-3.88-.15l-.91-1Z" style="fill:#83766e"/><path d="M133.89,18.64a5.19,5.19,0,0,1-.79.25c.13-4.15,2.3-4.2,5.29-2.63-.72,1.41-2.55.42-3.39,1.58A1,1,0,0,1,133.89,18.64Z" style="fill:#f6f4ef"/><path d="M11.54,8.29,13.72,6.5l1-.27a1.76,1.76,0,0,1,.44,1.89c-1.42.7,0,1.79-.34,2.64-1,1.58-2,.76-3.06.12C11,10.07,10.65,9.23,11.54,8.29Z" style="fill:#9a7d57"/><path d="M388.73,29.64c.28,1.65-1,3.31,0,5l-1.94-.1c-.67-1-2.61-1.12-2-3,1.51,0,2.92-.1,2.93-2.14Z" style="fill:#c6af9f"/><path d="M164,33.43l1-.08c1.56-.12,3.23-1,4.53.68-2.12,4-4.45-.23-6.66.17a4.54,4.54,0,0,0,.14-.82A.6.6,0,0,1,164,33.43Z" style="fill:#161414"/><path d="M515.58,23.58c-.05.41-.09.81-.14,1.21l-8.77-.26c.12-2.23,1.89-1.06,2.92-1.42,1.55-.22,3.06-.9,4.68-.4A3.05,3.05,0,0,1,515.58,23.58Z" style="fill:#0a0402"/><path d="M325.65,28.64c2-1.06,4-3.3,6.24-.42l-.21.19c-1.48,1.08-3.39-.11-4.88.94C326.15,29.56,325.85,29.18,325.65,28.64Z" style="fill:#5c4a32"/><path d="M392.5,14.32a.56.56,0,0,1-.06-.81c1.82-.4,3.07.35,4.47,2.2C394.73,16.15,393.39,16,392.5,14.32Z" style="fill:#6f6b68"/><path d="M316.86,25.55l.8-.57c.08-.83.42-1,1-.39.79,1.18,3.18.68,3,2.87A4.14,4.14,0,0,1,316.86,25.55Z" style="fill:#322b24"/><path d="M391.49,12.43a6.2,6.2,0,0,1-3.9-1c-.36-.24-.47-.46-.32-.65a.54.54,0,0,1,.41-.27l.75-1C390.29,9.6,391.14,10.75,391.49,12.43Z" style="fill:#90857b"/><path d="M534.5,19.18l3.62,1c-1.21,1.38-3,1.23-4.54,1.79-.88-.88-.6-1.78-.06-2.68A5.36,5.36,0,0,0,534.5,19.18Z" style="fill:#2c2823"/><path d="M270.87,4.5,273,3.22,275,2.91l-.09.44c.37,3.42-.36,3.92-3.77,2.61A1.35,1.35,0,0,1,270.87,4.5Z" style="fill:#857560"/><path d="M519.68,16.18c-.69,1.32-1.95,1.3-3.18,1.31,0-.32,0-.64,0-1C517.4,15,518.24,12.88,519.68,16.18Z" style="fill:#867162"/><path d="M228.89,3.16l1.09-1,2.81,1L230.91,5C229.3,5.42,228.59,4.82,228.89,3.16Z" style="fill:#79684c"/><path d="M98.63,34.86c1.4,2.08,4.43,0,5.75,2.28l-7-.52.09-.87Z" style="fill:#2f281d"/><path d="M176.22,16.24l-3.76,1a1.61,1.61,0,0,1-1.86.06l-.4-.54C172.18,16.22,174,14,176.22,16.24Z" style="fill:#cabfba"/><path d="M169.5,34,165,33.35l3.29-1.62C169.51,32,170.77,32.35,169.5,34Z" style="fill:#434244"/><path d="M388.25,8.78c-.79-.5-.72-1.27-.64-2a2,2,0,0,1,.75-2.24c1.46-.67,2.38-.46,1.72,1.35A16.43,16.43,0,0,1,388.25,8.78Z" style="fill:#faf8f4"/><path d="M320.8,22.15c-1.12,1-2.4.24-3.6.36.19-.76.37-1.52.56-2.28l1.84,0C320.42,20.59,321.2,21,320.8,22.15Z" style="fill:#d8c7b2"/><path d="M276.38,14.14c0,.63.05,1.27.07,1.9l-5.05-1.69a.87.87,0,0,1,.07-1.32A4.26,4.26,0,0,1,276.38,14.14Z" style="fill:#181810"/><path d="M296.73,23.09l-1.94.42-3.29-2.93.22-.08a1.68,1.68,0,0,1,1.62-.7,7.44,7.44,0,0,1,2.32.89A3.74,3.74,0,0,1,297,22,1,1,0,0,1,296.73,23.09Z" style="fill:#3f372f"/><path d="M37.3,14.39c-1.32,1.51.43.9.84,1.22-1.09,2.45-2.58,1.82-4.16.55.4-.92.79-1.84,1.18-2.75A2.31,2.31,0,0,1,37.3,14.39Z" style="fill:#a18a7a"/><path d="M12.14,25.27c1.56-1.42,3.34-.34,5-.46L17,26.66Z" style="fill:#060100"/><path d="M60.38,35.45c-1.09.32-2.36-.24-3.31.7L55.28,36c1-3,3.37-1.23,5.17-1.45a.52.52,0,0,1,.19.61C60.54,35.37,60.46,35.46,60.38,35.45Z" style="fill:#1b1816"/><path d="M515.34,24.71c1.63-.45,3.06.17,4.49.8C518.94,27.56,518.94,27.56,515.34,24.71Z" style="fill:#0f0d0e"/><path d="M122.67,22.88l-1.09.92c-1.35-.18-2.87-.12-2.78-2.15C120.21,21.68,121.71,21.41,122.67,22.88Z" style="fill:#bfb7ad"/><path d="M168.08,17.28a1.38,1.38,0,0,0,0-.64l2.13.1-.09.31c1.44.69,1.95,1.66.92,3.09a2.43,2.43,0,0,1-1.55.18C168.28,19.64,167.09,19,168.08,17.28Z" style="fill:#78685d"/><path d="M183.36,16.64l2.33.05a7.24,7.24,0,0,1-4.05,2l-1-2A1.91,1.91,0,0,1,183.36,16.64Z" style="fill:#34302a"/><path d="M360.81,33l-2-1.05c1.38-3.31,3.22-1.54,5-.47a1.15,1.15,0,0,1,0,1.49l-2,.13Z" style="fill:#706554"/><path d="M494.49,16.86a5.88,5.88,0,0,1-7,.14A19.61,19.61,0,0,1,494.49,16.86Z" style="fill:#392e27"/><path d="M271.41,13.51a3,3,0,0,1,0,.84l-5-.86,1.22-1.16C269.31,11.26,270.59,11.63,271.41,13.51Z" style="fill:#2f291f"/><path d="M520.59,25.18a2.1,2.1,0,0,1,0-.79c2-1,4-2.14,6,0l0,1.05Z" style="fill:#4a3c30"/><path d="M422.74,30.93c0-.64,0-1.28,0-1.91l4-1C425.77,29.52,424.71,30.86,422.74,30.93Z" style="fill:#cdbbab"/><path d="M253.93,4c.65-.67,1.3-1.33,2-2l3,.16L258,3.87a2.2,2.2,0,0,1-1,.84,3.25,3.25,0,0,1-2.64-.23C254.2,4.31,254.06,4.13,253.93,4Z" style="fill:#8d7a6c"/><path d="M529.47,26.37a2.11,2.11,0,0,0,1.07-2.26c-.16-.52,0-.95.55-1,.71,0,1.07.52,1.32,1.13C532.84,26.93,531.82,27.57,529.47,26.37Z" style="fill:#595756"/><path d="M176.33,19.6l-.67,1.68-1.63,0h-.15c-.48-.65-1.32-1.09-1.26-2.08a1.66,1.66,0,0,1,.64-1Z" style="fill:#463f35"/><path d="M14.53,8.48c.06-.75.11-1.5.16-2.25,1.3-1.08,2,.64,3,.66a1.61,1.61,0,0,1-.25,2.19A2.28,2.28,0,0,1,14.53,8.48Z" style="fill:#a49175"/><path d="M17.64,8.67l.09-1.78,2.64.3c.1.6.21,1.21.31,1.82A2,2,0,0,1,17.64,8.67Z" style="fill:#8d775b"/><path d="M60.38,35.45a8.69,8.69,0,0,0,.07-.88h0c2.17-.47,4.3-.62,6.27.71-.22.2-.44.41-.64.63l-.36-.2-.37.18Z" style="fill:#28241a"/><path d="M320.8,22.15l-1.2-2c1-1.29,2.07-.05,3.11-.08,0,.67.07,1.35.1,2Z" style="fill:#9f9186"/><path d="M445.07,32.74l-2.24-.89c2-.23,4.1-1.17,5.89.65Z" style="fill:#050402"/><path d="M509.54,23.52c-1,.18-2.19-.13-2.87,1l-1.05,0c-.25-4.05,2.85-.89,4-1.87q.44.34.24.6A.45.45,0,0,1,509.54,23.52Z" style="fill:#4a3c30"/><path d="M361.3,10.83c-.27.59-.54,1.18-.82,1.76l-3-.72C358.11,9.19,360.12,11.57,361.3,10.83Z" style="fill:#ece8e5"/><path d="M380.76,27.57c-2-.21-4.26.93-6.06-.88C376.71,27,378.91,26.07,380.76,27.57Z" style="fill:#d6c5b1"/><path d="M388.36,4.5a1.62,1.62,0,0,1-.75,2.24c-1.33-.06-2.14-.66-2.2-2.06Z" style="fill:#59504a"/><path d="M463.84,30.36l-2.08-.87a1.9,1.9,0,0,1,1-1.63,3.09,3.09,0,0,1,1.94-.23c.65.26,1.14.62,1,1.43Z" style="fill:#131306"/><path d="M407.88,40.16c0,.8,0,1.61-.05,2.42-2-.17-1.83-2.41-3.07-3.31Z" style="fill:#5a524b"/><path d="M379.87,36.54c1.71-1.39,3.17-1.7,4,.9l-1.91.11C381.33,37,380.28,37.43,379.87,36.54Z" style="fill:#422e26"/><path d="M560.54,18.64l2.14-1c1.05,0,2.22-.52,3,.84A9.47,9.47,0,0,1,560.54,18.64Z" style="fill:#080605"/><path d="M465.67,29.06l-1.07-.82c1.49-3,3.59-2.12,5.74-.89l-3.7,1.89A1.91,1.91,0,0,1,465.67,29.06Z" style="fill:#221d18"/><path d="M116.77,36.62c1.25-2.19,2.46-1.19,3.67,0Z" style="fill:#090401"/><path d="M479.71,26.17c-1.34,1.46-3.21.71-4.8,1.14l-.36-.3c1.09-2.75,2.93-2.26,4.92-1.14Z" style="fill:#f6f5f0"/><path d="M326.8,29.35c1.36-1.71,3.21-.83,4.88-.94-.7,1.24-2.1.56-3,1.11Z" style="fill:#170d03"/><path d="M128.92,20.43c-1.18,1.33-2.68.6-4.07.65C125.91,18.94,127.59,20.8,128.92,20.43Z" style="fill:#f6f4ef"/><path d="M415,43l1.27-1.16,3.19.35-.06.74Z" style="fill:#221c1c"/><path d="M379.87,36.54l2.05,1a2.75,2.75,0,0,1-4.05-1Z" style="fill:#f9f6f1"/><path d="M107.36,37.48q0-.42.06-.84l5.33.51C111.05,38.87,109.18,37.79,107.36,37.48Z" style="fill:#080301"/><path d="M3.2,23.63l1-1,3,.45c-.55,1.29-1.66.43-2.33.85Z" style="fill:#1e1912"/><path d="M203.88,19.51c-.49-.31-1.5-.46-.39-1.26,1.36.22,2.91-.58,4.06.77Z" style="fill:#080400"/><path d="M368.41,8.6a4.55,4.55,0,0,1-4,1.23C365.58,8.82,366.52,7.18,368.41,8.6Z" style="fill:#ece8e5"/><path d="M532.41,24.26c-.62,0-1.16-1.17-1.87-.15-.84-.33-.91-1-.89-1.79l3.2.07C532.7,23,532.56,23.64,532.41,24.26Z" style="fill:#787574"/><path d="M23.74,18.35c-.58.22-1.36.27-1.72.69-1,1.13-1,3.83-2.89,3.22-1.39-.44-2.42-2.53-2.36-4.5A7.33,7.33,0,0,1,18,15.47a4,4,0,0,1,2.57-.37,6.3,6.3,0,0,1,1.26.38A3.89,3.89,0,0,1,24,17.75Z" style="fill:#2c2218"/><path d="M38.89,28.7a3,3,0,0,1-3.22,1.69,5.8,5.8,0,0,0-2.92-.69,1.57,1.57,0,0,1-1-.69c1.8-2.54,4-4.22,7.33-3.29A2.14,2.14,0,0,1,38.89,28.7Z" style="fill:#1e1409"/><path d="M27.13,15.55l5.74,1.54c1.21.38,2.5.69,1.83,2.47-1.31.67-2.6,1.46-4.08.4l-.49-.08-.5,0c-1,.47-1.57-.21-2.13-.86-.15-1.75-2.24-1.48-2.86-2.75a1.38,1.38,0,0,1,.57-1.14A1.8,1.8,0,0,1,27.13,15.55Z" style="fill:#5e4e40"/><path d="M18.05,16l-1.28,1.81-2.08.81c-1.94,1.08-4.11-.66-6,.48,0,.33-.06.65-.1,1a2,2,0,0,1-1.9-1.17L7.81,17c0-.32.05-.64.08-1C11,17.3,14,17.9,17,15.8l.36-.3A.56.56,0,0,1,18.05,16Z" style="fill:#433a2e"/><path d="M27.74,18.69l1.89,1.17c-2.27.7-5.11,3.58-5.89-1.51h0A2.84,2.84,0,0,1,27.74,18.69Z" style="fill:#2b1f12"/><path d="M40.18,25.77c-1.13-1.53-3.1-2.33-3.74-4.29l.61-.41a6.55,6.55,0,0,1,4.83,1.59c.91,1.07,1.33,2.2.41,3.48A1.72,1.72,0,0,1,40.18,25.77Z" style="fill:#514236"/><path d="M40.18,25.77l2,.18a.58.58,0,0,1,.2.68c-.1.21-.19.31-.27.31.17,1.7.35,3.4.53,5.1-2.25,0-.5-4.41-3.71-3.34.08-1,.16-2,.23-3Z" style="fill:#2c2720"/><path d="M30.62,20l4.09-.71c2.06-.52,2.7.2,1.89,2.18l-.16.05C34.51,20.94,32.18,21.9,30.62,20Z" style="fill:#4a3a2b"/><path d="M31.79,29l1.09.13c.39.09,1.08,0,.83.65-.47,1.26-1.39.73-2.22.4-1.62-.35-3.58.34-4.71-1.53Z" style="fill:#050301"/><path d="M8.64,19.05c1.9-1.66,4-.32,6-.48C12.79,20.22,10.66,18.9,8.64,19.05Z" style="fill:#342c22"/><path d="M411.71,32.19a1.94,1.94,0,0,0,2.09,1.92c.21,2.16-2.29,1.69-2.94,3-1.26,3.41-3.59,1.19-5.53,1.08-.71-.2-1.4-.45-2.12-.6-1.66-.29-3.44-.34-4.54-2a1.92,1.92,0,0,1,.92-2.42,2,2,0,0,1,1.29-.19,13.63,13.63,0,0,0,5.65-.12c.75-.31,1.66-.11,2.31-.72Z" style="fill:#dac5b0"/><path d="M388.72,34.64c2.54-.47,2-2.44,2-4.14l4,1a5.89,5.89,0,0,1,3.49,3.69,3.38,3.38,0,0,1,.35,1.93,2.55,2.55,0,0,1-.71,1.09l-.43.08-.43,0C394.84,35.7,390.92,37.11,388.72,34.64Z" style="fill:#b49f8f"/><path d="M397.84,35.32l-3.12-3.79,6,.78c.28.18.38.39.32.6s-.15.34-.23.35l-2,2A.59.59,0,0,1,397.84,35.32Z" style="fill:#d4c2b2"/><path d="M400.84,33.26c0-.32,0-.64-.09-.95l8.09-.1-2.09,1a8.2,8.2,0,0,1-5.95,0Z" style="fill:#f8f3e7"/><path d="M55.89,31.23l.86-1c.44-1.7,2-2.06,3.29-2.73h0c3.05-1.32,6.21-.46,9.33-.54a18.35,18.35,0,0,1,3.89.69c1.78.84,3.7.56,5.57.67a4.26,4.26,0,0,1,2.87,2,24.36,24.36,0,0,0,9.18,1.94c1.55.1,3.55-.26,3.68,2.27-1.07.73-2.21.22-3.33.22-3.89-.56-8,0-11.5-2.5-2.39-2-5.17-1.28-7.9-1.2C66.52,31.15,61.2,31.16,55.89,31.23Z" style="fill:#2a2113"/><path d="M92.1,28.3c3.05.79,6.05-.43,9.08-.19a1.56,1.56,0,0,1,1.95-.2c.59.89.65,1.92-.34,2.36-1.59.71.65.66.14,1.05-4.48,1.82-8.82-.76-13.25-.43C89.61,29.21,90.87,28.77,92.1,28.3Z" style="fill:#463d2f"/><path d="M92.1,28.3c-.8.87-1.61,1.73-2.42,2.59a5,5,0,0,0-3.71-1,14.41,14.41,0,0,1-3.23-3.29,3.4,3.4,0,0,1-.39-3.29,2.36,2.36,0,0,1,2-.28c1.21.71,2.65,1.17,2.94,2.83C88.34,27.77,90.78,26.94,92.1,28.3Z" style="fill:#8a7e65"/><path d="M129.87,31.35l3,4.44-10.26-.89L123.81,33A4.37,4.37,0,0,1,126,31.46C127.27,31,128.55,30.33,129.87,31.35Z" style="fill:#2a2119"/><path d="M102.93,31.32c-6.38-1.18,3.71-1.84.09-2.93a2.62,2.62,0,0,1,2.7-.87,6,6,0,0,1,2.64,1.29A5,5,0,0,1,110.18,31c-.43,2.15-2.51.5-3.44,1.49A6.55,6.55,0,0,1,102.93,31.32Z" style="fill:#685e4e"/><path d="M120.79,32.72A8.63,8.63,0,0,1,116,31.43,1.11,1.11,0,0,1,116,30a10.91,10.91,0,0,1,8.11-1.24,2.32,2.32,0,0,1,.59,1.39C124.74,33.1,122.13,31.92,120.79,32.72Z" style="fill:#605448"/><path d="M116,30.45c0,.32,0,.65,0,1l-2.13.76A4.3,4.3,0,0,1,110,30.87a2.29,2.29,0,0,1-2-1.21,1.78,1.78,0,0,1,1.29-1.27,28.16,28.16,0,0,0,3.17-.23,4.5,4.5,0,0,1,2.57.56A2.05,2.05,0,0,1,116,30.45Z" style="fill:#6f6352"/><path d="M83.21,26.5c2,.21,2.18,2,2.76,3.36l-4-.39c-.89-.45-1.67-1.09-2.52-1.61a2.11,2.11,0,0,1-.67-1,1.93,1.93,0,0,1,.45-1.17C80.92,24.41,82.13,25.14,83.21,26.5Z" style="fill:#766754"/><path d="M110,30.87a6.23,6.23,0,0,1,3.82,1.32c-2.31,1.63-4.74.23-7.1.3Z" style="fill:#463d2f"/><path d="M79.16,27.14c1.5.1,2.93.3,2.86,2.33a3.63,3.63,0,0,1-.32.79L79,29.06A1.29,1.29,0,0,1,79.16,27.14Z" style="fill:#8e8373"/><path d="M120.79,32.72c.8-1.23,3.24-.42,3.25-2.62,1.65-.63,1.54.74,1.86,1.63,0,.21-.05.42-.07.62l-2,.68Z" style="fill:#463d2f"/><path d="M105.5,35.41l-5.87-.55A4.56,4.56,0,0,1,105.5,35.41Z" style="fill:#463d2f"/><path d="M91.6,34.25l3,.22c.76.12,1.51.28,1.84,1.11l-4.81-.47q-.54-.28-.36-.57C91.36,34.34,91.48,34.24,91.6,34.25Z" style="fill:#413a2d"/><path d="M79.16,27.14c0,.64-.1,1.28-.14,1.92-1.66-.5-3.51,1.9-5.06-.32-.94-2.31-3.36-1.19-4.91-2.11-.91-.89-1.35-1.82-.25-2.87,0-.4,1.31-.22.53-.86-.37-.3-1.21-.16-1.75-.54-.57-1.24.23-1.64,1.19-1.95,3.31.52,6.85-.44,9.9,1.63-1.07,1.82-1.3,3.56.49,5.1Z" style="fill:#7c7160"/><path d="M68.77,20.41l-1.2,1.66c.32.93,2.4.38,1.77,2.11-1.24.57-.25,1.35-.18,2-1.85,1.2-2.82-.15-3.86-1.31-2.41-1.25-6.34-1-5.49-5.48a8.26,8.26,0,0,0,.86.2c1.31.95,2.66,1.5,4.15.36Z" style="fill:#a09472"/><path d="M106.21,28.5,103,28.39l-1.84-.28c2.38-1.11-2.31-2.92.39-4,1.5.8,2.8-.35,4.21-.43a2,2,0,0,1,2,1.34C106.93,26,108.15,28,106.21,28.5Z" style="fill:#918976"/><path d="M79.16,27.14c-1.43-.31-3.17-.65-3.36-2.25s1.63-2.16,2.87-2.85a3.3,3.3,0,0,0,.83,0l.42.47a8,8,0,0,1-.62,3.6A8.42,8.42,0,0,0,79.16,27.14Z" style="fill:#9c826d"/><path d="M87.32,25.84c-.93-.72-2.26-.94-2.75-2.2a1,1,0,0,1,1.11-.92c2,0,2.75,2.78,5.38,1.46C89.91,26.36,88.54,25.84,87.32,25.84Z" style="fill:#dcceab"/><path d="M85.68,22.72l-1.11.92-2.09-.2c-1.54,1-2.21-.05-2.84-1.21l-.14-.15C81.69,21,83.78,21,85.68,22.72Z" style="fill:#9c7d62"/><path d="M99.4,24.83c-2.25,1.36-3.6.55-5.52-1C96.1,23.51,97.59,23.4,99.4,24.83Z" style="fill:#dccebc"/><path d="M107.35,25.56c-.22-1-1.11-1-1.89-1.18-.4-.36-1-.54-1-1.23,1.57-.73,3.12-1.38,4.36.54a1.36,1.36,0,0,0-.25.84C108.89,25.74,108.26,25.81,107.35,25.56Z" style="fill:#544d3d"/><path d="M64.82,20c-1.69,3.43-2.9,1.33-4.15-.36Z" style="fill:#b8b28d"/><path d="M104.43,23.15l1,1.23c-1.34.58-2.73,1.85-3.89-.27Z" style="fill:#110e0c"/><path d="M480.56,20.05l1-1,7-.1c1.81,2.1,1.95,3.65-1.43,3.46-2.6-.14-4.81.86-7.06,1.86a4.74,4.74,0,0,1-2.16.63,3,3,0,0,1-1.33-.55c-.15-2.72,1.49-3.61,3.85-3.74.14,0,.38.17.42.13C481.13,20.34,481,20.11,480.56,20.05Z" style="fill:#806c5b"/><path d="M491.56,18.9c3.63-.13,7.3.24,10.93-1.2.57,2-1.65,1.89-1.93,3a5.89,5.89,0,0,1-5,.1l-3,0c-.72.61-1.57.61-2-.15S490.88,19.33,491.56,18.9Z" style="fill:#4d443a"/><path d="M491.56,18.9c-.54,1.1-.74,2,1,2l-1.82,1.66c-2.38.76-5.09-.37-7.31,1.3a2.91,2.91,0,0,1-3.88,0c1.64-2.59,4.3-1.92,6.6-1.82,2.63.11,3-1,2.39-3.11Z" style="fill:#625545"/><path d="M515.58,23.58c-.33,0-.65-.06-1-.07-1.16-1.11-2.9.18-4.06-1l0-1.89a25.89,25.89,0,0,0,9,.87c.33.2.43.4.32.59s-.23.27-.35.28C518.19,22.64,516.56,22.05,515.58,23.58Z" style="fill:#4a3c30"/><path d="M504.55,19.69c1.41.09,3-.49,4.08.95C506.89,21.94,505.31,22.57,504.55,19.69Z" style="fill:#77675d"/><path d="M495.6,20.84l5-.1A3.34,3.34,0,0,1,495.6,20.84Z" style="fill:#6d625c"/><path d="M510.54,22.55c1.39.19,3-.5,4.06,1h-5.06c0-.28.07-.56.11-.84C510,22.63,510.25,22.58,510.54,22.55Z" style="fill:#2b251f"/><path d="M311.91,27.71A8.29,8.29,0,0,0,306,25.79c-.35-2.12-2.77-3.39-2.4-5.8,2-.76,2.87.87,4.11,1.78h0c1.35,2.81,3.16,3.66,6.59,3.29,3.6-.39,8.44-2.53,10.7,3a1.18,1.18,0,0,1,.1,1.8L323,29.13c-3.54-1.82-7.51-.27-11.13-1.43Z" style="fill:#b8a182"/><path d="M325.72,24.26l-.06-1.8c3,.17,6.14-.69,9,.81,1.64-.92,2.8,0,4,1l3.94,1c0,3.14-2.81,1-3.92,2.07h-3.93C332.54,23.92,328,27.42,325.72,24.26Z" style="fill:#c1a98d"/><path d="M338.67,24.27l-4-1c0-.32,0-.65,0-1l3.93,0,9-.12C345.08,24.65,341.23,21.73,338.67,24.27Z" style="fill:#dac2aa"/><path d="M324.57,17.49c2.28-1.3,3.92,1,5.95,1.06C328,21,326.2,19.84,324.57,17.49Z" style="fill:#c1a98d"/><path d="M279,5.72l9.19,2.81c1.07.83,3.35.79,2.28,3.16-2.34,1.68-4.84,1.42-7.38.6a5.91,5.91,0,0,1-1.19-.8c-.58-1.28-1.11-2.7-3-1.49a3.45,3.45,0,0,1-.64-1.23,2.7,2.7,0,0,1,.79-2.62Z" style="fill:#b9a393"/><path d="M290.35,11.38c0-1.49-1.65-1.74-2.16-2.85A8.71,8.71,0,0,0,294,6.07l1.31,1c.5,3.05.38,5.63-3.87,5.07A2.08,2.08,0,0,1,290.35,11.38Z" style="fill:#cbc0b3"/><path d="M91.6,34.25a5,5,0,0,0,0,.86c-5,.25-10.06-1.81-15.14-.24a22.72,22.72,0,0,1-10.88-1c0-.64-2.43-1.48.29-1.95s5,2.54,7.81.73c1.59-1,3.48.53,5.06-.57l1,.07C83.71,32.77,87.49,34.43,91.6,34.25Z" style="fill:#342d22"/><path d="M65.57,33.91l10.88,1,3,.33c0,.28-.07.56-.1.84l-12.65-.77-6.27-.71C62,33,63.86,34.11,65.57,33.91Z" style="fill:#140f09"/><path d="M78.73,32.12c-1.53,1.54-3.36.48-5.06.57C75.2,31.13,77,32.21,78.73,32.12Z" style="fill:#3d3429"/><path d="M384.8,31.54c.61,1,2.16,1.41,2,3-4.4.73-8.56-1.69-12.95-1-1.93-2.3-3.68-2.28-5.2.42l-.41.08-.4-.14a7,7,0,0,0-4.35-2.74c-1.09-.63-2.06-1.34-2-2.78.91-1.37,2.08-1.1,3.3-.53h1.93c1.85,1.4,3.17,2.24,6.21,1.64C376.52,28.77,381,29.87,384.8,31.54Z" style="fill:#a98e78"/><path d="M352.53,30.19c-2.08-2.71-5.18-1.7-7.87-2.17-1.25-2.49,1.21-2.06,2.2-2.79,2.64.13,5.4-.69,7.86.94a4.27,4.27,0,0,1,1.46,3.24,1.76,1.76,0,0,1-.83,1.16A2.52,2.52,0,0,1,352.53,30.19Z" style="fill:#b29884"/><path d="M355.79,29.07c-1.15-.67-1.06-1.8-1.07-2.9a17.5,17.5,0,0,1,10.07,1.65c-1.11.11-2.35-.12-3.05,1.11C359.8,30.86,357.8,30.29,355.79,29.07Z" style="fill:#ac977f"/><path d="M346.86,25.23c-.76.91-2.18,1.3-2.2,2.79l-1.93.19-4-.91c.78-1.68,3.09-.46,3.91-2.07Z" style="fill:#dac2aa"/><path d="M65.3,24.91l3.86,1.31c1.78.5,5.45-2.61,4.8,2.52l-3.91-.43C68.69,27,66,28.5,65.22,26Z" style="fill:#544631"/><path d="M65.22,26l4.83,2.36-10-.84C61,24.35,63.43,26.25,65.22,26Z" style="fill:#3d3726"/><path d="M60,27.46c-.13,2.07-2.52,1.43-3.29,2.73-.32-1.49-1.5-3.28.15-4.36C58.17,25,58.87,27.07,60,27.46Z" style="fill:#3d3726"/><path d="M51.53,21.75c0-.69.11-1.38.16-2.07,2.16-.06,3.8.53,3.82,3.16C54.05,22.93,52.56,23.22,51.53,21.75Z" style="fill:#9d957d"/><path d="M51.78,29.87a2.76,2.76,0,0,0-1,.07l-1.74-2.4c.33,0,.65.05,1,.06.88-.84.85-3.4,3.11-1.67A6.48,6.48,0,0,1,51.78,29.87Z" style="fill:#52493f"/><path d="M53.18,25.93c-1.54-.38-2,1.2-3.11,1.67-.34-1.91,1.18-2.72,2.26-3.78A2,2,0,0,1,53.18,25.93Z" style="fill:#6f655d"/><path d="M191.33,12.81a1.91,1.91,0,0,0,.83-2c4,1,8,.55,12.07.4a.93.93,0,0,1,0,1.33,5.88,5.88,0,0,1-3.44,1c-.89.06-1.77.05-2.66.07a4.8,4.8,0,0,0-3.34,1.09,2.42,2.42,0,0,1-1.2.34C192.47,14.71,190.87,14.77,191.33,12.81Z" style="fill:#d8c7b9"/><path d="M204.28,12.22c0-.33,0-.65-.05-1,3.25.28,5.87-1.76,8.87-2.4l.35.62A3.33,3.33,0,0,1,212,12.54a13.67,13.67,0,0,1-5.54,1.4A2.48,2.48,0,0,1,204.28,12.22Z" style="fill:#e1d2bb"/><path d="M213.1,8.84c-.28-.94-.71-1.92.92-2s3.52-.21,5.29-.31a1.41,1.41,0,0,1,1.86-.14,1.55,1.55,0,0,1,0,1.28c-1.05,1-2.7,1.27-3.43,2.71a2.25,2.25,0,0,1-2.32.84c-1.14-.39-1.58-1.47-2.28-2.3Z" style="fill:#e1d2bb"/><path d="M221,6.56l-1.72,0a1.43,1.43,0,0,1-.11-.82c.86-.58,1.65-1.37,2.85-1,.89.43,1.65.92.87,2.06A1.54,1.54,0,0,1,221,6.56Z" style="fill:#aa9584"/><path d="M141.67,36.65l-2.46,1.55c-.25-.63-.49-1.26-.73-1.89.11-1.76,1.35-2.72,2.59-3.69,1.09-.76,1.87-1.94,3.22-2.35a1.78,1.78,0,0,1,1.8.72c-.13,1-.25,1.93-.38,2.9l-3.43,2.82-.31,0Z" style="fill:#564f40"/><path d="M157.18,29.87c-1.7.26-3.06,3.75-5.12.54-.84-1.34-.08-2.29.78-3.22,1.5-.83,2.71-3,4.82-1.09A4.67,4.67,0,0,1,157.18,29.87Z" style="fill:#313022"/><path d="M153.51,27.65c-.48.92-1,1.84-1.45,2.76a3,3,0,0,1-2.78-2.2,6.92,6.92,0,0,1,.15-2.13c.75-1.77,1.62-3.19,3.64-1.24A4.16,4.16,0,0,1,153.51,27.65Z" style="fill:#675244"/><path d="M150.35,27.2l-1.07,1L147.39,28c-.82.69-1.63,1.87-2.55.1a2.63,2.63,0,0,1,.15-1.3c1.11-1.46,2.61-1.38,4.17-1.06C149.81,26,150,26.72,150.35,27.2Z" style="fill:#65564b"/><path d="M157.18,29.87c-.24-1-1.39-2.18.31-3a1.49,1.49,0,0,1,1.83-.16.81.81,0,0,1,.32.74c0,.28-.1.42-.17.41A2.53,2.53,0,0,1,158.19,30Z" style="fill:#27271d"/><path d="M145.18,27.84c.65,1.07,1.46.31,2.21.18-.35,1,0,2.37-1.3,3l-1.89-.42a1.93,1.93,0,0,1-.28-2.62A.92.92,0,0,1,145.18,27.84Z" style="fill:#87827b"/><path d="M164,33.43l-1,0c-1.33-.44-3,.21-4-1.33l1.06-.9A6.06,6.06,0,0,1,164,33.43Z" style="fill:#181813"/><path d="M297.31,12.24c.58.54,1.17,1.56,1.74,1.55,3.57-.06,5.14,1.85,5.56,5.11a1.61,1.61,0,0,1-1.3.48c-2.27-2.49-7.17-2.27-7.26-7A.89.89,0,0,1,297.31,12.24Z" style="fill:#c7ae99"/><path d="M297.31,12.24l-1.05.09a3.77,3.77,0,0,1-2.93,1.06c-1.05-.23-2.18-.39-2.09-1.89,3.2.23,3.21-2.49,4.1-4.4,1.6.54.61,2.55,1.86,3.29C297.24,11,297.27,11.62,297.31,12.24Z" style="fill:#c4b8a6"/><path d="M303.59,19l1-.06a2.81,2.81,0,0,1,3.12,2.87C306,22,305.07,20.4,303.62,20h0c-.32-.22-.43-.45-.33-.68S303.48,19,303.59,19Z" style="fill:#c5a898"/><path d="M42.07,26.94c0-.33,0-.66.07-1-.23-1-.46-2-.7-3a2.58,2.58,0,0,1,.81-.77,4,4,0,0,0,1.3-1l2,0c.64,1,1.52,1.85.78,3.15C45.69,26.47,44.57,27.82,42.07,26.94Z" style="fill:#3a3326"/><path d="M46.31,24.31l-.78-3.15,1.86.38c0,1.85,2.13,3,1.65,5Z" style="fill:#241a0e"/><path d="M470.34,27.35c-1.93.16-4.08-1-5.74.89l-1.76.26a1.36,1.36,0,0,1-1.27.05,2.25,2.25,0,0,1-.5-1.21,2.54,2.54,0,0,1,.44-1.24,7.26,7.26,0,0,1,3-1.25,1.26,1.26,0,0,1,1.14.43l5-.07a1.41,1.41,0,0,1,0,2.08Z" style="fill:#74645c"/><path d="M470.62,27.29l0-2.08a9.21,9.21,0,0,0,5-1.15.62.62,0,0,1,1,0l1.19.28c.61.46,1.62,0,2,.86-.14.22-.27.44-.39.67-1.68.2-3.41.2-4.92,1.14Z" style="fill:#332e28"/><path d="M465.64,25.28c-.32,0-.64,0-1,.06-2.33.37-4.66,1.94-7,.07,1.15-1.91,3.83-.16,5-2.08,1.36.19,2.82-.55,4,.48A13.79,13.79,0,0,1,465.64,25.28Z" style="fill:#a28a7c"/><path d="M476.63,24.06h-1l-1-1.88c.66-1.16,2.26-1,3-2.1,1-1.14,2,.33,3,0a4,4,0,0,1,1.43.09c1.35.63.3.89-.24.84C479.25,20.74,478.1,22.66,476.63,24.06Z" style="fill:#8f7969"/><path d="M477.56,20.08c0,2-1.5,2.06-3,2.1-1.06-.07-2.23.21-3-.92,1.09-.1,2.24,0,3-1.09Z" style="fill:#a2877a"/><path d="M42.38,23c-.31,0-.62,0-.94,0L36.6,21.43a2,2,0,0,0-1.89-2.18l-1.84-2.16L34,16.16c1.42.08,2.93.85,4.15-.55.28,0,.55.08.82.1-.51,2.41,2.87,2.81,2.62,5.08.36.46.92.73,1.25,1.24A.74.74,0,0,1,42.38,23Z" style="fill:#6e5949"/><path d="M42.38,23a6,6,0,0,0,.1-.95.58.58,0,0,1-.2-.66c.09-.21.18-.31.26-.3l1,.09C44.1,22.35,44,23.16,42.38,23Z" style="fill:#26200f"/><path d="M42.54,21.05q0,.48-.06,1l-.91-1.22Z"/><path d="M363.57,14.64c0-.92-.06-1.84-.1-2.76.95,0,2.17-.4,2.6.77s-1.35,1.2-1.61,2.14l-.46,0Z" style="fill:#c7b9ac"/><path d="M12.62,10.35c.6.31,1.17,1.24,1.84.09C16.94,10,19.55,9,21,12.21c.52,3.17-2.08,3-3.91,3.63L17,15.79c-1.94-.17-3.88-.27-5.81-.55-1.76-.25-3.4-.76-1.84-3.08C10,10.77,11.45,10.82,12.62,10.35Z" style="fill:#8f7b68"/><path d="M12.62,10.35a3.25,3.25,0,0,1-3.3,1.81c-.82-.19-1.65-.37-2-1.27,1.44-.83,2-3,4.25-2.6C11.56,9.16,11.69,10,12.62,10.35Z" style="fill:#694d2d"/><path d="M2.49,8.68c1.15-.11,2.28-.16,2.93,1.08a2.29,2.29,0,0,1-3,.53C1.67,9.91,2.25,9.22,2.49,8.68Z" style="fill:#635545"/><path d="M221,6.56l2-.17a3.31,3.31,0,0,1,1.29-.85c1.29-.18,2.6-.45,3.63.71.48.59,1.48,1.49,1.35,1.72-1.2,2-3.32,1.16-5.09,1.44a2.68,2.68,0,0,1-3.08.37,1.69,1.69,0,0,1-.07-2.24C221.07,7.21,221.06,6.88,221,6.56Z" style="fill:#dcc4b0"/><path d="M221.17,9.52l3.06-.11-1,1.94a3.57,3.57,0,0,1-2,1.27c-2.75-.2-5.74,2-8.22-.83.19-1.51,1-1.74,2.2-1a2.09,2.09,0,0,0,2-1.09A2.87,2.87,0,0,1,221.17,9.52Z" style="fill:#ddbfab"/><path d="M239.06,5.72l1.83-1a2.16,2.16,0,0,1,1.79,1.89,3.78,3.78,0,0,1-.14,1.38c-.67,2-2.32,2.81-4.11,3.46a3.47,3.47,0,0,1-2.72-.08l-.48-.52c.27-.61.54-1.23.8-1.84l.24-.22C237.22,7.75,238.11,6.71,239.06,5.72Z" style="fill:#7d6959"/><path d="M224,6.4l-.5,0-.49,0-1-1.72,6.84-1.51a3.27,3.27,0,0,0,2,1.88A1.88,1.88,0,0,1,229,6.17,5.33,5.33,0,0,0,224,6.4Z" style="fill:#8a786b"/><path d="M241.28,12.55l-8,1.16-1-.7c-.52-1.1.39-1.45,1-1.95l1.95-.26a.48.48,0,0,0,.11.52C237.21,12.27,239.92,9.14,241.28,12.55Z" style="fill:#2c211a"/><path d="M233.28,11.06l-1,1.95c-2.23-1.41-4.71-.55-7.07-.77C227.67,10.34,230.54,11.12,233.28,11.06Z" style="fill:#6f5a4d"/><path d="M221.35,11.59l1.88-.24,1.14,1.09-1,1.05a9.86,9.86,0,0,1-4.62.66,2.2,2.2,0,0,1-1.5-.33C217.42,10.87,220.31,12.91,221.35,11.59Z" style="fill:#9b8470"/><path d="M224,6.4c1.59-1.5,3.24-1.68,5-.23l-1,.08Z" style="fill:#aa9584"/><path d="M232.35,7.38c.46.32,1,.48,1.13.81a.88.88,0,0,1-.87,1.27,1.29,1.29,0,0,1-.93-.84C231.61,8.3,232.05,7.88,232.35,7.38Z" style="fill:#d7bba7"/><path d="M545.48,17a3.61,3.61,0,0,1,5,0Z" style="fill:#685a4c"/><path d="M387.68,10.47a2.39,2.39,0,0,0-.09.92l-1.12.1c-1.1-1.42-2.68-.77-4.08-1a4.41,4.41,0,0,0,0-1C384.55,7.68,386.19,8.61,387.68,10.47Z" style="fill:#644e3b"/><path d="M452.65,29.43l-2.87,1.15a65.91,65.91,0,0,0-14.1-.89c0-.31,0-.62,0-.94,1.89-.06,2.75-1.22,3.11-2.9a18.26,18.26,0,0,0,14.82-.4l1,0a1.75,1.75,0,0,1,.58,1.15,2.12,2.12,0,0,1-.51,1.14c-.18,1-2.17-.6-1.82,1.24Z" style="fill:#897c78"/><path d="M414.77,37c.9-2.25,3.44-1.81,5-3,4.59-1.45,9-3.77,14.06-3.13l-4.05,1.9L415,38.19l-.49-.27A.72.72,0,0,1,414.77,37Z" style="fill:#a68f79"/><path d="M141.74,33.53l-3.25,2.78c-2.89-.06-3.38-2.12-3.66-4.37l.62-.49a7.56,7.56,0,0,1,4.68-.09C141,31.81,142.28,32,141.74,33.53Z" style="fill:#463f34"/><path d="M129.87,31.35l-4,1L126,32c-1-2.29.8-3.33,2-4.66,1.31-.51,2.26.09,3.11,1a1.15,1.15,0,0,1,0,1.28C130.07,29.8,129.93,30.55,129.87,31.35Z" style="fill:#9b8f84"/><path d="M131,29.57l0-1,.54-.35a2.92,2.92,0,0,1,1.93.19,4.2,4.2,0,0,1,2,1.72,2,2,0,0,1-.37,1.86l-.3,0C133.48,31.28,131.89,31,131,29.57Z" style="fill:#2d2118"/><path d="M312.57,21.78a11.68,11.68,0,0,1,11.08,1.74c-1.61.59-3.87-1.86-5,1.07l-1,.39C316.53,23,313.81,23.57,312.57,21.78Z" style="fill:#90826a"/><path d="M27.13,15.55l-2-.12a4.61,4.61,0,0,1-2.66-2,3.4,3.4,0,0,1-.69-2c.22-1,.56-1.88,1.89-1.41a2.1,2.1,0,0,1,.77.4C24.76,12.45,28.79,12.47,27.13,15.55Z" style="fill:#6c5544"/><path d="M23.63,10.06a2.35,2.35,0,0,0-1.42,2.08,1.34,1.34,0,0,1-1.94,0c-1.43-2.32-4.2,0-5.81-1.66-.11-.66-1.12-1.35.07-2l3.11.19,3,.34C21.71,9.22,23,8.76,23.63,10.06Z" style="fill:#bf9f7d"/><path d="M519.56,22.4l0-.87c2,0,3.87,1.27,6,.73.82.09,1.64.18,2.06,1l-1,1.05c-2-1.06-4,.45-6,0A2,2,0,0,0,519.56,22.4Z" style="fill:#383532"/><path d="M242.12,6.65l-1.23-2,1-1.13c1.09.07,2.27-.19,3,.92C245.85,7.58,244.14,7.32,242.12,6.65Z" style="fill:#968475"/><path d="M239.06,5.72c-.13,1.75-.76,3-2.79,3C236.14,6.76,237.25,5.92,239.06,5.72Z" style="fill:#654b38"/><path d="M115,29.28l-2.85-.36c-.86-.83-1.59-1.69-.81-3,1.34-3,3.4.28,5-.57,1.27,1.84,3.43.52,5,1.39l.07,0C120.42,30.53,117.75,30,115,29.28Z" style="fill:#c7baa7"/><path d="M121.32,26.78c-1.27.34-2.52.74-3.8,1-3.52.75-1.52-1.25-1.18-2.41,1.81-1.44,3.41-.19,5.06.4C121.39,26.12,121.36,26.45,121.32,26.78Z" style="fill:#e7dac9"/><path d="M107.35,25.56l1.19-1,1,1.14a2.28,2.28,0,0,1-.3,3l-1.16,1-1.83-1.16Z" style="fill:#504733"/><path d="M109.2,28.68l.3-3,1.86.29c.27,1,.54,2,.8,3A2.18,2.18,0,0,1,109.2,28.68Z" style="fill:#988e79"/><path d="M188.56,19a2.11,2.11,0,0,0-.86.19c-2.19,1.92-4.31,4.19-7.32,1.25a1.46,1.46,0,0,1,.3-1.47,2.52,2.52,0,0,1,3,.09l4.76-2.21a1,1,0,0,1,1.2,0A1.62,1.62,0,0,1,188.56,19Z" style="fill:#9d947e"/><path d="M189.44,16.87l-1,0c-1-2.74,2.55-2.25,2.91-4l3.11,1.92c1.08,2.77-1,2.22-2.44,2.33A18.26,18.26,0,0,1,189.44,16.87Z" style="fill:#c5ab97"/><path d="M183.66,19l-3,.29a2,2,0,0,1-1.91-1l2.09-2.65C181.8,16.78,183.35,17.38,183.66,19Z" style="fill:#aca190"/><path d="M414.72,40l-3.81.24c0-2.9,1.81-2.79,3.85-2.21l.25.2C414.91,38.78,414.82,39.37,414.72,40Z" style="fill:#a3937f"/><path d="M218.45,13.74l5-.25,0,1.17c-1.65-.5-3.26,1-4.92.1-.27-.22-.37-.45-.28-.68S218.36,13.74,218.45,13.74Z" style="fill:#6f5a4d"/><path d="M355.56,17c0-.66,0-1.32,0-2L359.4,15c.61,3.37-1.95,2.77-3.81,3.05-.26-.22-.35-.44-.27-.67S355.47,17,355.56,17Z" style="fill:#978776"/><path d="M355.56,17l0,1-1.13,1.78a5,5,0,0,1-2.82-2.69Z" style="fill:#9a8980"/><path d="M172.56,28l-.09,1c-2.48-.26-2.83-2.6-4-4.12a1.48,1.48,0,0,1,1-1.57c3.41.51,5.95-2.6,9.32-2.25.89,1.17.17,2.14-.39,3.13-.43.58-1.14.71-1.72,1C174.61,25.08,172.82,25.38,172.56,28Z" style="fill:#4a453d"/><path d="M175.88,26.48l1.19-1.24a2.89,2.89,0,0,1,2.87-1.85,2.48,2.48,0,0,1,1.92.87c.26.63.51,1.25.76,1.88l-2.74.16A3.25,3.25,0,0,1,175.88,26.48Z" style="fill:#463f35"/><path d="M241.28,12.55c-1.69-1.83-4.15.1-5.94-1.23l2.91-.68c4.64-1,9.26-3.2,14-.36-.66,3.07-3.59.52-4.9,2Z" style="fill:#3b2e25"/><path d="M247.35,12.26c1.37-1.54,3.36-.62,5-1.23a2,2,0,0,1,2.88.1,1.65,1.65,0,0,1-.09.69c-.5.91-1.25.8-2.05.5Z" style="fill:#070000"/><path d="M253.06,12.32l2.05-.5c1.4.33,3-.37,4.21,1l-5.88.21A3.4,3.4,0,0,1,253.06,12.32Z" style="fill:#534232"/><path d="M181.86,24.26l-2.09,0a14.11,14.11,0,0,1-.56-3.22c.25-.64.59-1.14,1.4-.81,2.67,1.63,4.73-.72,7.09-1.1-.3.64-.59,1.27-.88,1.91-.59,1.34-2.12,1.27-3.08,2.06Z" style="fill:#504a3d"/><path d="M189.44,16.87a2.1,2.1,0,0,1,2-1c1,.79,2.25,1,3.14,1.88q0,.44-.09.87c-1.5.39-3.75-.46-3.83,2.29a3,3,0,0,1-2.08-1.9C188.85,18.27,189.15,17.57,189.44,16.87Z" style="fill:#716754"/><path d="M183.74,23.14a5.67,5.67,0,0,1,3.08-2.06C187.71,24.63,184.81,22.52,183.74,23.14Z" style="fill:#463f35"/><path d="M337.78,30.28c0-.32,0-.65,0-1q2.5-.15,5-.33l3.75.43v.74Z" style="fill:#34211b"/><path d="M352.53,30.19l3.25-.26a1.41,1.41,0,0,1,0,2c-1.35-.23-2.89.5-4-.82Z" style="fill:#55463e"/><path d="M218.45,13.74c0,.34,0,.68,0,1l-1,1c-4.72-.2-9.25,1.09-13.87,1.68l-1.2-.94.32-.66c1.37-1.66,3.51-1.52,5.28-2.26a12.1,12.1,0,0,1,9.25,0Z" style="fill:#8b7460"/><path d="M414.76,38c-1.66.07-3.23.32-3.85,2.21-.5,1.54-2.6.44-3.13,1.92l-2.92-1.84a3.06,3.06,0,0,1-.65-2,2,2,0,0,1,.71-1.18c2-.62,3.95,2.27,5.94,0l3.91-.16C414.76,37.31,414.76,37.65,414.76,38Z" style="fill:#b1a28c"/><path d="M242.12,6.65c1.42-.12,2.88-.17,2.84-2.19,1.68,0,3.42,1.39,5-.24l-.07.3c1.23,3.05,2,.35,3-.22l1-.35,0,.34a3.18,3.18,0,0,1,.87,1.52c.15,2.23-1,3.25-3.13,3.36s-4.17.21-6.26.28c-1.38-.13-3.1.4-3.45-1.76C242,7.34,242.07,7,242.12,6.65Z" style="fill:#ad9989"/><path d="M404.85,38.23c0,.68,0,1.37,0,2.05-1.95-1.94-3.94-.18-5.92-.09l-.21-1.8C400.73,36.76,402.78,37,404.85,38.23Z" style="fill:#9e8672"/><path d="M461.69,28.26l1.15.24-1.08,1-9.1.85a4,4,0,0,0,0-.91l-.06-.06C455.47,27.79,458.32,25.91,461.69,28.26Z" style="fill:#4c4a3c"/><path d="M144.47,27.42c1-1.64,3.22-.23,4.21-1.81l2,.11a2.34,2.34,0,0,1,.53,2.06c-.59,1.66-2.09,2-3.53,2.37a3.71,3.71,0,0,1-2.18-.25C144.61,29.28,144,28.55,144.47,27.42Z" style="fill:#a27e61"/><path d="M151.74,22l3,1,.92,1.05a1.66,1.66,0,0,1,.41,1.23,1.65,1.65,0,0,1-1.48,1.18,2.17,2.17,0,0,1-1.95-1.62C150.35,24.56,151,23.27,151.74,22Z" style="fill:#9e8c77"/><path d="M152.69,24.84l2,1.17a1.06,1.06,0,0,1-.13,1.26c-1.27.73-2.56,1.29-4,.49l.13-2A2,2,0,0,0,152.69,24.84Z" style="fill:#79644b"/><path d="M31.49,30.19c.3-.56,1.85.52,1.39-1.05,1.82-1.56,2.2.08,2.79,1.25l-1,.85A4.47,4.47,0,0,1,31.49,30.19Z" style="fill:#2c2720"/><path d="M271.41,13.51a5.08,5.08,0,0,0-3.83-1.18,1.69,1.69,0,0,1-.35-.77,5.8,5.8,0,0,1,1.38-3.1,3.6,3.6,0,0,1,1.14-.83,5.87,5.87,0,0,1,1.41-.37c4.62-.66,7.09,4.12,11.31,4.48a1.67,1.67,0,0,1,0,2.09l-2.08.14-4,.17Z" style="fill:#6d5d48"/><path d="M282.44,13.83c-.06-.63-.11-1.26-.17-1.89-.27-.22-.36-.45-.28-.68s.16-.35.25-.35c2.64,1.24,5.39.72,8.11.48a3.87,3.87,0,0,0,.89.11,2.16,2.16,0,0,0,2.05.94c.78.45,1.54.91,1.24,2-.71,1.83-2.72,2-4,3.05l-2,0C287.94,14,284.69,14.72,282.44,13.83Z" style="fill:#907b69"/><path d="M256.88,4,258,3.87c3,.83,6.19-2.09,9.05.56a25.27,25.27,0,0,1-4.55,4,5.57,5.57,0,0,1-1.38.34,6.55,6.55,0,0,1-3.51-.9,3.68,3.68,0,0,1-1.05-1A2.56,2.56,0,0,1,256.88,4Z" style="fill:#97806d"/><path d="M262.11,7.74c1.26-1.67,2.39-3.55,4.94-3.31l1-.18-.07.22c1.08,1.13,1.9,2.34,1.2,4l.07.26c-1.72,1.48-3.63,2.26-5.93,1.54C262,9.87,261.32,9.16,262.11,7.74Z" style="fill:#ae9880"/><path d="M131.07,28.54l-2.79-1.07a1.32,1.32,0,0,1-.91-1.28c.42-.92.84-1.85,1.27-2.77,1.75-.64,3.44,0,5.16.23a2.75,2.75,0,0,1,.41,2c-.29,1.66-2,2-2.91,3Z" style="fill:#d4cbbe"/><path d="M127.37,26.19l.91,1.28L126,32,124,30.1c0-.3,0-.6,0-.89a2.4,2.4,0,0,1,.22-3.15c.08-.41.17-.82.25-1.24C125.45,25.38,126.14,26.33,127.37,26.19Z" style="fill:#a89d90"/><path d="M133.47,23.75a7.69,7.69,0,0,1-4.83-.33l1.18-2,3.76,1.48q.31.31.15.57C133.64,23.68,133.55,23.76,133.47,23.75Z" style="fill:#eee8dd"/><path d="M141.19,19.54a2.09,2.09,0,0,0,.68-.35c1.11.5,2.06,1.29,3.19,1.76a3.22,3.22,0,0,1,1,.83,1.67,1.67,0,0,1-.14,1.26,3.47,3.47,0,0,1-1.15.62c-1.57.18-2.83,1.26-4.38,1.49a2.82,2.82,0,0,1-2-.69,3.1,3.1,0,0,1-.46-1.36C138,21,139.78,20.43,141.19,19.54Z" style="fill:#dab593"/><path d="M144.8,21.78c-1.72,0-2.93-.62-2.93-2.59a.71.71,0,0,1,.19-.69l2.12-1.88,1,.24,1,2A3.27,3.27,0,0,1,144.8,21.78Z" style="fill:#d8b59b"/><path d="M141.19,19.54c.07,1.89-2.89,1.58-2.63,3.61-1.69,1-2.41.16-2.73-1.44C137.52,20.75,138.58,18.23,141.19,19.54Z" style="fill:#2a180b"/><path d="M133.47,23.75a2.44,2.44,0,0,0,.11-.81c.11-1.43.21-2.87.31-4.3l1.11-.8c1.05,1.32.16,2.62,0,3.93a4.1,4.1,0,0,1,.54,2.25c-.27,1.05-.58,2.05-2,1.9C133.5,25.19,133.49,24.47,133.47,23.75Z" style="fill:#979384"/><path d="M134.68,24l.3-2.21a3,3,0,0,0,.85-.06c.79.71,1.53,1.5,2.73,1.44,0,.36.06.71.1,1.06.25.92-.31,1.25-1,1.47C136.26,25.77,135.46,24.91,134.68,24Z" style="fill:#6a5e4e"/><path d="M242,7.69c.84,1,2,.77,3.12.82,3.82,1,7.55-.13,11.32-.42a2,2,0,0,1-.3,2.76,3,3,0,0,0-.92.28L252.32,11c-4.66-1.43-9.39,0-14.07-.4Z" style="fill:#6f5e52"/><path d="M262.11,7.74c1.8,4.52,4.8.34,7.14,1a3.38,3.38,0,0,1-2,2.82l-7-.86c-.62-1.23.05-2.08.84-2.9Z" style="fill:#7f6c54"/><path d="M256.12,10.85c0-1,0-1.91,0-2.87a.85.85,0,0,1-.29-.71c0-.26.08-.39.14-.39a.85.85,0,0,1,1.1,0,3,3,0,0,0,1,.1,2,2,0,0,1,.22,2.91A1.85,1.85,0,0,1,256.12,10.85Z" style="fill:#534232"/><path d="M258.2,9.89c-.07-1-.15-1.94-.22-2.91l3.13.82-.84,2.9Z" style="fill:#806b55"/><path d="M454.66,26.46c0-.33,0-.65,0-1l3-.07,7-.07c-.74,1.12-1.91.95-3,1A6.34,6.34,0,0,1,454.66,26.46Z" style="fill:#937d6a"/><path d="M194.56,17.72a3.21,3.21,0,0,1-3.14-1.88c.92-.6,2.81,1.43,3-1.11l-.05,0A17.72,17.72,0,0,1,198,13.62c1.95,0,3.93,0,4.5,2.5l-.14.36C199.93,17.8,197.16,17.25,194.56,17.72Z" style="fill:#8e7e6b"/><path d="M363.83,30.93c2.58-.72,3.74.52,4,2.94L363.8,33c-.05-.44-.09-.88-.14-1.33l-.2-.42Z" style="fill:#6d5e4e"/><path d="M479.86,25.2l-2-.86,1.73-.48,3.88,0,1.17,1Z" style="fill:#130d09"/><path d="M282.24,10.91l0,1c-2.19.16-4.62.14-6-1.58-1.77-2.22-3.86-2.11-6.16-2a2.27,2.27,0,0,1,1-3.05c2.26,1.25,3.57.71,3.75-2,1.15.08.87,1.11,1.16,1.76.78,1.51,2.23,2.5,3.1,4a6.94,6.94,0,0,0,.12.9c.9.67,2.15,0,3,.83Z" style="fill:#947866"/><path d="M279.13,9.06c-1.26-1.14-4.57-.67-3.1-3.95l3.05,1C279.1,7.12,279.12,8.09,279.13,9.06Z" style="fill:#b09984"/><path d="M252.91,4.3c.41,2.65-1.3,3.46-3.24,2.85-1.71-.54.91-1.64.24-2.63Z" style="fill:#c4af9e"/><path d="M271.12,5.33l-1,3.05a6,6,0,0,1-.95.1,6.47,6.47,0,0,1-1.2-4l2.89,0A6.09,6.09,0,0,0,271.12,5.33Z" style="fill:#b09e87"/><path d="M159.47,27.84c0-.21-.1-.43-.16-.64-2.06-2.76.05-3.11,2-3.54a1.68,1.68,0,0,1,1.17.7,7.93,7.93,0,0,0,.14,1Z" style="fill:#6b6b6c"/><path d="M294.36,14.39c-.35-.65-.71-1.3-1.07-2l3-.11c1.07,3.71,6,3.15,7.32,6.63,0,.34,0,.69,0,1l-2,.09-.62-.21c-2-1.12-4.68-1.24-5.87-3.68a5.23,5.23,0,0,1-.65-1.15Z" style="fill:#b59e86"/><path d="M302.94,25.85a2,2,0,0,1-2.29-.32c-.87-1.62-1.46-3.27-.49-5.07a1.07,1.07,0,0,1,1.5-.43l0,0C301.39,22.16,302.4,24,302.94,25.85Z" style="fill:#6e584b"/><path d="M180.61,20.27l-1.08,1a1.3,1.3,0,0,1-1,.68,2.17,2.17,0,0,1-1.91-1.47,2.43,2.43,0,0,1,0-.93c.89-.05,1.82,0,2.12-1.16a1.93,1.93,0,0,1,1.91,1C180.62,19.64,180.61,20,180.61,20.27Z" style="fill:#afa294"/><path d="M363.83,30.93a4.32,4.32,0,0,1-.17.71c-1.59.64-3.38-2-4.87.31h-3c0-.68,0-1.35,0-2,0-.29,0-.57,0-.86l5.95-.14A3.58,3.58,0,0,1,363.83,30.93Z" style="fill:#b2a391"/><path d="M155.65,25.2c0-.38,0-.77.07-1.15.34-2.14.41-4.46,3.31-4.85,1.45-1.62,3-2.43,4.94-.69a2,2,0,0,1,.69,1.89c-.34,1.45-1.46,2.3-2.45,3.25-2.43.74-2,3.73-3.81,4.93a2.22,2.22,0,0,1-1.94-.21C155.45,27.5,156.1,26.22,155.65,25.2Z" style="fill:#ddcec2"/><path d="M168.08,17.28a4,4,0,0,0,1.62,2.58c1.14,1,.08,1.49-.47,2.1a2.2,2.2,0,0,1-1.34.14,4,4,0,0,1-1.62-1.27c-.59-1-1.27-2-.11-3.07Z" style="fill:#554537"/><path d="M166.16,17.76c.25.95.51,1.9.77,2.84a1.79,1.79,0,0,1-2.67,0c-.1-.7-.19-1.4-.29-2.11Z" style="fill:#6a5948"/><path d="M300.73,20.16c0,1.79-.05,3.58-.08,5.37-1.89.11-2.64-1.59-3.92-2.44a1.22,1.22,0,0,1-.18-.65C297.48,20.84,298.57,19.52,300.73,20.16Z" style="fill:#817166"/><path d="M168.94,21.8l.77-1.94,1.15-.12a7.7,7.7,0,0,1,1.7.31c1.05.46,1.76-.19,2.48-.79l3,0,2,1.14c.16.94-.21,1.25-1.11.94-3.13.43-5.35,4.29-9.09,2.38A6.5,6.5,0,0,1,168.94,21.8Z" style="fill:#93867a"/><path d="M175,19.26c.06,2.55-1,3.08-3.09,1.7-.53-1.12.18-1.52,1.06-1.82Z" style="fill:#938c85"/><path d="M173,19.14,172,21l-1.09-1.22-.75-2.69,2.35.17C172.64,17.86,172.83,18.5,173,19.14Z" style="fill:#9a8a7f"/><path d="M404.85,38.23l-6.11.16a3.32,3.32,0,0,1-.89-.15c0-.31,0-.63,0-.94,1.82-1.49,4.18.33,6-1l1,.82C404.9,37.49,404.88,37.86,404.85,38.23Z" style="fill:#a3937f"/><path d="M168.46,24.55c2.21.7,2.93,2.73,4,4.45.27.69.54,1.39.8,2.08-2.46,0-5-.59-7,1.56l-2.95-.14a1.78,1.78,0,0,1-1.21-2.1,11.43,11.43,0,0,0,1.64-3.52c.73-1.65.7-3.74,2.68-4.66C168.12,22.1,168.38,23.25,168.46,24.55Z" style="fill:#49403a"/><path d="M163,20.22l.85,2.25-1.36,1.89c-.28-.05-.57-.09-.85-.12-1.24-.62-2.81-1-2.26-3a3.44,3.44,0,0,1,3.39-2.2.75.75,0,0,1,.42.71C163.18,20.08,163.11,20.23,163,20.22Z" style="fill:#5b5956"/><path d="M290.54,17.51c.07-2.52,2.59-2,3.82-3.12h0c1.45,1.65-.32,3.16-.21,4.75,0,.21-.07.41-.11.62l-.34.53-2,.21C291.61,19.39,291.8,18.16,290.54,17.51Z" style="fill:#7c6853"/><path d="M124.31,26.06c-.08,1.05-.15,2.1-.22,3.15L116,30.45l-1-1.17c2.37-.2,5.07.42,6.37-2.52Z" style="fill:#beb1a2"/><path d="M300.73,20.16l-4.18,2.28-.87-1.11c.77-2.12-1.58-1.08-2-2h0c-.59-1.87,1.29-2.65,1.79-4.05.61,3.48,6,.75,6.2,4.74C301.35,20.06,301,20.11,300.73,20.16Z" style="fill:#a68d79"/><path d="M293.68,19.34c1.31,0,3-.4,2,2l-2-1A7.54,7.54,0,0,1,293.68,19.34Z" style="fill:#907c68"/><path d="M257,6.88a2.67,2.67,0,0,1-.78.27c-1.94.65-1.37-1.5-2.25-2,0-.28,0-.56-.05-.83L256.88,4Z" style="fill:#b69e8c"/><path d="M23.18,13.28c.63.72,1.27,1.43,1.91,2.15a6.39,6.39,0,0,0-.11,1,2.4,2.4,0,0,1-3.06-.22l-1-.12C20.55,14.24,19.91,12.17,23.18,13.28Z" style="fill:#402f21"/><path d="M21.92,16.19l3.06.22c.89.79,4.17-1.31,2.76,2.28l-4-.34Z" style="fill:#352a1c"/><path d="M23.18,13.28c-2-.07-2.15,1.35-2.27,2.79L18.05,16l-.46-.09-.46,0c1.11-1.2,3.49-1.31,3.14-3.74l1.94,0Z" style="fill:#523d2c"/><path d="M403.89,36.31c-1.78,1.7-4,.72-6,1,0-.66,0-1.32,0-2,.33,0,.66,0,1,0A8.74,8.74,0,0,0,403.89,36.31Z" style="fill:#c6af9e"/><path d="M400.8,33.25h5.95A4.5,4.5,0,0,1,400.8,33.25Z" style="fill:#d4c2b2"/><path d="M79.64,22.23l2.84,1.21c.25,1,.49,2,.73,3.06-1.3-.15-2.52-1.22-3.91-.35C78.34,24.75,79.26,23.52,79.64,22.23Z" style="fill:#8a6d56"/><path d="M69.34,24.18l-1.77-2.11c1.36.82,3.27-2,4.15.38C72.09,23.48,70.75,24.41,69.34,24.18Z" style="fill:#aa916d"/><path d="M282.27,10.79c-1.09,0-2.27.37-3-.83C281,7.72,281.55,9.47,282.27,10.79Z" style="fill:#b09984"/><path d="M202.53,16.12a7.09,7.09,0,0,0-5.14-1.55,1.29,1.29,0,0,1-.07-2l3-.14c1.79,1.31,4,.6,5.94,1.23a1.62,1.62,0,0,1,1.23.47A8.69,8.69,0,0,1,202.53,16.12Z" style="fill:#bfab91"/><path d="M206.32,14.09c-2.17,0-4.6,1-6-1.64l4-.23,2,.95c.34.21.46.41.34.62S206.44,14.09,206.32,14.09Z" style="fill:#cfba9f"/><path d="M197.32,12.59c0,.66.05,1.32.07,2a2.39,2.39,0,0,1-3,.13C194.38,12.61,195.85,12.6,197.32,12.59Z" style="fill:#cfba9f"/><path d="M206.32,14.09c0-.3,0-.61,0-.92,2-.44,3.81-1.52,5.93-1.28.32-.49.65-.49,1,0l8.11-.28-4.11,2a36.58,36.58,0,0,0-9.8.57Z" style="fill:#cab097"/><path d="M213.24,11.87c-.33,0-.66,0-1,0l.93-3a1.76,1.76,0,0,1,2.06,1.85A2.12,2.12,0,0,0,213.24,11.87Z" style="fill:#d6b99e"/><path d="M221.17,9.52l-4,.16c.17-2.75,2.35-1.87,3.88-2.14Z" style="fill:#d5bea5"/><path d="M141.74,33.53c-.31-.88-1.06-1.06-1.86-1.17-.86-1.2-2.06-2.21-2.21-3.83.48-2.91,2.57-3.13,4.91-3,1.12.34,2.12.8,2,2.24-.13.92-.27,1.84-.4,2.76C143.44,31.6,143.06,33,141.74,33.53Z" style="fill:#554b41"/><path d="M159.94,21.13c-.28,1.51,1.22,2,1.73,3.11-1.3.58-3.18.69-2.36,3l-1.82-.35c-1.79-2.07-2.46,1.49-4,.8a2.15,2.15,0,0,1-1-2.23c.43-.39.52-1,.91-1.43a9.26,9.26,0,0,1,1.31-1.19,10,10,0,0,1,1.6-1c.9-.37,1.54-1.14,2.39-1.55S160.38,19.71,159.94,21.13Z" style="fill:#515250"/><path d="M153.62,24.54l-1.07.89c-2.53-1.63-1.77.8-2.2,1.77l-.89-1.12a2.51,2.51,0,0,1-.61-2,14.33,14.33,0,0,1,1.75-4.68,1.7,1.7,0,0,1,1.32-.4,3.36,3.36,0,0,1,1.79,2.14A4.36,4.36,0,0,1,153.62,24.54Z" style="fill:#84694c"/><path d="M144.6,27.81c-.4-1-1.29-1.18-2.2-1.34a1.18,1.18,0,0,1-.23-1.14,4.28,4.28,0,0,1,2.64-2.47,5.93,5.93,0,0,0,.83-.12c1.37-.26,1.47.67,1.53,1.63-.23,1-1.1,1.42-1.68,2.1-.1.46-.21.91-.31,1.37Z" style="fill:#966f51"/><path d="M145.49,26.47l1-1.53c.85-.93,1.65-2,3-.75l-.12,1.89Z" style="fill:#ab8564"/><path d="M461.69,28.26l-9.1,1.11-1-1.47,3.08-.45a11.1,11.1,0,0,1,7-.11C461.68,27.65,461.68,28,461.69,28.26Z" style="fill:#746b5a"/><path d="M461.67,27.34l-7,.11c0-.33,0-.66,0-1l7-.11C461.67,26.68,461.67,27,461.67,27.34Z" style="fill:#7f705b"/><path d="M222.67,8c1.52-.68,2.53-.84,3.6-.18C225.27,8.58,224.24,8.5,222.67,8Z" style="fill:#eed5c3"/><path d="M138.06,29.19c2,.25,2,1.66,1.82,3.17l-4.75-.4c0-.7,0-1.41,0-2.11-.14-1.38.82-1.37,1.76-1.39A2.52,2.52,0,0,1,138.06,29.19Z" style="fill:#5c574b"/><path d="M134.68,24l2.76,1.2c.94.92.56,1.9.15,2.89-1.41.79-3,.62-4.5.74l-1.79-.12c-.47-1.9,1.14-2.12,2.22-2.77C134.56,25.66,134.46,24.73,134.68,24Z" style="fill:#35261b"/><path d="M133.09,28.81c1.18-1.45,2.77-.43,4.15-.68.28.2.38.4.3.61s-.17.32-.25.32a2.28,2.28,0,0,0-2.12.79A2.22,2.22,0,0,1,133.09,28.81Z" style="fill:#705c55"/><path d="M177.66,22.43l1-1.05.86-.14a2.51,2.51,0,0,1,.24,3.06l-2.7.94C177.27,24.3,177.47,23.37,177.66,22.43Z" style="fill:#857a6d"/><path d="M168.46,24.55,167,22.62c-.37-.93-.14-1.29.86-.92l1.06.1c1.73,0,1.43.95.85,2Z" style="fill:#938c85"/><path d="M254,5.12l2.25,2a5.82,5.82,0,0,1-.17.83c-3.56,2.37-7.26,1.66-11,.53,2.09-.1,4.18-.28,6.28-.29S254.19,7.05,254,5.12Z" style="fill:#9c8879"/><path d="M144.8,21.78c.16-1.13.1-2.36,1.41-2.94l1.88.17a1.72,1.72,0,0,1,2.12.15c-.28,2.94-2.35,2.93-4.52,2.73Z" style="fill:#d2a986"/><path d="M150.07,19.23l-2-.21,3.13-1.65a5.06,5.06,0,0,1,4-.63,1,1,0,0,1,.2,1,6.2,6.2,0,0,1-1.8,1.19,3.13,3.13,0,0,1-1.51.51l-.92,0C150.74,19.88,150.36,19.82,150.07,19.23Z" style="fill:#aa9378"/><path d="M154.53,28a3.69,3.69,0,0,0,0-.94l.15-1,1-.81c1.16.55,1.19,1.52,1,2.58.58.88-.05,1.2-.7,1.51A1.49,1.49,0,0,1,154.53,28Z" style="fill:#5c5142"/><path d="M150.07,19.23l1.13.18a8.82,8.82,0,0,1-1.62,4.78l-3,.75a2,2,0,0,0-.9-2.2,2.43,2.43,0,0,0,.05-.85C146.88,20.56,149.34,21.32,150.07,19.23Z" style="fill:#b38d63"/><path d="M137.29,29.06a5.8,5.8,0,0,1,0-.93c.07-1,.14-2,.2-2.95l1.22-1,1.89.29c.56.54,1.6.25,2,1.14,0,.28-.07.55-.11.83-2,0-3.88.25-4.34,2.73Z" style="fill:#837c74"/><path d="M142.51,25.64a2.21,2.21,0,0,1-2-1.14c1.25-1,2.33-2.4,4.26-1.64Z" style="fill:#c29971"/><path d="M295.46,15.29c.2,1.71-1.31,2.65-1.79,4.05-2.34-2,1.62-3.14.7-4.95Z" style="fill:#907c68"/><path d="M167.88,21.7l-.86.92c-1.89,1.16-1.17,3.6-2.49,5.05a2.18,2.18,0,0,1-1.56.25c-2.11-1.1-2.65-2.62-1.23-4.65-.25-1.92,1.88-1.57,2.52-2.65h2.67Z" style="fill:#2f251d"/><path d="M156.15,18.78l1.18-1.22,1.52.27c1.53-.65,3.08-1.71,4.46.25a1.4,1.4,0,0,1-.19,1.34l-3.18,1.71c-1.46.33-2.2,2.52-4.15,1.6A4.12,4.12,0,0,1,156.15,18.78Z" style="fill:#3e3a37"/><path d="M162.53,28.42c-1.37-1.11-2.94,0-4.38-.42.92-1.79.51-4.58,3.59-4.73-.12,1.75,0,3.37,1.85,4.28C163.77,28.5,163.39,28.74,162.53,28.42Z" style="fill:#50463f"/><path d="M163.22,18.36l1.08-.84a2.76,2.76,0,0,1,.94.15c-.14,1.37-.19,2.81-2.21,2.55,0-.27.07-.53.09-.8S163.19,18.71,163.22,18.36Z" style="fill:#6b6560"/><path d="M156.15,18.78a3.27,3.27,0,0,1-.36,3.95l-1,.93c-1-.66-.81-1.83-1.17-2.76a4.75,4.75,0,0,1-.43-2.38,2.08,2.08,0,0,1,2-.84Z" style="fill:#5a5244"/><path d="M154,20.54c1.09.83.76,2,.77,3.12-.39.29-.78.58-1.16.88l-.72-3.07C153.23,21.11,153.38,20.55,154,20.54Z" style="fill:#423826"/><path d="M154,20.54l-1.11.93-.78-2,1.06-.92C154,19,154,19.76,154,20.54Z" style="fill:#33230c"/></svg>