<svg xmlns="http://www.w3.org/2000/svg" viewBox="0 0 489.02 43.94"><path d="M45.43,22.17l-4.41.5C39.21,24.34,37,24,34.8,24.07c-.94-.08-1.88-.39-2.8.11a3.41,3.41,0,0,1-1.07.33c-2.24-.05-4.38.2-6.07,1.92-2,1.62-4,2.4-6.28.42a1.87,1.87,0,0,1-1.15-1.76A1.8,1.8,0,0,1,19,23.74c3.25.69,5.12-2.55,8-2.83,1.41-.57,2.65-1.62,4.28-1.64a7.22,7.22,0,0,0,4.84-1,17.59,17.59,0,0,1,2.79-1.19,10.31,10.31,0,0,0,1.5-1,5.33,5.33,0,0,1,1-.65,3.9,3.9,0,0,1,3.07,0c1.88.79,3.75-.21,5.63,0a2.54,2.54,0,0,1,1.69,1.06,2.56,2.56,0,0,1-.25,2,7.76,7.76,0,0,0-1.64,3.56A3.15,3.15,0,0,1,45.43,22.17Z" style="fill:#282215"/><path d="M191.52,22.55a25.43,25.43,0,0,0,10.21-.14,12.22,12.22,0,0,1,7.1,1.07,2.38,2.38,0,0,1,.75,2.79,2.6,2.6,0,0,1-1.83,1.11c-3.2-.66-6.15-3.87-9.71-1-1.36.23-2.73.06-4.09.26-3.5.15-6.61,2.17-10.16,2.14-3-4.32-2.71-4.89,3.07-5.92C188.41,22.7,189.93,22.13,191.52,22.55Z" style="fill:#aa9381"/><path d="M145.33,27.86a41.42,41.42,0,0,1-10.55.32c-2,.09-2.85-1.21-3.53-2.77a2.9,2.9,0,0,1-.1-1.34,4.67,4.67,0,0,1,3-3.28c1.16-.6,2.13-1.6,3.55-1.63,1.45.38,2,1.74,2.94,2.67,1.13,1.22,2.83,1.61,4,2.77C145.4,25.59,146.48,26.5,145.33,27.86Z" style="fill:#241d14"/><path d="M307.16,26.48c4.32-.36,8.55-2,13-.89a3.71,3.71,0,0,1-.22,1.95,2.12,2.12,0,0,1-.9.88c-1.25.48-2.3-.48-3.48-.51-1.09.28-1.17,1.35-1.62,2.13a5.76,5.76,0,0,1-1.24,1.54c-2.38,1.48-4.33,3.82-7.45,3.87-2.3-.74-1.42-2.61-1.5-4.14.91-2.43-3.46-2-2.45-4.44a8.73,8.73,0,0,1,1.42-.29C304.18,26.55,305.65,25.78,307.16,26.48Z" style="fill:#e3d5c6"/><path d="M78.35,3.92c6.3-1.14,12.57-1.81,18.59,1.28a1.49,1.49,0,0,1-.5,1.92C92.58,8.27,88.68,9.2,84.6,8.82c-1.83-.06-3.42-1.15-5.25-1.25-.9-.17-1.91-.16-2.29-1.27A2.41,2.41,0,0,1,78.35,3.92Z" style="fill:#726557"/><path d="M10.06,11.93l2.09-.64c2.16-.29,4.42.1,6.46-1a8.47,8.47,0,0,1,4.64-.51,2.83,2.83,0,0,1,1.07,2.64,6.56,6.56,0,0,1-1.05,2.73,13,13,0,0,1-2.73,3.36,2.66,2.66,0,0,1-2.07-.1c-2-.76-2.85-3.58-5.58-2.94a4.3,4.3,0,0,1-2.56-1C9.65,13.68,9.32,12.86,10.06,11.93Z" style="fill:#8e7764"/><path d="M108.83,19.67c-4.9-1.63-10.14-.52-15.09-1.83a1,1,0,0,1-1.32-.45c.28-3.72,3.56-3.16,5.81-4.08a11.55,11.55,0,0,1,4-.11c2.9.9,6,1.37,8.35,3.59C111.41,18.6,110.63,19.44,108.83,19.67Z" style="fill:#221e12"/><path d="M365.54,36.14c-8.49,1.06-17-.52-25.43-.3l-.34-.7c0-2,1.32-2.64,3-3,2-.18,3.91.48,5.88.12a10.13,10.13,0,0,1,1.46-.06c2.14.1,4.24.79,6.42.48a12.11,12.11,0,0,1,2.17,0,10.31,10.31,0,0,1,2.12.47,9,9,0,0,1,1.33.54C363.3,34.46,364.85,34.69,365.54,36.14Z" style="fill:#4a412e"/><path d="M18.39,17.53l1.84.59a1.15,1.15,0,0,1,1.26.57,3.55,3.55,0,0,1,0,2.21,3.9,3.9,0,0,1-1.27,1.75,12.77,12.77,0,0,1-5.56.56c-2.26-1.46-3.1,0-3.72,1.84-.57.46-1.15.85-1.76.05-1.09-.79-3-.32-3.4-2.17a2.7,2.7,0,0,1,.22-2,8.12,8.12,0,0,1,1.9-2,7.76,7.76,0,0,1,1.82-1C12.52,16.69,15.45,17,18.39,17.53Z" style="fill:#392f20"/><path d="M217,22.57A4.23,4.23,0,0,1,222,23.78a12.56,12.56,0,0,1,3.59,1.83,3.53,3.53,0,0,1,1.31,2.26,11.07,11.07,0,0,0-.36,3.76,1.76,1.76,0,0,1-.7,1.08,2.37,2.37,0,0,1-2,0c-1.57-2.05-3.41-2-5.4-.65a4,4,0,0,1-2,0,1.48,1.48,0,0,1-.89-1c-.39-2.22,3.54-3.08,1.78-5.73C216.79,24.51,215.77,23.69,217,22.57Z" style="fill:#6f6357"/><path d="M78.35,3.92l-1,2.78c-.27.9-1,1.7-.62,2.75-.66,1.41-2,2-3.26,2.61a8.66,8.66,0,0,1-1.68.67,6.81,6.81,0,0,1-1.18.22,2.79,2.79,0,0,1-1.18-.19,2.82,2.82,0,0,1-1-1.47,8.58,8.58,0,0,1-.64-3,3.72,3.72,0,0,1,.47-1.15,6,6,0,0,1,3.43-2.65Z" style="fill:#8c735c"/><path d="M341,24.77c4.35.06,8.7,0,12.95,1.17-.22,2.27-2.31,1.18-3.36,1.9.35,1.43.75,2.86-.76,3.89a9.23,9.23,0,0,1-3.5.37c-1.44,0-2.94.29-4.22-.67-1.61-2.33.71-2.61,1.83-3.52-2.12,1.23-2.93.05-3.36-1.83A1.94,1.94,0,0,1,341,24.77Z" style="fill:#cdb7a3"/><path d="M445.76,23.73l-1.93-.25c-.95.61-1.8-.09-2.69-.22-1.09-.16-1,.19-.36.8l-3.2.39c-1.13.22-2.16,1.32-3.42.4a3,3,0,0,1,.07-2.82,3.8,3.8,0,0,1,1.61-1.41c1.29-.48,2.69-.54,4-.94,3.29.25.7-3.7,3-4.17,2.7.27,5.24.89,7.08,3.11.58,2.67-2.74,1.9-3.2,3.64A2.14,2.14,0,0,1,445.76,23.73Z" style="fill:#4f453b"/><path d="M465,24l-3-.56a2.09,2.09,0,0,1-1.14-2.29,3.13,3.13,0,0,1,1.83-2,5.8,5.8,0,0,1,2-.24c.44,0,.88.05,1.32.1,2.43.5,4.58-.68,6.85-1.17a2.65,2.65,0,0,1,1.21.47c.92,1.55-.14,3-.23,4.49a2.27,2.27,0,0,1-.75,1.1,3.29,3.29,0,0,1-1.88.76C469.14,24.58,467.15,23.55,465,24Z" style="fill:#31281e"/><path d="M103.31,5.17c4.49,0,9-.43,13,2.4-.17,2.34-2.28,1.9-3.63,2.56a11,11,0,0,1-3.92.13c-.57-.09-1.13-.26-1.68-.4a3.2,3.2,0,0,0-1.53.17,3.09,3.09,0,0,1-1,.28,1.77,1.77,0,0,1-1-.53,7.4,7.4,0,0,1-.54-1,5.3,5.3,0,0,1-.76-2.21A1.72,1.72,0,0,1,103.31,5.17Z" style="fill:#9f8875"/><path d="M246.41,25.43c3-.52,5.74-2.36,8.91-1.14.59.27,1.26.44,1.45,1.19a2.2,2.2,0,0,1-1,1.62,5.49,5.49,0,0,1-3.66,1.15c-2-1-.45,1.86-1.75,1.61-1.7,1.68-3.73.54-5.61.69a15.27,15.27,0,0,1-3.31-.13c-1.1-.22-2.35-.18-2.72-1.61.79-1.69,2.5-1.82,4-2.36a5.35,5.35,0,0,1,1.33-.09,9.67,9.67,0,0,1,2.25.46c.64.19-.23.31.39.14.28-.08-.26-.33-.4-.53A1.12,1.12,0,0,1,246.41,25.43Z" style="fill:#cdb5a0"/><path d="M45.43,22.17,50,21.44c1.9-2.08,4.45-1.11,6.73-1.45a2.26,2.26,0,0,1,1.75,1.12c-1.42,2.4-2.35,4.7-6.33,3.06-2.06-.85-5.2.92-8,1.55C44.13,24.14,46.26,23.7,45.43,22.17Z" style="fill:#fafaf9"/><path d="M390.67,25.27a19.74,19.74,0,0,1,7.41-1.73,2.5,2.5,0,0,1,1.2,2.68c-.4,1.53,2.26,2.77.44,4.45a4.8,4.8,0,0,1-5.28.06c-.65-1.62-2.1-2.19-3.6-2.68C389.61,27.19,390.21,26.23,390.67,25.27Z" style="fill:#c8b49d"/><path d="M361.84,34.53l-1.21-.4c.68-2.44,2.9-1.52,4.46-2.05,2.25,0,4.5,0,6.75-.11a25.23,25.23,0,0,1,7.86,2,2.26,2.26,0,0,1,1.1,1.83,22.56,22.56,0,0,1-9.71.28c-1.73.62-3.27-.91-5-.45C364.67,35.28,363.13,35.41,361.84,34.53Z" style="fill:#5e5041"/><path d="M58.47,21.11,56.55,21c-.53-1.44.44-2.21,1.35-3,1.17-.68,2.62-.69,3.71-1.58,2.11-1.25,3.83,1.06,5.86.62a11,11,0,0,1,3.71.29c1.43.83,3.19,1.55,1.2,3.54C67.75,21.28,63.07,19.5,58.47,21.11Z" style="fill:#2b2716"/><path d="M444.49,13.43c1.69-1.16,3.42-.11,5.14-.09,2.63-.08,5.45-.68,6.89,2.5a1.94,1.94,0,0,1-.68,1.4c-4.6,2.29-9.46,1.05-11.6-3,1.29-.42,2.49.22,3.53.28C446.85,14.1,445.41,14.51,444.49,13.43Z" style="fill:#3b342b"/><path d="M393.89,30.1c2,0,4.08.94,6.06-.21a1.31,1.31,0,0,1,1.35.08c.88,1,1.38,2,.17,3.16l-.44.09-.44-.1c-2.28,1-4.87-.19-7.13,1a18.25,18.25,0,0,1-4.24.32c-.08-1.37-1.13-1.54-2.15-1.76a2,2,0,0,1,.29-2,6.76,6.76,0,0,1,3.23-1A5.43,5.43,0,0,1,393.89,30.1Z" style="fill:#7f6f5f"/><path d="M410.7,19.45a28.91,28.91,0,0,1,7.89-2.33c.17.12.35.23.53.34.9,1.41,2.44,2.27,3.18,3.8-.17,1.73-1.44,2.17-2.84,2.48a17,17,0,0,1-5.93-1.17C413.66,20.56,410.7,21.35,410.7,19.45Z" style="fill:#b39f8c"/><path d="M355,26c2.08-1.06,4.09,0,6.13.2a2.06,2.06,0,0,1,.23,1.4,13.85,13.85,0,0,1-1.7,4.09,7,7,0,0,1-6.52,1c-3-2.39-.85-3.53,1.14-4.69C355.8,27.82,354.09,26.42,355,26Z" style="fill:#cfbba6"/><path d="M34.65,23.56,41,22.67c1.24,3.06-2.17,3.37-3.23,5-.88,1.38-1.46-1-2.2-1.33-1.49-.69-3.73.46-4.66-1.86a.26.26,0,0,1,0-.44A4.3,4.3,0,0,1,34.65,23.56Z" style="fill:#fafaf9"/><path d="M473.51,14.33,482,14c.85-.43,1.09.19,1.35.78.28,1.25,1.32,2.2,1.43,3.52a2.56,2.56,0,0,1-1.32,2c-.95.41-1.89-.26-2.84,0a3.8,3.8,0,0,1-1.15-.28,8.76,8.76,0,0,1-2.55-1.55c-.49-.63-.86-1.34-1.4-1.93S473.79,15.4,473.51,14.33Z" style="fill:#75685b"/><path d="M53,6.64c3-2.42,6.46-1.27,9.77-1.22l.32.58c-.07,2.72-3.43.36-3.87,2.52-.77,1.55-1.7,2.9-3.66,3a5.13,5.13,0,0,1-4.17-2.86C51,7.21,51.92,6.88,53,6.64Z" style="fill:#91785e"/><path d="M374.2,26.47l4.09-.25c.59,2,3.06,3.19,2.56,5.7a2,2,0,0,1-1.55,1.13c-2.64-.34-5.15-1.23-7.77-1.7a2.1,2.1,0,0,1-.67-1.1,3.31,3.31,0,0,1,.35-1.88,2.93,2.93,0,0,1,.87-.85A11.3,11.3,0,0,0,374.2,26.47Z" style="fill:#c9b4a6"/><path d="M72.38,20.82c.6-2-1-2.4-2.27-3,.09-1.65,2.47-.36,2.57-2a2.71,2.71,0,0,1,1-.83c2.5-.74,4.87.14,7.26.6,1.61.72,1.3,2.34,1.71,3.63l-5.46.21c-1.45-.7-2.54-.05-3.53.95C73.39,21,73,21.18,72.38,20.82Z" style="fill:#3a3328"/><path d="M126.73,7.22c1.47-1.77.6-6,5-4.7.92-.14,1.12.48,1.23,1.19-.54,1.69.17,3.54-.63,5.21a4.65,4.65,0,0,1-2,1.77,2.31,2.31,0,0,1-1.32-.21C127.76,9.72,127.61,8.22,126.73,7.22Z" style="fill:#927561"/><path d="M241.79,36.06c-1.5.69-2.86.14-4.2-.5-1.69-.84-3.62-.56-5.38-1.14a1.71,1.71,0,0,1,.11-1.38,6.6,6.6,0,0,1,4.62-1.92,45.42,45.42,0,0,0,6.37,1c1.66.32,3.43,0,5,.82a1.53,1.53,0,0,1,.47,1.31,3.16,3.16,0,0,1-2.48,1.27C244.85,36.11,243.15,34.62,241.79,36.06Z" style="fill:#5e4c3e"/><path d="M304.42,31.08c.86,1.19-.79,3,.91,3.93a1.69,1.69,0,0,1,.23,1.18,5.53,5.53,0,0,1-.93,1.59,11,11,0,0,1-6.37-.94c.36-1.07,1.95-1.51,1.51-3-.25-1.09-.87-2.23.4-3.11C301.65,30.08,303.11,29.71,304.42,31.08Z" style="fill:#b4a79b"/><path d="M155.57,17.4l2.25,1.72c.7,1.74-.64,2.61-1.56,3.67a3.75,3.75,0,0,1-2.18.46c-1.88-.33-3.66-.79-4-3.13a3.34,3.34,0,0,1,.37-1.58C151.87,16.75,153.53,16.2,155.57,17.4Z" style="fill:#927763"/><path d="M340.11,35.84c-.31,1.62.57,4.18-1.81,4.38-2.05.17-4.81.22-5.64-2.78a1.23,1.23,0,0,1,.14-1.25c1.62-1.51,3.88-.38,5.64-1.35a1.94,1.94,0,0,1,1.77.77Z" style="fill:#917f6a"/><path d="M142.49,18.27c1.93-.34,2.34-3.31,4.78-2.76a6.55,6.55,0,0,1,1,.79,2.49,2.49,0,0,1,.61,1.85c-.5,1.72-1.83,2.62-3.3,3.4a6.88,6.88,0,0,1-4.29.44,3,3,0,0,1-1.7-1.33C139.23,18.25,141.7,19.26,142.49,18.27Z" style="fill:#bea388"/><path d="M278.26,35.48c-.35,1.48-1,3.28-2.75,2.07-2.17-1.5-4.69-.76-6.83-1.77.81-1.69,2.69-1.55,4-2.36a7.13,7.13,0,0,1,2.38-1.05c.93.5,1.89-.4,2.83.06a2.76,2.76,0,0,1,.71,1.77A5.17,5.17,0,0,1,278.26,35.48Z" style="fill:#4a3f31"/><path d="M321.41,35.57l-2.07.28c-1-.46-1.92-.93-1-2.24a5.06,5.06,0,0,1,2-1,46.29,46.29,0,0,1,6.62-.85,6.3,6.3,0,0,1,1.37.13c1.58.09,1.91,2.24,3.59,2.18a1.61,1.61,0,0,1,.95,1.54c-.2.72-.56,1.19-1.41.87l-1.93,0a5.27,5.27,0,0,0-1.16-.52C326,36.5,323.77,34.84,321.41,35.57Z" style="fill:#645749"/><path d="M214.89,34.87l.05-.16c-1.57.47-2.42,2.29-4.25,2.31a2.42,2.42,0,0,1-2.36-2l.75-1.48c-.47-1.69-.79-3.39.09-5.06.69-.61,1.29-.37,1.87.17.65,2.4,2.71,2.47,4.62,2.79l.63.18C217.17,33.31,216,34.06,214.89,34.87Z" style="fill:#8f7c68"/><path d="M53,6.64,51.43,8.13a1.16,1.16,0,0,1-.08,1.23c-1.58,1.21-3.07,2.53-4.71,3.66a2,2,0,0,1-1.27-.38,3.52,3.52,0,0,1-.68-3.17c.23-1.28,1.36-2.05,1.85-3.19C48.71,6,50.9,5.26,53,6.64Z" style="fill:#6e5d4e"/><path d="M18.65,26.32c2.05,1.26,4.13.74,6.21.11.09,2.48-1.37,4.33-3.51,4.36a3.12,3.12,0,0,1-3.15-3.91c-.16-.34-.15-.54,0-.59A.59.59,0,0,1,18.65,26.32Z" style="fill:#faf9f8"/><path d="M425,26.34c-2.43,3.55-6.38,2.44-9.73,3.19a1.83,1.83,0,0,1-.07-2.05c2.23-2.17,5.22-2.42,8-3.16a2.75,2.75,0,0,1,2,.72A1,1,0,0,1,425,26.34Z" style="fill:#251e12"/><path d="M37.78,7.65c.83.13,1.69.48,2.36-.36,1.13-.36,1.74.25,2.22,1.15a5.6,5.6,0,0,1,.3,2.72,33.29,33.29,0,0,1-1.35,3.78,5,5,0,0,1-.8,1.08,2.45,2.45,0,0,1-1.85.7,2.42,2.42,0,0,1-1.61-2c.29-2,1-3.92.13-5.91A1.19,1.19,0,0,1,37.78,7.65Z" style="fill:#b39c89"/><path d="M187,33.37c-2.82.2-5.75,1.73-8.37-.66-.52-2,1.1-2.18,2.29-2.74a11.65,11.65,0,0,1,3.95-.22,5.19,5.19,0,0,1,2.78,1.14C188.47,32,187.68,32.68,187,33.37Z" style="fill:#3a3229"/><path d="M160.5,32c-2.47-.64-5.26.17-7.47-1.64a1.33,1.33,0,0,1-.31-1.4c2.65-2.39,5.52-2,8.46-.67a2.6,2.6,0,0,1,.71,2.08A2.14,2.14,0,0,1,160.5,32Z" style="fill:#473d33"/><path d="M407.5,21.63l.94-.79a2.72,2.72,0,0,1,1.24,2.23,23.2,23.2,0,0,1-.54,3.89,4,4,0,0,1-2.05,2.62,2.41,2.41,0,0,1-2-.45,9.8,9.8,0,0,1-1.67-4.7,3.3,3.3,0,0,1,.34-1.38C404.62,21.58,406.53,22.85,407.5,21.63Z" style="fill:#a99683"/><path d="M326,25.22c2.71.68,5.39,0,8.08-.23a2.93,2.93,0,0,1,1.19,1.76,3.13,3.13,0,0,1-.31,2c-2,.9-4.15-.86-6.13.39a3.39,3.39,0,0,1-1.27,0,21,21,0,0,1-3.37-1.81C323.56,25.64,325.19,25.8,326,25.22Z" style="fill:#c4a98c"/><path d="M446.16,21.88c-.48-.39-1.33-.76-1.36-1.18,0-.8.81-.87,1.48-.82,1.13.09,2.31.53,3.27-.49,1.86-1,3.11-.23,4.07,1.4A2,2,0,0,1,453,23a2.59,2.59,0,0,1-.92-.07C450,23.16,448,23.2,446.16,21.88Z" style="fill:#50453b"/><path d="M267,35.76c-2.07.38-4.14,1.2-6.22.05a9.39,9.39,0,0,1,1.25-2c.22-1-.19-2.06.64-2.88a3.29,3.29,0,0,1,2.53-.53,4.34,4.34,0,0,1,2.85,1.8,3.14,3.14,0,0,1,.29,2C268.14,35,267.49,35.3,267,35.76Z" style="fill:#988c80"/><path d="M440.11,20.77l-4,.34a2.67,2.67,0,0,1-.7-1.76c.26-1.78-.9-3.11-1.51-4.62-.05-1.11.72-1.48,1.6-1.75l1,.21a10.3,10.3,0,0,0,.94.81c.82.66,1.71,1.23,2.58,1.83C441.73,17.43,440.61,19.1,440.11,20.77Z" style="fill:#706051"/><path d="M181.6,30.86c-1.14.41-2.58.31-3,1.85a.84.84,0,0,1-.82-.14c-1.23-1.39-3.23-1.3-4.64-2.38a2.52,2.52,0,0,1-.32-1.37c1.38-2.81,3.9-1.46,6-1.67a5.09,5.09,0,0,1,3.47,1.28C183.06,29.52,182.61,30.27,181.6,30.86Z" style="fill:#7b6c5e"/><path d="M423.89,14.48a2.63,2.63,0,0,1,2.39-1.15A4.75,4.75,0,0,1,429,17a3.16,3.16,0,0,1-2.5,2.21,13.44,13.44,0,0,1-2.82.42c-1.27-.13-2.43-.4-2.55-2C421.69,16.29,423.52,16,423.89,14.48Z" style="fill:#b79f8a"/><path d="M484.33,18.25c-.12-1.29-3-1.15-1.64-3.22,1.46-1.15,2.92-1.88,4.42,0A9.31,9.31,0,0,1,489,19.31C487.17,20.24,485.57,20.05,484.33,18.25Z" style="fill:#baa692"/><path d="M318.1,34.12l1.24,1.73-8.84.59a1.36,1.36,0,0,1-.51-1.39,5.86,5.86,0,0,1,3.93-2.51C315.58,32.34,317.19,32.32,318.1,34.12Z" style="fill:#3d372a"/><path d="M217,22.57l1.26,2.6c-.84,1.27-2.14,1.47-3.51,1.51a8,8,0,0,1-4.94-2.21,1.08,1.08,0,0,1,0-1.42C212,21,214.6,23.41,217,22.57Z" style="fill:#d7bfa2"/><path d="M153.05,28.45c0,.62,0,1.24,0,1.87l-4.94-1.67c-.67-.6-1.69-.83-1.93-1.87a2.53,2.53,0,0,1,.22-1.36c1.81-2,3.64-1.69,5.48,0A3.69,3.69,0,0,1,153.05,28.45Z" style="fill:#5b4f45"/><path d="M278.26,35.48l-.37-1c.5-1.23,2.36-1.68,1.95-3.44a3,3,0,0,1,.26-1.24,4.07,4.07,0,0,1,1-.84c1-.48,2-1,3.2-.61a5.32,5.32,0,0,1,1.59,2.83c.31,1.32-1.08,1.59-1.52,2.45C282.68,35.43,280.38,35.15,278.26,35.48Z" style="fill:#c7b4a4"/><path d="M208.33,35.05l2.25,1.29c.73,1.73-1.56,1.3-1.71,2.4L207.2,41c-2.2.22-3.15-.66-2.54-2.9Z" style="fill:#5c4e43"/><path d="M360.85,27.13c.07-.32.15-.64.23-1l5.11.06c.9.7,2,1.26,1.9,2.66a2.08,2.08,0,0,1-.88,1.08,5.88,5.88,0,0,1-5,.22C361.09,29.47,360.21,28.63,360.85,27.13Z" style="fill:#baa390"/><path d="M484.33,18.25,489,19.31c-.8,3.75-4.1,3.05-6.63,3.74a2,2,0,0,1,.51-2.84Z" style="fill:#6e6156"/><path d="M206.17,33.71a8.73,8.73,0,0,0-5.79-.27c-.56,0-.74-.36-.59-.88.91-1,2.94-1.13,2.6-3.19a3.55,3.55,0,0,1,4-1.15C209.64,30.19,208.15,32,206.17,33.71Z" style="fill:#423a2f"/><path d="M293.32,36.68c-.08.83-.52,2.64-1.19,1-1.3-3.26-4-3.25-6.46-4.15a3.61,3.61,0,0,1,1.93-1.89,4.76,4.76,0,0,1,1.4-.17c1.88.31,3.86.37,5.27,2C294.92,34.76,294.23,35.75,293.32,36.68Z" style="fill:#7e7b76"/><path d="M217.91,31.38c2.49-2,5-4.32,6.17,1.12-.31.83-1.39.61-1.8,1.31l-2,.15C219.32,33.26,216.86,33.93,217.91,31.38Z" style="fill:#3a362a"/><path d="M282.59,24.67l5.48,1.09a1.64,1.64,0,0,1-.69,1,19.18,19.18,0,0,1-2.93,1.11l-1.25.33a12.27,12.27,0,0,1-4-.09,2.4,2.4,0,0,1-1.8-1.13,1.68,1.68,0,0,1,.52-2.06C279.46,24.73,281,24,282.59,24.67Z" style="fill:#a79f8b"/><path d="M143.53,17.34l.76,1.27a3,3,0,0,1-2,.48,25.64,25.64,0,0,1-3.48-.43,3.76,3.76,0,0,1-2.51-2.35,2.66,2.66,0,0,1,.35-2,2.37,2.37,0,0,1,1.89-.75l3.79,1.33C141.8,16.13,143.18,16.48,143.53,17.34Z" style="fill:#8f7963"/><path d="M405.22,28.91l2,.21a.85.85,0,0,1,1.15.14c.33,1.39-.87,1.89-1.56,2.69l-5.31,1.18c-.17-1-.33-2-.49-2.94a2.68,2.68,0,0,1,1.89-1.6C403.69,28.41,404.54,28.06,405.22,28.91Z" style="fill:#726556"/><path d="M103.31,5.17l-.57,1.89a9.4,9.4,0,0,1-3,2.6,2.89,2.89,0,0,1-3.39-2c0-.24,0-.48,0-.73.2-.58.41-1.15.61-1.73C99.06,5,101.18,3.79,103.31,5.17Z" style="fill:#ad937d"/><path d="M206.17,33.71c-.4-1.61,2.54-2.92.44-4.69a1.83,1.83,0,0,1,.8-2.23l1.81-.45a1.5,1.5,0,0,1,.37,2c-.18,1.74,1.45,3.66-.51,5.23Z" style="fill:#312517"/><path d="M245.43,34.87l3.21-.71c2.13-2,4.65-2.11,7.32-1.51a1.39,1.39,0,0,1,.9,1.3c-1,2.36-3.58.71-5.05,1.91-2.73.44-5.45,1-8.2.15C243.9,35.14,245,35.47,245.43,34.87Z" style="fill:#3d3429"/><path d="M138.44,2.16c.45,3-1.05,5.77-1.2,8.7-.67.8-1.42,1.09-2.33.37a5.37,5.37,0,0,1-.49-1.28c-.29-1.59-.91-3.19.12-4.75S136.58,2.46,138.44,2.16Z" style="fill:#382f24"/><path d="M225.3,26.15c-1.7,0-2.35-1.36-3.29-2.37,3.05.57,6-1.61,9-.39l-.09.19a1.34,1.34,0,0,1,.66,1.58c-.85,1.11-2.21.74-3.3,1.16C227.31,26.4,226.31,26.12,225.3,26.15Z" style="fill:#d4b989"/><path d="M112.39,9.5l3.93-1.93a4,4,0,0,0,.82.21c.12,1.12.52,2,1.84,1.9a3.16,3.16,0,0,1,0,2A3.68,3.68,0,0,1,118,13.3c-1.37.68-2.45-.24-3.63-.65C113.27,11.86,112.29,11,112.39,9.5Z" style="fill:#665a4f"/><path d="M456.14,16.48c-1-3.42-4.3-2.18-6.51-3.14,2.36-.88,4.67,0,7,.16,1-.48,1.89-.08,2.82.13a3,3,0,0,1,1.38,1.6,1.89,1.89,0,0,1-1.17,2.22A6.84,6.84,0,0,1,456.14,16.48Z" style="fill:#4f433b"/><path d="M380.42,31.44c.12-2.08-4.36-2.28-2.13-5.22l2.77.34a1.5,1.5,0,0,1,1.26,0A11.1,11.1,0,0,1,384,30.16a1.94,1.94,0,0,1-.46,1.26C382.52,32,381.47,32.58,380.42,31.44Z" style="fill:#cab6a3"/><path d="M204.66,38.06c.54,1.23.93,2.6,2.54,2.9-.18,1.8-1.25,3.75-2.87,2.68C202.15,42.22,202.52,39.82,204.66,38.06Z" style="fill:#c8c5bd"/><path d="M164.12,21.37l1-.46,4-.12c.12.61.25,1.21.37,1.81-2,1.58-4.76,1.94-6.39,4.09a1.89,1.89,0,0,1-1.32.16c-1.77-1.5-2-3,0-4.52C162.47,21.88,163.5,22.14,164.12,21.37Z" style="fill:#b79e8c"/><path d="M296,26.93l.86.72a1.32,1.32,0,0,1,.87.92c-.22,2.81-3.29,1.89-4.49,3.44-1.68.32-3.33.43-4.78-.76a1.64,1.64,0,0,1-.28-1.36c.95-1.22,2.46-1.46,3.72-2.14A11.75,11.75,0,0,1,296,26.93Z" style="fill:#dac9ab"/><path d="M404.14,23.62c-.06.32-.11.63-.16.95a.9.9,0,0,1,.2.79c-.07.28-.14.41-.2.4a9.61,9.61,0,0,1-4.34,1.48,1.45,1.45,0,0,1-1.1-.59c-.16-1-.31-2.08-.46-3.11l4.42-1C403.14,22.77,403.82,22.92,404.14,23.62Z" style="fill:#baa792"/><path d="M14.55,22.77c1.81-.38,3.51-1.72,5.48-.56a1.5,1.5,0,0,1-.93,2l-1.21.57a11.47,11.47,0,0,1-2.61,2.1l-1.11.06a3.17,3.17,0,0,1-.61-3.24A1.82,1.82,0,0,1,14.55,22.77Z" style="fill:#817465"/><path d="M14,23.55c.05,1.12.09,2.24.13,3.36-2.65,2.11-4.2,1.15-5-1.81l1.68-.71C11.72,23.46,12.64,22.56,14,23.55Z" style="fill:#2f2414"/><path d="M459.5,14.25l-2.86-.75A69.86,69.86,0,0,1,470.8,14a1,1,0,0,1-.42,1.36,6.51,6.51,0,0,1-2.33.63C465,16.4,462.09,16.12,459.5,14.25Z" style="fill:#897a6d"/><path d="M138.44,2.16,135,5.87c-1,.08-1.23-.59-1.42-1.34,0-1.47,0-3,1.11-4.16C136.69-.6,137.72.45,138.44,2.16Z" style="fill:#605649"/><path d="M409.33,23.48c-.88-.68-.83-1.67-.89-2.63.35-1.13,1.26-1.33,2.26-1.39.61,1.25,3.25.41,2.83,2.73C412.73,24.57,411.08,24.19,409.33,23.48Z" style="fill:#a08c7a"/><path d="M333.65,26.34l.27-1.86c2.37.31,4.78-.62,7.12.29l-.18.87-.35.51A8,8,0,0,1,338,28C336.08,28.66,334.44,28.61,333.65,26.34Z" style="fill:#dbc6b1"/><path d="M158.73,19l2.42,1.6c-.06.82-3.5.8-.59,2.37-.83,1.19-1.38,2.74-3.27,2.64-1.59-.64-1.83-1.73-1-3.15-.35-1.53,1-2.26,1.56-3.37C158.12,19.08,158.42,19.05,158.73,19Z" style="fill:#b49780"/><path d="M382.26,26.84l-1.2-.28c3-1.93,6.4-.9,9.61-1.29.95.84-.14,1.32-.35,2C387.57,28.55,384.84,29.17,382.26,26.84Z" style="fill:#b8a891"/><path d="M41.63,8.9c-.08-.92-.85-1.21-1.49-1.61,2-1.49,4.19-1.18,6.4-1,1,1.39-.77,2-.85,3.07C44.26,9.94,42.8,10.68,41.63,8.9Z" style="fill:#594c41"/><path d="M434.88,24.72l2.7-.27c-1.48,1.4-.18,7.22-5.07,3.17a2.38,2.38,0,0,1,0-1.47C433,25.22,433.67,24.49,434.88,24.72Z" style="fill:#82756b"/><path d="M293.32,36.68l.5-3.39a1.86,1.86,0,0,1,1.78-.71c1.51.83,3.64.21,4.75,2,0,2.16-2.13,1.16-3,2.07Z" style="fill:#71675c"/><path d="M68.49,7.79c-.11.31-.23.61-.34.91a2.67,2.67,0,0,1-2.06.36,5.29,5.29,0,0,1-2.54-1.25,3.48,3.48,0,0,1-.74-2l-.07-.43c1.7.09,2.95-2,4.84-1C68.16,5.47,69.74,6.25,68.49,7.79Z" style="fill:#927c6f"/><path d="M118.16,11.84l.61-2c.59-.78,1.77-.16,2.34-1,.18-.68.57-.6,1-.28,1.18.76,2.75.87,3.6,2.18a1.6,1.6,0,0,1-.2,1.36,15,15,0,0,1-4.14,1.2A3.33,3.33,0,0,1,118.16,11.84Z" style="fill:#817364"/><path d="M8.25,19.43C8,20.21,7.78,21,6.82,21.21c-1.59-.1-3.52.16-2.71-2.52l.7-1.24a2.51,2.51,0,0,1,2.13-1.3C9.09,16.56,9.2,17.78,8.25,19.43Z" style="fill:#947969"/><path d="M4.11,18.69c.12,1.69,1.59,1.91,2.71,2.52L5.74,22.93c-1.3-1.1-3.72.64-4.5-1.77C1,20,.89,18.85,2.53,18.6Z" style="fill:#8b6f58"/><path d="M296,26.93a5.7,5.7,0,0,1-3.79,1.57c-.6.61-1,.18-1.44-.24-1.1-.89-2.59,0-3.71-.8a1,1,0,0,1-.38-.75c0-.28,0-.43.09-.44l1.31-.51C290.85,25.22,293.54,25.29,296,26.93Z" style="fill:#a38c74"/><path d="M131.59,24.69l3.19,3.49c-3.26.75-5.37-1.4-7.69-3C128.37,22.85,130,24.23,131.59,24.69Z" style="fill:#3f3831"/><path d="M326,25.22l-1.67,2c.33,2-1.41,1.32-2.28,1.78a3.23,3.23,0,0,1-1.16,0,2.13,2.13,0,0,1-.91-.68,2.29,2.29,0,0,0-.72-1.48l.91-1.28Z" style="fill:#bc9f86"/><path d="M387.25,32.67c1-.05,2.17-.4,2,1.32.3.45-2.92.65-.1,1.29-1.05.82-2.18.57-3.32.27-1.22-.82-3.21,0-3.94-1.86C383.31,31.49,385.14,31.37,387.25,32.67Z" style="fill:#5d5041"/><path d="M355,26c.21,1.47,2.09-.08,2.22,1.19,0,.31-1,.71-1.49,1.07-2.88.91-5.44,0-7.92-1.39,1.85-1.81,4.37.87,6.23-.9A2,2,0,0,1,355,26Z" style="fill:#ceb8a1"/><path d="M108.83,19.67l1.87-2.27c2-1.63,3.11-.29,4.06,1.35a1.27,1.27,0,0,1-.63,1.21C112.31,20.87,110.57,20.23,108.83,19.67Z" style="fill:#352d24"/><path d="M92.63,17.37l1.11.47a5,5,0,0,1-4.48.5c-1.28.35-2-.25-2.25-1.45a2.73,2.73,0,0,1,.85-2.08,2.07,2.07,0,0,1,1.46-.3A5,5,0,0,1,92.63,17.37Z" style="fill:#2b251b"/><path d="M435.46,13l-1.32,1.7c.49,1.37,1.78,2.64.49,4.21a2.13,2.13,0,0,1-2.19-.13,3.36,3.36,0,0,1-.78-1.34c-.35-1.54-.62-3.07.6-4.4C433.32,12.15,434.39,12.68,435.46,13Z" style="fill:#867666"/><path d="M123.22,23.08l-.4-.08-.2-.34c-.3-.57-.88-1-.85-1.73a15.32,15.32,0,0,1,1.35-3.08,3.37,3.37,0,0,1,2-2c1.79.88,1.36,2.54,1.45,4a5.83,5.83,0,0,1-.68,2.31C125.17,23.09,124.52,24.1,123.22,23.08Z" style="fill:#2f281d"/><path d="M482.9,20.21l-.51,2.84-2,.81a1.48,1.48,0,0,1-2.27-.61,2.27,2.27,0,0,1,.15-1.34,4.37,4.37,0,0,1,2.64-2.06C481.78,18.87,482.26,20,482.9,20.21Z" style="fill:#5f5449"/><path d="M23.54,12.11l-.29-2.33A2.8,2.8,0,0,1,26.77,9a.77.77,0,0,1,1.17.47,3.33,3.33,0,0,1-1.77,3.14C25.17,13.07,24.23,13.23,23.54,12.11Z" style="fill:#8a7763"/><path d="M82.63,19.22c-1.68-.28-.73-1.88-1.34-2.69a1.62,1.62,0,0,1,0-1.31,1.8,1.8,0,0,1,1.78-.73,4,4,0,0,1,2.46,2.13c.29.93-.55,1.58-.59,2.43A2.09,2.09,0,0,1,82.63,19.22Z" style="fill:#2d261b"/><path d="M310.23,35.37l.27,1.07c-1.71,1.54-3.86,1.13-5.87,1.34-.11-.76-.26-1.54.61-2C306.84,35,308.43,33.83,310.23,35.37Z" style="fill:#3c3228"/><path d="M297.27,28.79l-.42-1.14c.79-3.51,3.18-1.76,5.1-1.55.36.19.49.41.41.65s-.17.36-.28.38l-.93.3a2.68,2.68,0,0,1-2.63,1.93A2.4,2.4,0,0,1,297.27,28.79Z" style="fill:#b6a185"/><path d="M478.39,22.49a2.2,2.2,0,0,0,2,1.37c-.3,1.43-1,2.07-2.51,1.38-1.35-1.17-3.44-.31-4.71-1.7.05-.32.1-.64.16-1a3.69,3.69,0,0,1,2.54-1.28A2.52,2.52,0,0,1,478.39,22.49Z" style="fill:#3a3028"/><path d="M415.64,27.66c-.12.62-.23,1.25-.34,1.87l-5.25,1.27-.37-.62a4,4,0,0,1,2-3.65,4.19,4.19,0,0,1,1.45-.27A2.85,2.85,0,0,1,415.64,27.66Z" style="fill:#4a3f32"/><path d="M461.35,21.5l.65,2-7-.18c-.7-1.29.06-1.91,1.11-2.4C457.9,20.61,459.71,20.32,461.35,21.5Z" style="fill:#241b12"/><path d="M173.41,30.15c2.1-.35,4.22-.75,4.35,2.42l-1.62.5a2.44,2.44,0,0,1-2.78-.74A2,2,0,0,1,173.41,30.15Z" style="fill:#493f35"/><path d="M147.54,16.49l-.27-1,3.58-3.44a2.31,2.31,0,0,1,1.66,1,3.19,3.19,0,0,1,.15,1.37A3.28,3.28,0,0,1,151,16.69,4,4,0,0,1,147.54,16.49Z" style="fill:#61584e"/><path d="M187,33.37l.79-2a2.87,2.87,0,0,1,3.45-1.11c1.52.87,1.35,2,.56,3.29l-.63.46Z" style="fill:#20190e"/><path d="M123.22,23.08a2.79,2.79,0,0,0,2.09-1.73,2.2,2.2,0,0,1,3.15-.25,2.32,2.32,0,0,1,.51,2.5c-.91.54-2.06.5-2.89,1.23A3.24,3.24,0,0,1,123.22,23.08Z" style="fill:#504137"/><path d="M393.06,33.7c2.41-1.54,5-1.11,7.53-.58-1.35,1.84-3.13,1.92-5.1,1.22A2,2,0,0,1,393.06,33.7Z" style="fill:#3e3521"/><path d="M428.65,16.78a6.81,6.81,0,0,1-2.37-3.45,5,5,0,0,1,4.1-.35,2.52,2.52,0,0,1,.13,2.77A2.23,2.23,0,0,1,428.65,16.78Z" style="fill:#a7917f"/><path d="M263.64,34.33c-.37,1.63-2,.82-2.86,1.48l-2.87.06a1.6,1.6,0,0,1-.71-1.15,2.81,2.81,0,0,1,.5-1.27C260.15,30.52,261.68,33.91,263.64,34.33Z" style="fill:#2e2518"/><path d="M147.54,16.49l3.76-.57c1.38-.3,2.76-.56,4,.48l.29,1c-1.67.22-3.36.38-4.75,1.48a4.39,4.39,0,0,1-2.46-1.28Z" style="fill:#4b4134"/><path d="M27.68,9.29l-.45-.17L26.77,9c1.61-2.06,3.87-.65,5.78-1.09,1-.19.94.42.89,1.07a3.3,3.3,0,0,1-1.38,1.26,5.21,5.21,0,0,1-1.82.56A3.84,3.84,0,0,1,29,10.61,2.28,2.28,0,0,1,27.68,9.29Z" style="fill:#706256"/><path d="M429.84,15.93l.54-2.95,1.88,0,.33,4.44C431.16,17.87,429.73,18.29,429.84,15.93Z" style="fill:#948675"/><path d="M173.69,32.09l2.45,1a5.83,5.83,0,0,1-6.39.65,2.28,2.28,0,0,1,1.12-1.83A2.64,2.64,0,0,1,173.69,32.09Z" style="fill:#73695c"/><path d="M487.11,15a6.83,6.83,0,0,0-4.42,0c-.24-.35-.47-.71-.7-1.06,1.25-1.38,3-1,4.53-1.09S488.49,13.81,487.11,15Z" style="fill:#a19281"/><path d="M68.49,7.79c-.19-1.15-1.56-2-.91-3.37,1.38-.14,2.78-.57,4.14.11C70.54,5.52,70.13,7.26,68.49,7.79Z" style="fill:#827467"/><path d="M393.06,33.7l2.43.64a12.73,12.73,0,0,1-6.37.94l-1.16-1,1.26-.32Z" style="fill:#322b1b"/><path d="M10.06,11.93l.28,1.62c.34,1.38-.28,2.09-1.6,2.33a2.22,2.22,0,0,1-2-1.26C7.32,13.09,7.57,11.12,10.06,11.93Z" style="fill:#b4a496"/><path d="M321.41,35.57c2.64-1.77,5.3-.71,8-.07-1.5,1.25-3.22,1.15-5,.85Z" style="fill:#20190e"/><path d="M382,33.79c1.28.58,3.07,0,3.82,1.76l-5,.22L380,34.59a1.56,1.56,0,0,1,1-1.2A1,1,0,0,1,382,33.79Z" style="fill:#30271a"/><path d="M232.33,33.37l.16,1.08c.35.13.49.28.4.48s-.18.29-.29.3a11.32,11.32,0,0,1-5.27-.86A1.15,1.15,0,0,1,227,33a3.08,3.08,0,0,1,2.74-1A3.7,3.7,0,0,1,232.33,33.37Z" style="fill:#54493b"/><path d="M208.87,38.74l1.71-2.4,4.36-1.63C213.56,37,211.7,38.61,208.87,38.74Z" style="fill:#191306"/><path d="M209.59,28.34c-.13-.67-.25-1.33-.37-2l-.39-2.86.92-.43c.15.44.3.89.46,1.34,1.16,1.35,2.48,2.6,2.85,4.47-.45,1.87-1.32,1.57-2.35.46Z" style="fill:#af987f"/><path d="M170.7,32.51l-.95,1.21c-1.95.29-3.63-.6-5.37-1.22a2.17,2.17,0,0,1,1-1.09,5.48,5.48,0,0,1,1.42-.51,5.57,5.57,0,0,1,3.69.3A.93.93,0,0,1,170.7,32.51Z" style="fill:#494137"/><path d="M134.69.37a7.07,7.07,0,0,1-.39,4.19,1.31,1.31,0,0,1-1.87-.68l-.7-1.36A3.11,3.11,0,0,1,134.69.37Z" style="fill:#50463a"/><path d="M155.28,16.4c-1.36.07-2.79.81-4-.48l.92-1.94c1.15-1.06,2-.17,2.81.49Z" style="fill:#2b231d"/><path d="M122.06,21.43l.56,1.23L114.13,20l.33-1.23c1.78-.94,3.41-.15,5.06.42A4.39,4.39,0,0,1,122.06,21.43Z" style="fill:#2b221b"/><path d="M125.63,11.12c-1.26-.74-3.25-.47-3.5-2.58l4.11.49a.91.91,0,0,1,1.05.54,1.46,1.46,0,0,1-.39,1.21A2.12,2.12,0,0,1,125.63,11.12Z" style="fill:#423c30"/><path d="M33.09,8.94l-.54-1c1.71-.85,3.43-1.28,5.23-.25-.06.33-.13.67-.19,1C36.17,10.05,34.73,11,33.09,8.94Z" style="fill:#7c6d5b"/><path d="M217.91,31.38c.12,1.48,1.68,1.64,2.38,2.58l-5.4.91c.47-1.07.93-2.15,1.4-3.22Z" style="fill:#261a0b"/><path d="M199.71,32.84a4.8,4.8,0,0,1,.67.61c-3.07.58-6.09,1.76-9.26.52l-.15-.31C193.76,32.07,196.57,30.67,199.71,32.84Z" style="fill:#e3e1de"/><path d="M423.89,14.48a2.93,2.93,0,0,1-2.43,3c-1,1.18-1.91,1.36-2.74-.15l-.13-.23C420,15.51,422.19,15.5,423.89,14.48Z" style="fill:#b39f8c"/><path d="M436.33,14c0-.26.08-.53.13-.79,2-.86,4.05-.23,6.07.1a1,1,0,0,1-.39,1.17,6,6,0,0,1-2,.59A4.5,4.5,0,0,1,436.33,14Z" style="fill:#4b3f33"/><path d="M18.61,10.29c-1.92,1.88-4.17,1.54-6.46,1C14.17,10.13,16.39,10.2,18.61,10.29Z" style="fill:#edeae5"/><path d="M465,24c2.46-1.37,4.88.43,7.33.11a.68.68,0,0,1,.85.54Z" style="fill:#393026"/><path d="M84.93,19.05c-1-.95,0-1.47.48-2.1.66-.69,1.35-1.16,2.21-.26.14,1,.85,1.35,1.64,1.65A5.72,5.72,0,0,1,84.93,19.05Z" style="fill:#160f03"/><path d="M135.15,11.18l2.09-.32a3.79,3.79,0,0,0,1.29,2.66l-1.26.6a2.45,2.45,0,0,1-2.93-.83A1.79,1.79,0,0,1,135.15,11.18Z" style="fill:#5f5648"/><path d="M367.79,28.34l-1.6-2.11,3.63.27c1.2.23,3.17-.88,3.05,1.71-.31,0-.62-.08-.93-.14A4.12,4.12,0,0,1,367.79,28.34Z" style="fill:#aa9a8d"/><path d="M446.16,21.88l5.9,1c-2,1.28-4.16.8-6.3.83Z" style="fill:#1d1408"/><path d="M139.81,20.5c-1.18,0-3,.89-2.2-1.66l4.88-.57Z" style="fill:#937e60"/><path d="M227.21,33.19l.12,1.18-5.05-.56a1.94,1.94,0,0,1,1.8-1.31l1.9-.12A1,1,0,0,1,227.21,33.19Z" style="fill:#373025"/><path d="M121.11,8.82a1.83,1.83,0,0,1-2.34,1c-1.33,0-2.24-.41-1.63-2C118.92,6.37,119.88,8.12,121.11,8.82Z" style="fill:#443a30"/><path d="M404.14,23.62l-1.64-1.07c1.59-.69,3-2.2,5-.92C407,23.41,404.93,22.41,404.14,23.62Z" style="fill:#8a7b69"/><path d="M425,26.34a2.14,2.14,0,0,1,.12-.87c-.34-1.75,1-1.63,2.05-1.86,1.42.13,2.73.43,3.18,2.06-.85,1.63-2.48,0-3.52.84Z" style="fill:#3c2a1d"/><path d="M426.86,26.51l3.24-.39c1.32-1.37,2.34-1.6,2.68.71a2.74,2.74,0,0,0-.27.79Z" style="fill:#ecece9"/><path d="M239,23.18c1.42.61,2.48,2.05,4.25,1.91a.78.78,0,0,1-.22,1.29c-1.25.6-2.5,1.06-3.81.16a2.23,2.23,0,0,1,0-3Z" style="fill:#a48f7b"/><path d="M232.6,35.23a5.23,5.23,0,0,0-.11-.78c1.86-.37,3.75-.86,5.1,1.11C235.88,36.23,234.25,35.54,232.6,35.23Z" style="fill:#2f2610"/><path d="M165.36,32.16l-1,.34A6,6,0,0,1,160.5,32l.9-1.25C163.1,30.16,164.82,29.55,165.36,32.16Z" style="fill:#372c21"/><path d="M267,35.76l.78-1.14c1.86-1.59,3.8-2.22,5.93-.47-1.33,1.61-3.44.82-5,1.63Z" style="fill:#302213"/><path d="M297.38,36.64c.46-1.23,2.35-.7,2.62-2.15a.73.73,0,0,1,1.12-.2c1.48,3.58-2,1.56-2.86,2.55A2.63,2.63,0,0,1,297.38,36.64Z" style="fill:#4c4338"/><path d="M331.47,36.46l1.09-1.23a2.48,2.48,0,0,1,2.43-.08,3.11,3.11,0,0,1,1.49,1.14c0,.21.09.42.14.62a1.78,1.78,0,0,1,.11.82Z" style="fill:#a3998d"/><path d="M126.08,24.83a1.86,1.86,0,0,1,2.56-1.14,3.65,3.65,0,0,1,2.29-.64,1.18,1.18,0,0,1,.87.75,3,3,0,0,0-.21.89c-1.38,1.28-3.09-.61-4.5.46Z" style="fill:#5d5248"/><path d="M440.78,24.06l-2.3-.88c1.95-1.44,3.63-.19,5.35.3C443.05,24.9,441.89,24.35,440.78,24.06Z" style="fill:#1b1308"/><path d="M456.26,21.58c-.43.57-.85,1.14-1.28,1.7a1.63,1.63,0,0,1-2-.31l.33-1.91c.13-1.26,1-1.42,2-1.17A1.21,1.21,0,0,1,456.26,21.58Z" style="fill:#55483d"/><path d="M243.42,25.81q-.1-.36-.18-.72c1.11-.38,2.21-.66,3.17.34l.12,1a2.43,2.43,0,0,1-3,.41h0C243,26.6,242.92,26.25,243.42,25.81Z" style="fill:#c3b5a6"/><path d="M73.64,20.38c.94-1.19,1.52-3.72,3.53-.95Z" style="fill:#110d00"/><path d="M470.74,14.82a7,7,0,0,0,.06-.79l2.71.3c1,.51,2.46.37,3,1.72-1.58,1.12-3.16.75-4.76,0A2.43,2.43,0,0,1,470.74,14.82Z" style="fill:#695a4b"/><path d="M155,14.47,152.22,14c-.06-.37-.13-.74-.2-1.11a3,3,0,0,1,1.85-1.56C155.85,11.78,155,13.29,155,14.47Z" style="fill:#4c463e"/><path d="M473.17,24.67l-.85-.54.87-.59c1.59.52,3.54,0,4.71,1.7Z" style="fill:#1f160f"/><path d="M257.63,34.17c0,.29.09.58.13.87-1.6,1.08-3.39,1-5.19.88l-.39.11-.37-.17C253,34,255,34.72,256.66,34.17A.57.57,0,0,1,257.63,34.17Z" style="fill:#2a1f12"/><path d="M287.5,32.19c-.1,1.14-1.26.81-1.83,1.3l-1.29.18c-.89-1.39,1.31-1.26,1.14-2.3a1.12,1.12,0,0,1,1-.41A1.45,1.45,0,0,1,287.5,32.19Z" style="fill:#2c2115"/><path d="M366.59,35.17c1.85-1.52,2.84,1.38,4.5.88-1.55.88-3.12.31-4.68.07-.3-.28-.37-.51-.22-.7S366.47,35.15,366.59,35.17Z" style="fill:#3e3723"/><path d="M442.45,14.07c0-.26.06-.52.08-.78l2,.14,3.35.83c-1.42.89-2.46.21-3.51.17A1.27,1.27,0,0,1,442.45,14.07Z" style="fill:#2e281c"/><path d="M6.72,14.62l1.7.72c.3,1.33-.69,1.18-1.47,1.29l-2.14.82C5.13,16.3,5.26,15,6.72,14.62Z" style="fill:#faf7f4"/><path d="M126.93,10.41,126.24,9c.17-.6.33-1.2.49-1.81a2.94,2.94,0,0,1,2.4,2.91C128.48,10.87,127.77,11.2,126.93,10.41Z" style="fill:#705c4a"/><path d="M15.28,26.85c.33-1.36,1.4-1.82,2.61-2.1.25.52.51,1,.76,1.57a1.55,1.55,0,0,0-.45.56Z" style="fill:#332b1d"/><path d="M2.53,18.6,1.24,21.16C.6,20.77-.34,20.48.13,19.48A1.92,1.92,0,0,1,2.53,18.6Z" style="fill:#edeae5"/><path d="M153.87,11.31A2.11,2.11,0,0,1,152,12.87l-1.17-.8C151.68,11.11,152.53,10.24,153.87,11.31Z" style="fill:#65544c"/><path d="M191.52,22.55l-4.91.83a.6.6,0,0,1-.33-.56c0-.22.06-.33.13-.34l.13-.19C188.2,22.37,189.92,21.29,191.52,22.55Z" style="fill:#fbfbfa"/><path d="M324.4,36.35l5-.85c.06.3.12.61.16.92C327.83,36.35,326.1,37.31,324.4,36.35Z" style="fill:#6a5d4e"/><path d="M366.59,35.17l-.18.95-.43.14-.44-.12c-1.13-.78-2.93,0-3.7-1.61Z" style="fill:#282208"/><path d="M157.36,9.45c-.36.69-.51,1.63-1.54,1.48-.27,0-.71-.86-.61-1a3.82,3.82,0,0,1,1.37-1.22C157.21,8.42,157.29,9,157.36,9.45Z" style="fill:#beb6ab"/><path d="M146.72,26.66l1.37,2-1.89.41c-.82-.66-1.64-1.32-2.47-2A2.06,2.06,0,0,1,146.72,26.66Z" style="fill:#3a2d20"/><path d="M406.78,32l1.42-2.59c1.19-.34,1.37.69,1.83,1.34l0,.1C409.19,31.84,407.93,31.73,406.78,32Z" style="fill:#514a42"/><path d="M252.57,35.92l5.19-.88.15.83A8.48,8.48,0,0,1,252.57,35.92Z" style="fill:#5c4e41"/><path d="M302.08,27.13l-.13-1c1.75,0,3.56-.94,5.21.38Z" style="fill:#c0a88b"/><path d="M245.43,34.87,243.61,36l-1.82.05C242.23,33.32,244.26,35.4,245.43,34.87Z" style="fill:#281f0f"/><path d="M372.87,28.21c-.57-1.37-2-1.26-3.05-1.71,1.46-.75,2.92-.35,4.38,0A1.93,1.93,0,0,1,372.87,28.21Z" style="fill:#baa899"/><path d="M31.33,20.15c-1.69-.15-2.45,1.6-3.92,1.91-3.54-.81-1.86-3.26-1.65-5.25,1.34-1.34,2.47-3,4.64-3.16a5.21,5.21,0,0,1,2.22.59,3,3,0,0,1,1.67,2.56A3.33,3.33,0,0,1,31.33,20.15Z" style="fill:#574e41"/><path d="M25.92,17.2c1.19,1.41-.71,3.76,1.49,4.86a6.54,6.54,0,0,0-4.87,2.46c-1.59,2-2.4.71-3.44-.34l.93-2c.2-.55.39-1.1.59-1.64a1.68,1.68,0,0,1,1-.28c.26.09.51.19.76.3,0-.33-.33-.5-.41-.8a4,4,0,0,1-.1-1.83C23,16.39,24.3,16,25.92,17.2Z" style="fill:#332b1d"/><path d="M51.51,16.75,49.7,16C48,16,48,14.92,48.11,13.67A1.87,1.87,0,0,1,49.22,13c1.42,0,2.9.18,4.16-.78a4.08,4.08,0,0,1,1.2-.46c1.59.27,3.07-.54,4.64-.49a2.27,2.27,0,0,1,1.63,1.27A2.92,2.92,0,0,1,60,15.24c-1.66.9-3.7.86-5.21,2.13C53.6,17.81,52.42,18,51.51,16.75Z" style="fill:#52493d"/><path d="M58.5,18.08l-2,2.87L50,21.44c-2.65-1.91-1-2.45.93-2.88a44.1,44.1,0,0,1,6.45-1.09A1.68,1.68,0,0,1,58.5,18.08Z" style="fill:#272013"/><path d="M48.49,13.5A3.37,3.37,0,0,0,49.7,16c-1.84.21-3.5,2.38-5.54.53l-.24-1.17a4.2,4.2,0,0,1,.18-1.17,4.2,4.2,0,0,1,.58-1.06,1.8,1.8,0,0,1,1-.57l.89.23A1.38,1.38,0,0,1,48.49,13.5Z" style="fill:#4a4338"/><path d="M31.33,20.15a5.94,5.94,0,0,0,2.24-3.44,2.36,2.36,0,0,1,1.35-.31A2.55,2.55,0,0,1,37,18.93,4.77,4.77,0,0,1,31.33,20.15Z" style="fill:#332b1d"/><path d="M37,18.93l-2.49-2a2.59,2.59,0,0,1,1.72-2.49,1.61,1.61,0,0,1,1.23.17l1.33,1.75a1.21,1.21,0,0,1,1.23.26c0,.22.1.44.16.66l-.57.37Z" style="fill:#4a3e34"/><path d="M57.58,17.72c-2,1.74-4.31,1.63-6.66.84.2-.6.39-1.21.59-1.81l3.19-.05a2.14,2.14,0,0,1,2.56.4C57.36,17.31,57.47,17.52,57.58,17.72Z" style="fill:#372f25"/><path d="M34.65,23.56c-1.22.42-2.41,1-3.75.51C31.89,22,33.14,21.86,34.65,23.56Z" style="fill:#332b1d"/><path d="M44.68,15.16c-.17.46-.35.91-.52,1.37-1.06-.73-2.1-.21-3.14.06a1.89,1.89,0,0,1,1.8-2.6A2.56,2.56,0,0,1,44.68,15.16Z" style="fill:#695a45"/><path d="M41.49,15.24c-.15.45-.31.89-.47,1.34,0,0-.12.46-.12.46a.69.69,0,0,1-1-.2l0-.4a.7.7,0,0,1,.31-.83,1.45,1.45,0,0,1,.31-.77C41,14.62,41.33,14.73,41.49,15.24Z" style="fill:#3b2a17"/><path d="M39.9,16.84l1,.2c-.27.53-.65.85-1.29.61C39.7,17.38,39.8,17.11,39.9,16.84Z" style="fill:#b8a697"/><path d="M162.83,26.52c.2-4.7,4.25-2.89,6.62-3.92l2.87.51c1.16.09,2.37.1,2.63,1.63-.86,1.61-2.82,1-4,2-1.46.37-2.86,1-4.36,1.19A4.4,4.4,0,0,1,162.83,26.52Z" style="fill:#d0b9a3"/><path d="M186.41,22.48a2.12,2.12,0,0,1,.2.9c-2.5,1-5.57,1.72-2.33,5.25a1.35,1.35,0,0,1-1.95.37l-3.12-.68c-.68-1.3-2.12-2.33-1.46-4.1,1.12-.8,2.66-.07,3.73-1Z" style="fill:#baa08d"/><path d="M181.48,23.18c-.91,1.42-2.5,1-3.8,1.44a2,2,0,0,1-1.73.82,1.94,1.94,0,0,1-1.15-.61l-2.48-1.72C175.39,21.49,178.43,23.3,181.48,23.18Z" style="fill:#ab907f"/><path d="M207.41,26.79c.1.87.16,1.73-.8,2.23-1.49-.12-3-.4-3.93,1.28-1.78,1.83-3.74,1-5.68.37a1.86,1.86,0,0,1-.84-1.13A7.44,7.44,0,0,1,198,25.83C201.66,21.15,204.43,25,207.41,26.79Z" style="fill:#7a6c61"/><path d="M196.46,29.09c0,.29.09.58.14.86-1.4,1.85-3,1.59-4.71.48-2.13-1.07-4.2,1.26-6.33.12l-4,.31c.24-.62.48-1.24.73-1.86l1.95-.37c2.87-2.11,6.23-2.75,9.65-3.21.67.62,2.14-.05,2.27,1.42C196.2,26.87,196.45,29.08,196.46,29.09Z" style="fill:#716659"/><path d="M196.46,29.09c-2.24-.25-1.27-2.73-2.53-3.67a6.53,6.53,0,0,1,4.09.41C198.21,27.25,198.55,28.75,196.46,29.09Z" style="fill:#91877c"/><path d="M146.89,26,144,25c-1.38-1-3.59-.66-4.37-2.66C140,21,139,20,138.48,18.93a1,1,0,0,1,.66-1l3.05,0a7.71,7.71,0,0,0,1.87,3.53c.3.28.59.58.88.88.56.57,1.17,1.09,1.76,1.64a2.1,2.1,0,0,1,.51,1.06C147.1,25.36,147,25.66,146.89,26Z" style="fill:#665646"/><path d="M139.14,17.93c-.11.3-.23.6-.34.89-.24.56-.78.53-1.25.67l-2.88,2.19c-2.43-.9-1.15-2.61-.9-4.11a4.47,4.47,0,0,1,1.48-1.93,1,1,0,0,1,1.39.34Z" style="fill:#716359"/><path d="M135,17.63c-.46,1.32-1.36,2.61-.34,4.05-1.31.22-2,1.24-2.87,2.12l-1-.35a2.11,2.11,0,0,1-.91-2.24,9.22,9.22,0,0,1,1.58-2.71,6.26,6.26,0,0,1,.85-.93,3.16,3.16,0,0,1,1.75-.63A1,1,0,0,1,135,17.63Z" style="fill:#5d5043"/><path d="M137.55,19.49l1.25-.67c.72,1.06,2.88,1.78.86,3.5Z" style="fill:#362e22"/><path d="M298.41,28.79l2.74-1.36c.63,1.63,6.17-1.13,3.27,3.65l-4.91.62a1.18,1.18,0,0,1-1.3-.26A2,2,0,0,1,298.41,28.79Z" style="fill:#e9e0d1"/><path d="M310.23,35.37l-5,.41a5,5,0,0,1,.09-.77l7.33-4.15a1.78,1.78,0,0,1,1.57.84,1.37,1.37,0,0,1-.28,1.69Z" style="fill:#80705f"/><path d="M320.31,27.74c.05.32.09.64.13,1l-.3.63c-1.52,1.58-3.15,2-4.93.4a3.41,3.41,0,0,1-.62-1.25,2.34,2.34,0,0,1,.54-2c1.71-.6,2.46,1.85,4.15,1.32A.66.66,0,0,1,320.31,27.74Z" style="fill:#c1ac94"/><path d="M315.36,28.43c.05.33.1.66.14,1,.64.93.18,1.64-.47,2.32a1.14,1.14,0,0,1-1.22,0l-1.15-.87.78-1.22C314,29.09,314.14,27.92,315.36,28.43Z" style="fill:#b6a491"/><path d="M315.36,28.43l-1.92,1.21c-.08-1.39-.48-2.94,1.69-3.11C315.21,27.16,315.28,27.79,315.36,28.43Z" style="fill:#c4af99"/><path d="M320.31,27.74l-1,.11c0-.33,0-.65-.07-1Z" style="fill:#d5c0a9"/><path d="M84.29,8.09c4-.09,7.91-2,12-1.16l0,.1c.6,1.82-.18,3-1.77,3.81-3.07.85-5.85-.42-8.7-1.19A2.79,2.79,0,0,1,84.29,8.09Z" style="fill:#c1b1a4"/><path d="M84.29,8.09l2,.93c1.41,1.92-.19,2.6-1.41,3.45a5.61,5.61,0,0,1-1.4.46c-1.73.14-3.47.27-4.08-1.95.1-1.5-.83-3.07.21-4.54C81.53,6,82.61,7.88,84.29,8.09Z" style="fill:#8f7968"/><path d="M79.61,6.44c.63,1.43,1.57,2.81.49,4.42a3.71,3.71,0,0,1-2.91,1.61,2.8,2.8,0,0,1-1.25-.57c-.6-.93-.6-1.74.43-2.37-1-1.41-.61-2.34,1-2.83Z" style="fill:#776453"/><path d="M25.92,17.2c-1.45.19-3.06,0-3.87,1.68a.5.5,0,0,1-.86-.14l-1-.62c.58-1.23,1-2.55,2.4-3.19,1.39-1.51,3.51-1.36,5.17-2.25a3.22,3.22,0,0,1,1.3-.23c.94.29,1.64.74,1.2,1.91C28.49,14.76,28.11,17.38,25.92,17.2Z" style="fill:#6d5c4c"/><path d="M18.39,17.53c-2.78,1.62-6,.2-8.86,1.28C9,16,11,15.31,13.07,14.74,16.22,13.05,16.76,16.32,18.39,17.53Z" style="fill:#786552"/><path d="M13.07,14.74C11.82,16,10.16,17,9.53,18.81l-1.28.62c-.73-.79.42-2.46-1.3-2.8l1.47-1.29c1.09-.11,1.53-.92,1.92-1.79Z" style="fill:#cfb89c"/><path d="M28.24,13.65c-1.69,1.23-3.75.84-5.61,1.28.3-.94.6-1.88.91-2.82a2.15,2.15,0,0,0,2.29-.4C27.44,11.35,28,12.33,28.24,13.65Z" style="fill:#836a4d"/><path d="M119.23,20.37l-4.77-1.64c-1.24-.49-2.18-1.8-3.76-1.33L101.22,14a1.06,1.06,0,0,1,.78-1.2c2.7-.29,5.24.64,7.88.92,1.57.43,3.13.92,4.66,1.49.54.17,1.07.37,1.59.57C117.77,16.89,121.13,16.88,119.23,20.37Z" style="fill:#40362c"/><path d="M92.63,17.37a6.77,6.77,0,0,1-3.47-2.32c2.4-3,5.29-3.31,8.58-1.62.09.23.19.46.29.7C96.59,15.8,93.46,14.67,92.63,17.37Z" style="fill:#2c261a"/><path d="M101.59,13.25a6.38,6.38,0,0,1-.37.74L98,14.13l.15-.23a5.64,5.64,0,0,1-1.32-1.67c0-3,2-1.9,3.58-1.64A3.36,3.36,0,0,1,102.12,12,1,1,0,0,1,101.59,13.25Z" style="fill:#6e5d4f"/><path d="M331.37,35l-1.94-1.2-1-1.2a2.05,2.05,0,0,1,.41-1.77c1.44-2-2.25-2.54-1.32-4.41,2.73-1.8,4.3-.14,5.73,1.92a18.9,18.9,0,0,0,4.57-.09,4.93,4.93,0,0,1,4.07,2.49c1.4.68,2.79.25,4.17-.05a1.64,1.64,0,0,1-.08,2c-1.07.68-2.34-.43-3.41.37-1.44.26-2.54.84-2.39,2.58l-1.93-.23c-.41-.85-.61-1.84-1.59-2.3-1.35-.46-2.68-1.24-4,0A4.79,4.79,0,0,1,331.37,35Z" style="fill:#b0967f"/><path d="M353,31.83c2.2.43,4.38.78,6.26-.92.91-.23,1.17.34,1.3,1.07-.09,1.11-1,1.43-1.81,1.79l-1.88-.2c-1.35.48-2.6,0-3.87-.37A.89.89,0,0,1,353,31.83Z" style="fill:#9e8873"/><path d="M345.71,32.44c.13-.59.26-1.18.38-1.76l4,.39a1.74,1.74,0,0,1,.38,1.18,1.59,1.59,0,0,1-.75,1,6.3,6.3,0,0,1-1,0C347.58,33.42,346.48,33.53,345.71,32.44Z" style="fill:#9e8873"/><path d="M358.72,33.77c.45-.6.9-1.2,1.34-1.81a3.22,3.22,0,0,1,1.48-.58c1.41,0,2.69.25,3.48,1.59l-4.39,1.16Z" style="fill:#96806d"/><path d="M349.67,33.22l.2-1a2.18,2.18,0,0,1,2.83.48l4.14.87C354.39,34.64,352.05,33.52,349.67,33.22Z" style="fill:#96806d"/><path d="M345.71,32.44l3,.82c-2.07,1-4.07-.09-6.1-.23C343.5,32.09,344.64,32.43,345.71,32.44Z" style="fill:#705e4a"/><path d="M14,23.55l-3.23.84C11,23.25,8.9,21.83,11,21a2.53,2.53,0,0,1,3.54,1.74Z" style="fill:#160e02"/><path d="M21.19,18.74a4.17,4.17,0,0,1,.86.14l.73,1.32c-.26.58-.89.44-1.32.68l-.84-.31Z" style="fill:#32291a"/><path d="M210.71,29.32c.74,0,1.69.71,2-.61a19.51,19.51,0,0,1,1.32-2.95l4.16-.59c2.84.66.83,2.26.37,3.09a18,18,0,0,1-2.93,3.21C212.84,33.44,210.76,33.69,210.71,29.32Z" style="fill:#c9b6a1"/><path d="M227.21,33.19,226,32.38c0-.39,0-.77,0-1.16.84-2.39,2.66-2.65,4.8-2.24,1.35.63,2.75,1.53,2.29,3.12-.33,1.12-1.74,1.1-2.86.57Z" style="fill:#978271"/><path d="M230.81,29.57c-1.76.1-3.5.27-4.82,1.65-1.1-1.32-.83-2.37.64-3.17a2.83,2.83,0,0,1,1.84-1.13,6.42,6.42,0,0,1,2.23,0c1.2.32,2.57.34,3.22,1.71C233.31,30.28,232.14,30.19,230.81,29.57Z" style="fill:#594b41"/><path d="M228.69,27.67l-2.06.38-1.33-1.9c.91-1.55,2-1.42,3.13-.29A1.33,1.33,0,0,1,228.69,27.67Z" style="fill:#978573"/><path d="M66.21,8.11l1.94.59a3.07,3.07,0,0,1,1.11,2.71,2.73,2.73,0,0,1-1.88,1,10.08,10.08,0,0,1-4.26-1.13,5.5,5.5,0,0,1-1.19-.85c-.77-1.14-1-2.18.53-2.88C63.69,7.88,64.8,9,66.21,8.11Z" style="fill:#7b654e"/><path d="M73.14,15.71l-.36,1c-.6.41-1.16.12-1.73-.07A5.34,5.34,0,0,1,69.58,14,.86.86,0,0,1,70,13l0-.46q.66-.28,1.32-.6l1.22-.32c1.1-.41,2,.22,3,.46a2.18,2.18,0,0,1,.65,1.76C75.67,15.28,73.8,14.48,73.14,15.71Z" style="fill:#342c23"/><path d="M70,13a4.7,4.7,0,0,0-.25.57,3.78,3.78,0,0,1-3,1.64,3.09,3.09,0,0,1-2.48-1.12,1.61,1.61,0,0,1,0-1.34c1-1.37,2.6-.41,3.85-.88l1.15-.5Z" style="fill:#4a3e39"/><path d="M75.3,12.44a2.52,2.52,0,0,1-2.77-.79l3.84-2.12a2.09,2.09,0,0,0,.26,2.21C76.57,12.69,76.19,13,75.3,12.44Z" style="fill:#796c5e"/><path d="M71.31,12l-1.32.6Z" style="fill:#baa291"/><path d="M352.7,32.7l-2.83-.48c.06-.38.12-.76.17-1.15,1-2.39-1.47-2.84-2.28-4.23l7.92,1.39c-.66,1.38-4.3.51-2.71,3.6A5.46,5.46,0,0,1,352.7,32.7Z" style="fill:#bba590"/><path d="M341.92,30.73,337.38,29c-.4-.78.1-1,.72-1.21,1.31-.2,1.71-1.6,2.78-2.11h0C341.88,27.2,345.21,28.28,341.92,30.73Z" style="fill:#e1cdbd"/><path d="M432.78,26.83c-.69-1-1.79-.45-2.68-.71-.41-1.35-1.79-1.14-2.69-1.69-.63-1.33-2.39-1.35-3.07-2.62-.29-1.73.92-2.56,2.06-3.43l2.25-1.6,1.19-.85c.5,1.26,1.69,1.27,2.75,1.53a7.42,7.42,0,0,1-.17.92c.07,1.78,3.58,1.06,2.61,3.59l-.15,2.75Z" style="fill:#a58f7b"/><path d="M442.45,14.07l1.88.36c3.13,3.49,6.79,4,10.91,1.94,1.14,1.1,2.52.72,3.86.65a2.05,2.05,0,0,0,1.35-1.75.91.91,0,0,1,1.17,0,14.68,14.68,0,0,1,1.08,4.42l-1.35,1.8a8.13,8.13,0,0,1-5.09.08c-.76-1.45-1.75-1.57-2.95-.52a6.69,6.69,0,0,0-3.76-1.67c-2.17-1.88-5-2.35-7.53-3.35A2.64,2.64,0,0,1,440,14.7a.82.82,0,0,1,.72-.85Z" style="fill:#3f352a"/><path d="M440.24,14.7A2.11,2.11,0,0,1,442,16c1.88,2.6,1.38,4.23-1.91,4.73-1.86-1,.39-3.19-1.22-4.26C438.59,15.35,439.38,15,440.24,14.7Z" style="fill:#50453b"/><path d="M435,22c.29-2-4.63-.3-2.61-3.59l2,.39a1.34,1.34,0,0,1,2,.32c-.11.67-.22,1.34-.32,2Z" style="fill:#7a675b"/><path d="M461.35,15.47c-.3-.08-.6-.15-.9-.2l-.95-1c3,.39,6.06,1,9.14.39,1,.85,1.66,1.81,1.18,3.19-.75,2-2.91,1.32-4.2,2.29l-.45-.05-.45-.1A10.58,10.58,0,0,1,461.35,15.47Z" style="fill:#6e6052"/><path d="M478.39,22.49l-2.9-.54c-1.69-.54-.7-2.36-1.57-3.3a5.11,5.11,0,0,1-.86-.2,1.47,1.47,0,0,1-.17-1.36c1.85-1.31,3,0,4.28,1.09,1.06.24,2.28.19,2.77,1.49-.54.39.15-.08-.24.41-.54.66-2.69.6-1.19,2.31Z" style="fill:#5a4f45"/><path d="M473.23,17.44c-.06.34-.11.67-.17,1a8.66,8.66,0,0,1-7.44,1.67c.31-2.06,2.51-1.18,3.46-2.24a4.69,4.69,0,0,1,2.38-1.29A1.92,1.92,0,0,1,473.23,17.44Z" style="fill:#584c41"/><path d="M461.35,15.47c1.4,1.3,3.27,2.24,3.37,4.5l-2-.27C460.14,19,461.31,17,461.35,15.47Z" style="fill:#4f433b"/><path d="M473.92,18.65c1.15.8,1.15,2.15,1.57,3.3a2.19,2.19,0,0,1-2.14.63C471.82,21,474.2,20,473.92,18.65Z" style="fill:#584c41"/><path d="M101.59,13.25l.33-1c.28-1.11.72-2.09,2-2.39a4.14,4.14,0,0,0,.92.17c.78-.15,1.44.59,2.25.3a2.81,2.81,0,0,1,1.12.38,6.65,6.65,0,0,1,1.55,2.54c.19.59.37,1.17-.27,1.62A23.89,23.89,0,0,1,101.59,13.25Z" style="fill:#78624f"/><path d="M108.84,13.5,107.58,11a1.4,1.4,0,0,1-.18-1,1.2,1.2,0,0,1,.76-.63l4.23.12,2.17,2.91-.46.52C112.48,14.4,110.64,13.8,108.84,13.5Z" style="fill:#524539"/><path d="M103.9,9.83c-.53.91-.68,2.12-2,2.39l-1.86-.71a1.88,1.88,0,0,1,.41-2.13c1.12-1,2.14-2.72,3.65-.44C104,9.24,104,9.53,103.9,9.83Z" style="fill:#a99079"/><path d="M104.12,8.94c-1.39-.94-2.28.48-3.43.71a.58.58,0,0,1-.9-.36c.41-1.5,1-2.69,2.95-2.23C103.55,7.43,104.34,7.81,104.12,8.94Z" style="fill:#bea686"/><path d="M106.69,10.75c-1.07.85-1.22-.58-1.87-.75l.51-1.08a2.51,2.51,0,0,1,1.15.15,1.51,1.51,0,0,1,.81.8A.87.87,0,0,1,106.69,10.75Z" style="fill:#9f8b71"/><path d="M107,9.87l-.94-.6.22-.64,1.86.75-.24.78A.61.61,0,0,1,107,9.87Z" style="fill:#442f22"/><path d="M106.3,8.63a2.11,2.11,0,0,1-.22.64l-.44,0-.31-.3C105.57,8.55,105.83,8.24,106.3,8.63Z" style="fill:#1d0a02"/><path d="M248.45,33.29c-1.73,0-3.51,1-5.19-.22a1.19,1.19,0,0,1-.43-1.06c.24-1.12,1.37-1.45,2-2.23,1.38-2.6,3.79,2.28,5.12-.7,1.38.81,2.66,1.7,2.74,3.52C251.48,34.11,249.81,32.77,248.45,33.29Z" style="fill:#ae9785"/><path d="M243.31,31.79c0,.43,0,.85-.05,1.28-2.19.27-4.33.27-6.18-1.22-1.25-1.67-.49-2.73,1.08-3.54l.73.12c.83,1.34,2.11.52,3.18.67A10.27,10.27,0,0,1,243.31,31.79Z" style="fill:#8f7966"/><path d="M252.35,32.67c-.69-1.27-2.38-1.87-2.41-3.59.87-.07.34-2.08,1.81-1.31.94.91,2.12-.25,3.09.34a1.75,1.75,0,0,1,.47,1.17c-.53,1.16-.14,2.6-1.12,3.62C253.55,33.07,252.9,33.24,252.35,32.67Z" style="fill:#918176"/><path d="M256.39,25.1c1.42-.09,2.87-.5,4.16.5a1.13,1.13,0,0,1,.34,1.36,3.85,3.85,0,0,1-3.12,2,3,3,0,0,1-2.18-.63,1.79,1.79,0,0,1,0-2.14Z" style="fill:#7c6b5d"/><path d="M243.42,25.81c.05.36.1.71.16,1.06a7.39,7.39,0,0,1-4.69,1.56l-.26.16c-1.11-.43-2.25-.82-2.46-2.24,1.06-2.15,2.22-1,3.36-.1Z" style="fill:#ddd1be"/><path d="M243.55,26.86l3-.41,1.89-.06C246.84,27.28,245.28,28.34,243.55,26.86Z" style="fill:#edd9c2"/><path d="M255.56,26.19c.1.67.19,1.34.29,2a.61.61,0,0,1-.95.22c-1.11.07-2.28.45-3.15-.66Z" style="fill:#847066"/><path d="M243.31,31.79a2.55,2.55,0,0,1-1.24-2.69l2.75.68A2.28,2.28,0,0,1,243.31,31.79Z" style="fill:#dac6af"/><path d="M233.6,28.35c-1-.29-2.24.25-3.09-.74a2.54,2.54,0,0,1,.7-2.24c-.08-.6-.16-1.19-.25-1.79.79-.22,1.55-.32,2.13.44,1.35.71,3.31,1,2.18,3.34A1.55,1.55,0,0,1,233.6,28.35Z" style="fill:#e9d5ba"/><path d="M234.67,27.13c.69-1.65-1-2.12-1.58-3.11l6.08-.46.36,2.7c-1,0-2.35-1.43-3.07.52A1.28,1.28,0,0,1,234.67,27.13Z" style="fill:#caae82"/><path d="M382.26,26.84l8.06.39c1,1.16,4.94-1.26,3.57,2.87-1,.95-2.06.45-3.13.25-2.34-.42-4.74,1.2-7.05-.22C381.74,29.69,382,28.27,382.26,26.84Z" style="fill:#c9af9a"/><path d="M398.54,26.65l1,.18c1.69-.67,2.86.13,3.88,1.36a.92.92,0,0,1-.31,1.28l-2.13.72-1-.3C400.4,28.41,397.64,28.33,398.54,26.65Z" style="fill:#b39c85"/><path d="M365,33,361,32.14a1,1,0,0,1,.42-1.26c1.91-.57,3.94.18,5.84-.55,1.43,0,3-.82,4.18.64,2.94-1.3,5.26.86,7.87,1.41a.9.9,0,0,1-.41,1.29c-2.3.25-4.47-1.35-6.81-.52Z" style="fill:#a68f7f"/><path d="M372,33.15c2.37-1.36,4.7.37,7,.1a1.48,1.48,0,0,1,2,.6l-1.08.74Z" style="fill:#625142"/><path d="M64.59,12.9c-.11.29-.21.57-.31.87-1.28,2,1.16,1.27,1.55,2.05a3.11,3.11,0,0,1,1.25,2.26c-2,1.6-3.08-2.29-5.08-.93a2.24,2.24,0,0,1-2.8-.6.91.91,0,0,1,.32-1.32l1-2.81c-.25-1.54.86-2,2-2.49a2.67,2.67,0,0,0,.73.27C63.8,11,64.88,11.61,64.59,12.9Z" style="fill:#4f443a"/><path d="M67.08,18.08c-.64-.41-1.45-.65-1.49-1.61.84-.83,2-.62,3-.93.84-.06,1.74-.39,2.31.59l1.89.57c-.34,1.67-2.08.05-2.67,1.13Z" style="fill:#8c7d73"/><path d="M59.17,16.18l2.83,1c-.73,1.92-2.12,1.4-3.5.93l-.92-.36h0C57.4,16.49,57.45,15.48,59.17,16.18Z" style="fill:#3a3422"/><path d="M459.1,17c-1.53,1.22-2.81.94-3.86-.65.3.05.6.09.9.11A2.8,2.8,0,0,1,459.1,17Z" style="fill:#66574a"/><path d="M381.11,33.85l-2-.6c.06-.29.12-.58.17-.87l1.16-.94,3.11-.42c1.4.09,2.77-1.05,4.19-.08-.16.58-.31,1.16-.47,1.73-1.76.34-3.66,0-5.27,1.12A5.09,5.09,0,0,0,381.11,33.85Z" style="fill:#a08879"/><path d="M387.72,30.94c-1.39.24-2.78.62-4.19.08.07-.29.13-.59.18-.89,2.37-.47,4.74-.9,7.05.22C389.9,31.32,388.77,30.92,387.72,30.94Z" style="fill:#c3ac99"/><path d="M412.67,26.92l-1,0c-1-.05-2.11.39-2.94-.56-1.44-1.29.06-2,.57-2.92l4.2-1.29a10.5,10.5,0,0,1,5.92.92c0,.23.07.47.11.7C417.88,26.2,414.91,25.76,412.67,26.92Z" style="fill:#8c7968"/><path d="M418.72,17.35a3,3,0,0,0,2.74.15c.5,1.28,1.7,1.28,2.78,1.5.35,1.11-.36,1.63-1.16,2.09a1,1,0,0,1-1.13-.46C419.25,21.14,419.08,19.15,418.72,17.35Z" style="fill:#a68f7d"/><path d="M422,20.63l.95.17c1.85,0,1.15,1.33,1.22,2.27a2.53,2.53,0,0,1-2.67,1.42,2.87,2.87,0,0,1-2-1.24l0-.14C420.33,22.33,421.81,22.15,422,20.63Z" style="fill:#9b8672"/><path d="M361.2,31.21a9.05,9.05,0,0,1-.25.93c-.3,0-.59-.11-.89-.18l-.83-1.05c.36-1.34.06-3,1.62-3.79l1.68,2.33C362.93,30.67,361.86,30.79,361.2,31.21Z" style="fill:#c9b5a1"/><path d="M473.23,17.44l-1.72-.17a1.32,1.32,0,0,1,.11-2.11l4.92.89a2,2,0,0,1,.63,2.13C475.77,18.41,474.72,16.73,473.23,17.44Z" style="fill:#7d6d5d"/><path d="M478.51,22.39c-2.11-2.26.11-2.25,1.43-2.72l1,.18C480.12,20.69,479.32,21.54,478.51,22.39Z" style="fill:#716459"/><path d="M62.48,9.93l-2,2.49-2-.53c-.91-1.53.49-2.73.59-4.12.6-1.9,3-.24,3.74-1.92.23.48.45,1,.67,1.45a.47.47,0,0,1-.41.67C61.9,8.33,61.66,9,62.48,9.93Z" style="fill:#a4886a"/><path d="M59.07,7.77c1.12,1.56-.17,2.78-.59,4.12-1.3,1.35-2.77,1-4.26.41-.14-1.23.76-1.27,1.59-1.4Z" style="fill:#59483b"/><path d="M55.81,10.9l-1.59,1.4c-.13.3-.25.59-.35.89-1.45.62-2.17-.28-2.82-1.34a3.5,3.5,0,0,1,0-2.73l.36-1Z" style="fill:#6e5e52"/><path d="M260.1,26.74l.45-1.14a.66.66,0,0,1,.81-.18c2,.87,4.15,0,6.14.77a2.65,2.65,0,0,1,.88,1.08c.19,1.59-.74,2.66-1.73,3.7a1,1,0,0,1-1.24.06l-3,.28-.53-.32c-.72-.67.86-2.67-1.41-2.46C260.14,28,260.26,27.33,260.1,26.74Z" style="fill:#c6ae9b"/><path d="M267.87,27.67c0-.3-.1-.6-.17-.9a.93.93,0,0,1,1.5-.33c1.85-1.49,4.14-1.37,6.3-1.75l2.15.81.21,1.69c-.41,1.15-1.48,1.51-2.42,2a4.55,4.55,0,0,1-1.24.33,7.77,7.77,0,0,1-2.49-.39C270.41,28.71,268.77,29.13,267.87,27.67Z" style="fill:#a08c79"/><path d="M269.2,26.44l-1.5.33c-2.1-.5-4.55.61-6.34-1.35C264,25.25,267,23.1,269.2,26.44Z" style="fill:#574d3d"/><path d="M367.79,28.34c1.31-1.26,2.75-.39,4.15-.27-.13.66-.25,1.32-.38,2-.93.48-1.89.17-2.85.16a2.19,2.19,0,0,1-1.07-.92Z" style="fill:#b19a89"/><path d="M368.54,29.56l3,.49c-.06.31-.12.61-.17.92l-4.12.3C366.91,30.12,367.88,30,368.54,29.56Z" style="fill:#cbb6a7"/><path d="M73.14,15.71c-.53-2.85,2.21-.85,2.86-1.94a1.38,1.38,0,0,1,1.19-.25c1.21.44,2.53.44,3.68,1.06a2.45,2.45,0,0,1,.78,1q-.16.47-.36.93Z" style="fill:#1a170f"/><path d="M135.15,11.18l-.6,1.74a3.09,3.09,0,0,1-2.32,1,4,4,0,0,1-2.49-.76,2.15,2.15,0,0,1-.65-1.13,1.65,1.65,0,0,1,1-1.57l1.6-1.6a3,3,0,0,1,3.76,1.37Z" style="fill:#69594a"/><path d="M135.43,10.22l-3.76-1.36c1-1.55-1.38-3.61.76-5l1.87.68.7,1.31C134,7.44,136.27,8.67,135.43,10.22Z" style="fill:#796454"/><path d="M130.07,10.45l-.63,1.86c-1.52.28-3,.46-2.5-1.89h0l2.2-.28Z" style="fill:#827262"/><path d="M234.67,27.13l1.79-.35c.94.34,2,.57,2.17,1.81a3.2,3.2,0,0,0-1.55,3.26l-4.75,1.52a2.18,2.18,0,0,1-2.11-.7c4-.32,1.4-1.88.59-3.1,1-.24,2.19-.05,2.79-1.22C234,27.94,234.31,27.53,234.67,27.13Z" style="fill:#7a6658"/><path d="M252.35,32.67l2.06-.31c.55-.69.14-1.61.58-2.33,1.19-1.5,2.68-1.16,4.19-.7a3,3,0,0,1,1.41,1.45,1.49,1.49,0,0,1-.34,1.26c-1.25.45-2.28,1.57-3.78,1.25l-7.83.87c-.08-.29-.14-.58-.19-.87C249.48,31.34,251.11,33.25,252.35,32.67Z" style="fill:#796758"/><path d="M298.66,31.57c.28.05.56.1.85.13.7.76,1.85,1.24,1.61,2.59l-1.12.2c-1.13-1.34-3.8,1.79-4.26-1.47a2.17,2.17,0,0,1,.36-1.09l.41-.41a2.68,2.68,0,0,1,1.09-.38A2,2,0,0,1,298.66,31.57Z" style="fill:#554939"/><path d="M146.61,25.72l-1.06-.06c-1.43-1.58.12-2.74.56-4.06l.6-1.11c1.34-.58,2.69-1,4.15-.38.12,2.25,2.57,1.19,3.41,2.41a1.79,1.79,0,0,1,.59,2,3.29,3.29,0,0,1-3.18,1.46C150,24.9,148.35,24.53,146.61,25.72Z" style="fill:#b9a58f"/><path d="M150.86,20.11a3.38,3.38,0,0,1-3.92.45.62.62,0,0,1-1,.12l2.43-3.08a1.73,1.73,0,0,1,2.46,1.28C150.83,19.29,150.85,19.7,150.86,20.11Z" style="fill:#9a826c"/><path d="M154.48,24.7l-.21-2.18,2,0c.15,1.05.15,2.17,1.34,2.69a1.54,1.54,0,0,1,.49,2C155.85,27.85,154.76,26.87,154.48,24.7Z" style="fill:#c4a98c"/><path d="M337.59,32.33c.62.93,1.65,1.76.69,3.05-1.06,3.81-4-.58-5.49,1.25l.17-.32c-.92-1.66-.42-2.89,1.14-3.8C335.25,32.37,336.37,31.44,337.59,32.33Z" style="fill:#e2d1c1"/><path d="M145.93,20.68l1-.12.12,1a3.5,3.5,0,0,1-1.64,1.19c-1.24.44-2.52.84-2.92,2.34-2-.34-3.91-.7-3.59-3.43l2.16-.37Z" style="fill:#877666"/><path d="M274,28.56a1.61,1.61,0,0,1,.86-.23c1.89.39,4.28-.82,5.5,1.73a7.92,7.92,0,0,1,.05.85c-.27,1.59-1.17,2.18-2.74,1.71-.76-.15-1.31,1.59-2.21.26a4,4,0,0,1-1.67-1.45A2.92,2.92,0,0,1,274,28.56Z" style="fill:#f8e8d8"/><path d="M274.49,31.6c.3.43.61.85.92,1.28l-1.7,1.27-5.93.47-.24-1.94C269.81,32,272,31.14,274.49,31.6Z" style="fill:#958272"/><path d="M277.62,32.62l2.74-1.71c1.73,3.1,1.61,3.27-2.47,3.61Z" style="fill:#3b3021"/><path d="M328.54,28.75c1.14,1.47,6.59-.37,3.41,4.43-.95-.3-2.05.21-2.91-.54a3,3,0,0,0-.89,0c-1.61-.39-1.89-1.42-1.39-2.84a2.43,2.43,0,0,1,.77-1Z" style="fill:#9e8975"/><path d="M327.64,30a1.88,1.88,0,0,0,.51,2.65l-8,1.08a1.08,1.08,0,0,1-.43-.75c0-.29,0-.44,0-.45A3.73,3.73,0,0,1,322,30.16C323.91,30.51,325.72,28.23,327.64,30Z" style="fill:#756555"/><path d="M320,32.78c0,.32.08.63.13.95l-2,.39L314,33.39c0-.55-.09-1.11-.14-1.66.28-.13.56-.24.85-.35,1.3-1.07,2.62-.26,3.94-.07A2.39,2.39,0,0,1,320,32.78Z" style="fill:#726457"/><path d="M329,32.64c1,0,2.1-.46,2.91.54-.22.4-.45.8-.68,1.19C329.66,34.92,329.77,33.23,329,32.64Z" style="fill:#6a5d4e"/><path d="M51.07,9.12a2.07,2.07,0,0,1,.26,2.21c.17,1.44-.85,2-1.91,2.47q-.45-.17-.93-.3l-1.89-.7A4.72,4.72,0,0,1,51.07,9.12Z" style="fill:#493d34"/><path d="M45.71,12.57a5.35,5.35,0,0,0-.41.74,2.17,2.17,0,0,1-2.64-.22c-.58-.52-.52-1.28-.72-1.95s-.21-1.49-.31-2.24l4.06.45C45.7,10.42,45.7,11.5,45.71,12.57Z" style="fill:#806c54"/><path d="M419.43,23.25l2,.36c.38.69,1.38.51,1.72,1.24-2.2,1.72-5,1.81-7.47,2.81l-3-.74C414,24,417.59,25.22,419.43,23.25Z" style="fill:#836c5d"/><path d="M423.11,24.85a2,2,0,0,1-1.72-1.24,2.15,2.15,0,0,0,2.16-.68c.4-.24.59-.83,1.2-.73,1.56-.06,3.43-.49,2.65,2.23-.86.09-1.75.13-2.25,1Z" style="fill:#8c7968"/><path d="M37.46,14.61l-1.11.07L36,14.15a3.23,3.23,0,0,0-2.68-2.44,2.93,2.93,0,0,1-1.53-2.07l1.34-.7c1.57,1,3,0,4.5-.28C40.12,10.7,38.89,12.66,37.46,14.61Z" style="fill:#ceb79c"/><path d="M41.94,11.14l.58,1.35c.29.49.77.86.88,1.45a.76.76,0,0,1-.78.64l-1.13.66-1-.4C39.94,13.21,41.46,12.37,41.94,11.14Z" style="fill:#907b60"/><path d="M40.23,15.61c-.09.28-.2.56-.31.83l-1.13-.08Z" style="fill:#30200f"/><path d="M185.56,30.55c2.07.44,3.76-2.12,6-.76.32.15.44.33.36.53s-.17.3-.27.32l-3.87.69A2.42,2.42,0,0,1,185.56,30.55Z" style="fill:#5b5145"/><path d="M154.48,24.7A6,6,0,0,0,157.93,27a2.93,2.93,0,0,1,3.85-.47l1.05,0,4.07.48c.81.43,1.74.78,1.38,2a3.33,3.33,0,0,1-1.13.8c-2.21.7-4.12-.21-6-1.12l-8.06-.25-1.37-2.51C152.21,24.61,153.4,24.79,154.48,24.7Z" style="fill:#947e6d"/><path d="M161.11,28.7c2.1-1.19,4,1.26,6,.35.88,1.17.1,2-.53,2.94l-1.26.17c-1-1.28-2.79-.59-4-1.45C161.3,30,161.21,29.37,161.11,28.7Z" style="fill:#574b41"/><path d="M408.76,26.4c1-.11,2.25-1.18,2.94.56-.56,1.25-1.11,2.5-1.67,3.74l-1.83-1.34-1-.24Z" style="fill:#94806d"/><path d="M403.11,29.47c.07-.32.13-.65.18-1-1.44-1.26-1.11-2.23.51-3l.18-.93a5.29,5.29,0,0,1,1.24,4.34Z" style="fill:#9e8879"/><path d="M327.64,30c-2.07-.71-3.63,3.76-5.94.58a1.41,1.41,0,0,1-.29-2c.33-1.76,2.32-.09,2.87-1.38,1.46-.22,2.91-.41,3.25,1.61C327.57,29.23,327.6,29.62,327.64,30Z" style="fill:#b49987"/><path d="M338.36,28.21l-1,.74a3.26,3.26,0,0,1-4.1-.62c.13-.66.25-1.33.37-2,1.36,1.74,3.23.79,4.89.94.24.26.3.49.16.68S338.46,28.23,338.36,28.21Z" style="fill:#c1a893"/><path d="M274.49,31.6c-2.2,1.15-4.32,2.74-6.95,1.08L265.41,31a5.77,5.77,0,0,0,.92-.11c1.52-1.67,4-1.08,5.67-2.47l1.95.12Z" style="fill:#e8d9c8"/><path d="M256.47,33.29l3.85-1.64a1.41,1.41,0,0,1,2-.23l.13-.11c.39,1,.79,2,1.18,3-2,.45-3.94-2.43-6-.16a5.24,5.24,0,0,0-1,0C256.59,33.87,256.53,33.58,256.47,33.29Z" style="fill:#5c4e41"/><path d="M436.39,19.09l-2-.32c-.1-1.36-.2-2.72-.29-4.09C435.76,15.7,437.19,16.83,436.39,19.09Z" style="fill:#8c7969"/><path d="M440.24,14.7l-1.35,1.81L436.33,14l4.35-.13A1.66,1.66,0,0,0,440.24,14.7Z" style="fill:#5e5045"/><path d="M168.28,28.67,166.9,27c1.35-.29,2.59-1.28,4.08-.63,1.31-1.29,3.62.53,4.69-1.5l2-.25c.79,1.12,2.58,1.82,1.54,3.7-1.87,1.21-4.24-1.61-6,.74a1.94,1.94,0,0,1-1.78,1A4.1,4.1,0,0,1,168.28,28.67Z" style="fill:#c8af9b"/><path d="M171.46,29.28l1.79-.22c.05.36.11.73.16,1.09.09.65.19,1.3.28,1.94l-3,.42c0-.32-.09-.65-.14-1C169.83,30.38,169.48,29.37,171.46,29.28Z" style="fill:#5d5449"/><path d="M424.75,22.2l-1.2.73a2,2,0,0,0-.65-2.13l1.34-1.8a2,2,0,0,1,2.16-.62Z" style="fill:#afa18c"/><path d="M214.06,25.76c1.78,2-.39,2.19-1.32,2.95-1.35-1.15-3-2.12-2.54-4.32C211.79,24,212.72,25.46,214.06,25.76Z" style="fill:#eee2cf"/><path d="M280.31,30.06l-5.5-1.73,3.05-1.14,2-.06c1.12.58,2.38,1.09,1.33,2.73Z" style="fill:#f7eddf"/><path d="M286.5,31.37a2.31,2.31,0,0,0-1,0c-1.27-.54-1.21-1.73-1.38-2.81-.38-.16-.53-.36-.45-.59s.17-.37.29-.38l.15-.27C287.67,27.06,287.37,29.05,286.5,31.37Z" style="fill:#bdaa99"/><path d="M284,27.59a5.31,5.31,0,0,1,.16,1l-2.93,1.3-1.33-2.73Z" style="fill:#dfcfc0"/><path d="M368.54,29.56l-1.27,1.71c-2,.85-4,.34-6.07-.06l1.33-1.76,5.1-.16C367.94,29.37,368.24,29.46,368.54,29.56Z" style="fill:#d6c3b3"/><path d="M191.61,30.64a6.3,6.3,0,0,1-.09-.85,7.76,7.76,0,0,0,5.08.16l6.08.35c1.36,3.59-2.27,1.36-3,2.54l-8.74.82C191.18,32.65,191.39,31.64,191.61,30.64Z" style="fill:#34271f"/><path d="M296.54,31.78l-.8,1.24-1.92.27c-1.78-.24-3.65-.12-5.2-1.3-.29-.19-.41-.41-.35-.64s.13-.36.22-.38a6.74,6.74,0,0,0,5.05.25C294.77,30.15,295.72,30.59,296.54,31.78Z" style="fill:#6f665c"/><path d="M288.49,31c0,.34.09.68.13,1l-1.12.2-1-.82c-.23-1.68,0-3.62-2.37-4.05.56-1.14,1.65-.95,2.63-1.05a5.46,5.46,0,0,1,.2.87c.7.46,1.58.72,1.81,1.69a2.06,2.06,0,0,1-.3,1.21A4.13,4.13,0,0,0,288.49,31Z" style="fill:#8e7e6a"/><path d="M132.24,13.43a2.31,2.31,0,0,1,2.31-.51l2.72,1.2L136.64,16l-.47-.16-.46-.18c-.88.28-1.51-1.18-2.48-.37C132.35,15,131.59,14.57,132.24,13.43Z" style="fill:#96826b"/><path d="M99.79,9.29l.9.36-.63,1.86c-1.14-.24-2.72-1.53-2.63,1.11-1.68.19-3.49.58-3.39-2.1,1-1,2.12-1.93,2.25-3.49A6.66,6.66,0,0,0,99.79,9.29Z" style="fill:#9c8672"/><path d="M231.21,25.37a2,2,0,0,1-.7,2.24l-1.82.06c-.09-.6-.18-1.2-.26-1.8A2.51,2.51,0,0,1,231.21,25.37Z" style="fill:#e5d3b9"/><path d="M115.16,16.83l-1-.36c-.56-1.42-.87-2.82.4-4.07h0a3.63,3.63,0,0,1,3.09,1,2.31,2.31,0,0,1,2.69.7C121.22,19.87,116.85,15.84,115.16,16.83Z" style="fill:#584b41"/><path d="M120.1,14.68l-2.45-1.31.51-1.53,3.69,1c.08.19.15.39.23.58a2.24,2.24,0,0,1-.36,1.18l-.49.39A1.16,1.16,0,0,1,120.1,14.68Z" style="fill:#dfc6b0"/><path d="M160.39,22.67l-2.67-1.32,3.43-.72,3,.74c-.28.92-1.1,1.05-1.87,1.25C161.65,23.18,161,23.35,160.39,22.67Z" style="fill:#9b7760"/><path d="M160.39,22.67l1.87-.05c-1.52,1.15-.67,2.59-.48,3.94l-3.85.47-.33-1.86Z" style="fill:#d1bca4"/><path d="M296.54,31.78l-3-.56c-.36-3.27,3.31-.36,3.73-2.43h1.13c.09.93.18,1.85.26,2.78l-1,.18a.73.73,0,0,0-1.08.12Z" style="fill:#d1b8a4"/><path d="M288.47,30a4,4,0,0,1-.21-.95c.64-1,1.42-1.79,2.78-1.43l1.16.84C291.34,29.94,289.79,29.72,288.47,30Z" style="fill:#bba792"/><path d="M403.8,25.5a2.77,2.77,0,0,0-.51,3l-3.75-1.66A5.82,5.82,0,0,1,403.8,25.5Z" style="fill:#a48e7d"/><path d="M471.62,15.16c0,.7-.07,1.41-.11,2.11l-2.43.61c-.15-1.08-.29-2.16-.44-3.24l2.1.18A4.71,4.71,0,0,0,471.62,15.16Z" style="fill:#c5b5a3"/><path d="M338.36,28.21l.18-.93a1.85,1.85,0,0,1,2.34-1.65A3,3,0,0,1,338.36,28.21Z" style="fill:#cdb7a3"/><path d="M63.07,8a4.62,4.62,0,0,0,.41-.67l2.73.81C65.08,10.12,64,10,63.07,8Z" style="fill:#53473f"/><path d="M121.85,12.84c.76-1.88,2.12-1.37,3.47-.87,1.1-.47,1.94.18,2.82.65A1.3,1.3,0,0,1,128,14a3.6,3.6,0,0,1-2.19.32c-1.41-.31-2.94-.31-4.09-1.39Z" style="fill:#847565"/><path d="M128.24,13.06,125.32,12c.1-.29.2-.57.31-.85l1.31-.7c.29,1.35,1.46,1.54,2.5,1.89v0C129.47,13.27,129,13.37,128.24,13.06Z" style="fill:#6e6355"/><path d="M291,27.66l-2.78,1.43L287,27.14C288.3,27.47,289.93,25.49,291,27.66Z" style="fill:#847260"/><path d="M321.41,28.61c.1.66.19,1.31.29,2a3.11,3.11,0,0,1-1.72,2.2L318.8,32c-.79-1.77,1.22-2.13,1.65-3.29v0C320.76,28.69,321.09,28.65,321.41,28.61Z" style="fill:#b2a08e"/><path d="M94,10.52c.5,1.71,2.08,1.7,3.39,2.11l.75,1.27c-3.18-1-6.09.14-9,1.15l-.43-.16-.44-.13c-1.57.89-3,.88-4.09-.74a2.48,2.48,0,0,1-.33-1.93C84.64,11,86.71,11,86.29,9Z" style="fill:#594e44"/><path d="M84.52,13.47c.92,1.4,2.49.92,3.77,1.29-.23.64-.45,1.29-.67,1.93L85.41,17,82.9,15C82.82,13.82,83.54,13.51,84.52,13.47Z" style="fill:#362f25"/><path d="M132.48,18.71l-1.94,2.51c-.67.56-1.34,1.16-2.21.31l-3-.18c.17-.6.33-1.2.49-1.79-.35-2.5,1.59-2.44,3.13-2.83a7.18,7.18,0,0,1,2.07,0,2.27,2.27,0,0,1,1.15.66A7.29,7.29,0,0,0,132.48,18.71Z" style="fill:#7c6c59"/><path d="M120.1,14.68l1.13.25c1.24,1.14,1.53,2.88,2.61,4.13l-1.78,2.37-2.83-1.06c.46-3.27-2.67-2.41-4.07-3.54C116.08,14.44,119.81,18.53,120.1,14.68Z" style="fill:#62564c"/><path d="M123.84,19.06c-3.92.55-1.83-2.7-2.61-4.13l0-.16a2.8,2.8,0,0,1,2.85.14,2.17,2.17,0,0,1,.87,1.19Z" style="fill:#21180d"/><path d="M124.9,16.1l-1-.49a1.58,1.58,0,0,1,1.63-1.18,10.79,10.79,0,0,1,3.54,1.05,3.32,3.32,0,0,1,1,1.06.79.79,0,0,1-.54,1.15c-1.44.27-3.14,0-3.8,1.87Z" style="fill:#493e33"/><path d="M28.24,13.65l-2.42-1.94,1.86-2.42,1.9.71a2.17,2.17,0,0,1-1,2.82A6,6,0,0,1,28.24,13.65Z" style="fill:#a8917d"/><path d="M84.52,13.47,82.9,15l-1.25.61c-.3-.11-.59-.23-.88-.36-.37-.83-1.69-.73-1.78-1.82,1.26-1.71,3.48,0,4.83-1.35l.05,0Z" style="fill:#494138"/><path d="M128.33,21.53l2.21-.31.3,2.23a2,2,0,0,1-2.2.24C128.53,23,128.43,22.25,128.33,21.53Z" style="fill:#3f3328"/><path d="M28.58,12.82c.34-.94.67-1.88,1-2.82a7.89,7.89,0,0,1,.85.1c.14,2.35,2.77,1.39,3.66,2.75A2.43,2.43,0,0,1,34.74,14c-.6,1.64-2,.59-3,.84l-1.48-.5Z" style="fill:#bda79a"/><path d="M33.64,13.45c-1.28-.92-3.58-.85-3.21-3.35l1.32-.46c.73.36,1.46.71,1.6,1.64C33.88,12,34.48,12.6,33.64,13.45Z" style="fill:#e4cdb7"/><path d="M171.46,29.28a2.14,2.14,0,0,0-.9,2.26l-3.93.45c.18-1,.36-2,.53-2.94l1.12-.38C169.38,28.68,170.53,28.4,171.46,29.28Z" style="fill:#5e544a"/><path d="M337.13,32.61a5.48,5.48,0,0,0-.45,4l-1.91-.78c-.21-.93-.42-1.86-.62-2.79A2.31,2.31,0,0,1,337.13,32.61Z" style="fill:#cebca9"/><path d="M31.78,14.86,34.63,14a1.43,1.43,0,0,1,1.92.35l-.2.36-1.84,2.25c-.32-.06-.63-.13-.94-.22C33.41,15.67,32.59,15.27,31.78,14.86Z" style="fill:#5d5041"/><path d="M21.46,20.88l1.32-.68C23.19,22.07,22.07,21,21.46,20.88Z" style="fill:#9c8c7f"/><path d="M59.17,16.18c-.9.13-1.3.79-1.59,1.55l-2.88-1c1-2.31,2.82-2.28,4.82-1.47Z" style="fill:#30271d"/><path d="M49.42,13.8l1.91-2.47,2.54,1.86C52.57,14.72,51,14.45,49.42,13.8Z" style="fill:#4a4338"/><path d="M43.13,13.69c-.2-.4-.4-.8-.61-1.2l2.78.82-.3,1A1.27,1.27,0,0,1,43.13,13.69Z" style="fill:#594739"/><path d="M43.13,13.69l1.87.62a7.83,7.83,0,0,1-.32.85l-2.06-.58Z" style="fill:#2b2413"/><path d="M175.67,24.87c-.45,4-3.15.93-4.69,1.5.29-2.94,2.8-.4,3.82-1.54C175.09,24.83,175.38,24.85,175.67,24.87Z" style="fill:#e7d5c6"/><path d="M145.21,21.87l1.85-.31c-.5,1.37-1,2.73-1.51,4.1l-2-.69C141.59,22.59,144.44,22.79,145.21,21.87Z" style="fill:#d2beae"/><path d="M145.21,21.87c-.58,1-2,1.57-1.66,3.1l-1.05.12C140.05,21.2,143.64,22.39,145.21,21.87Z" style="fill:#958475"/><path d="M133.82,14.86c1.06-.78,1.24.57,1.89.78l-.7,2c-.25-.05-.51-.08-.76-.12l-.49-.3a2.66,2.66,0,0,1-.6-1c0-.19,0-.38-.06-.58A.93.93,0,0,1,133.82,14.86Z" style="fill:#ccb599"/><path d="M134.25,17.51,133.1,18a.88.88,0,0,1-1.16-.49,1.1,1.1,0,0,1-.51,0c-.21-.63-.55-1.25-.2-1.93.86-.68,1.63-.69,2.24.33h0c.18.39.36.77.56,1.15C134.1,17.2,134.17,17.36,134.25,17.51Z" style="fill:#ceb298"/><path d="M131.94,17.47l1.15.49-.61.75C132,18.44,131.68,18.07,131.94,17.47Z" style="fill:#e8ccb8"/><path d="M320.45,28.74c.44,1.59-1.21,2.13-1.65,3.29l-4.14-.64.84-2C317.33,30.52,318.84,29.21,320.45,28.74Z" style="fill:#95836f"/><path d="M83.82,12.07c-1.06,2-3.3.55-4.69,1.58a1,1,0,0,1-1.06,0,1.68,1.68,0,0,1-.48-1.58l2.51-1.21C80.78,13,82.65,11.44,83.82,12.07Z" style="fill:#725d50"/><path d="M77.59,12.07l.62,1.25c0,1-.45,1.26-1.32.71l-.43-.16-.46-.1c-.23-.44-.46-.89-.7-1.33l1.33-.7Z" style="fill:#51473d"/><path d="M114.57,12.4a6.33,6.33,0,0,1-.4,4.07l-4.7-1.63-.63-1.34Z" style="fill:#665a4f"/><path d="M334.58,32.68l-3-.54c2.05-2,4-.91,6,.18Z" style="fill:#bda893"/><path d="M64.59,12.9l-1.38-2.69,4.9,1.7Z" style="fill:#957e6b"/><path d="M70.89,16.13l-2.15.32c-1.3.08-1.62-.77-1.75-1.82l2.72-1A1.79,1.79,0,0,1,70.89,16.13Z" style="fill:#18180b"/><path d="M67,14.63l1.75,1.82c-1,.74-2.1.15-3.15,0-.92-.67-3.33-.62-1.31-2.7Z" style="fill:#251d18"/><path d="M107,9.87a1.61,1.61,0,0,1,.9.29,4,4,0,0,1-.34.83c-.29-.09-.59-.18-.89-.25A7.06,7.06,0,0,1,107,9.87Z" style="fill:#b39e85"/><path d="M259.12,30c-1.31.24-2.75-.63-4,.45-.28-.18-.4-.39-.35-.63s.11-.36.2-.37c0-.33-.07-.66-.1-1l.95-.22,2-.16C258.58,28.45,259.51,28.75,259.12,30Z" style="fill:#a69181"/><path d="M255,29.41l.15,1c.62,1,1.06,1.89-.74,1.95C253.54,31.17,252.46,29.93,255,29.41Z" style="fill:#a99684"/><path d="M259.12,30c-.44-.64-.88-1.27-1.31-1.91l2.29-1.32c.31.57.62,1.13.92,1.7a2.29,2.29,0,0,1-.85,2.23Z" style="fill:#957f6d"/><path d="M272,28.45c-.62,3.74-3.62,2-5.67,2.47-.43-1.53,1.08-2.14,1.54-3.25Z" style="fill:#dac8b5"/><path d="M260.17,30.66a2.21,2.21,0,0,1,.85-2.23c2.66,0,.85,2,1.31,3l-2,.23Z" style="fill:#736054"/><path d="M76.89,14l1.32-.71c.31.12.61.23.92.33l1.64,1.59C79.57,14.52,77.67,16.07,76.89,14Z" style="fill:#2f2820"/><path d="M133.47,15.89l-2.15.08a1.21,1.21,0,0,1-1.33.81l-.46-.11-.42-.23c-.37-.86-1.24-1.5-1.14-2.56a2.4,2.4,0,0,1,.27-.82l1.19-.73,2.81,1.1c.07,1,.82,1.21,1.58,1.43C133.7,15.2,133.59,15.54,133.47,15.89Z" style="fill:#d2baa4"/><path d="M296.61,31.87c.25-1.05.61-1.07,1.08-.12Z" style="fill:#554b40"/><path d="M36.55,14.32,34.63,14l-1-.52c-.1-.72-.19-1.44-.29-2.17C36.48,10.12,37.11,11.6,36.55,14.32Z" style="fill:#e8d8c2"/><path d="M125.2,15l-1.28.61-2.74-.84c.18-.6.35-1.21.53-1.81a6,6,0,0,1,4.23.28A1.18,1.18,0,0,1,125.2,15Z" style="fill:#ac9983"/><path d="M125.2,15l.74-1.76,2,.64a1.8,1.8,0,0,1,1.14,2.56Z" style="fill:#6f5f53"/><path d="M130,16.78l1.33-.81c0,.51.08,1,.11,1.52l-1.83.2C129.74,17.39,129.87,17.09,130,16.78Z" style="fill:#7b6752"/><path d="M134,17l-.56-1.15Z" style="fill:#edd4b6"/></svg>