<svg width="24" height="24" viewBox="0 0 24 24" fill="none" xmlns="http://www.w3.org/2000/svg">
<path d="M0 12C0 6.34315 0 3.51472 1.75736 1.75736C3.51472 0 6.34315 0 12 0C17.6569 0 20.4853 0 22.2426 1.75736C24 3.51472 24 6.34315 24 12C24 17.6569 24 20.4853 22.2426 22.2426C20.4853 24 17.6569 24 12 24C6.34315 24 3.51472 24 1.75736 22.2426C0 20.4853 0 17.6569 0 12Z" fill="white"/>
<path opacity="0.12" d="M0 12C0 6.34315 0 3.51472 1.75736 1.75736C3.51472 0 6.34315 0 12 0C17.6569 0 20.4853 0 22.2426 1.75736C24 3.51472 24 6.34315 24 12C24 17.6569 24 20.4853 22.2426 22.2426C20.4853 24 17.6569 24 12 24C6.34315 24 3.51472 24 1.75736 22.2426C0 20.4853 0 17.6569 0 12Z" fill="url(#paint0_linear_5786_64807)"/>
<path d="M12.0557 3.62639C12.112 3.51972 12.2648 3.51972 12.3211 3.62639L12.5551 4.07005C12.5768 4.11119 12.6164 4.13993 12.6622 4.14786L13.1565 4.23338C13.2754 4.25395 13.3226 4.39924 13.2385 4.48573L12.8889 4.84545C12.8565 4.87881 12.8414 4.92531 12.848 4.97135L12.9194 5.46787C12.9366 5.58725 12.813 5.67704 12.7047 5.62383L12.2546 5.40248C12.2128 5.38196 12.1639 5.38196 12.1222 5.40248L11.6721 5.62383C11.5638 5.67704 11.4402 5.58725 11.4574 5.46787L11.5288 4.97135C11.5354 4.92531 11.5203 4.87881 11.4879 4.84545L11.1383 4.48573C11.0542 4.39924 11.1014 4.25395 11.2203 4.23338L11.7146 4.14786C11.7604 4.13993 11.7999 4.11119 11.8217 4.07005L12.0557 3.62639Z" fill="url(#paint1_linear_5786_64807)"/>
<path d="M17.3057 5.87639C17.362 5.76972 17.5148 5.76972 17.5711 5.87639L17.8051 6.32005C17.8268 6.36119 17.8664 6.38993 17.9122 6.39786L18.4065 6.48338C18.5254 6.50395 18.5726 6.64924 18.4885 6.73573L18.1389 7.09545C18.1065 7.12881 18.0914 7.17531 18.098 7.22135L18.1694 7.71787C18.1866 7.83725 18.063 7.92704 17.9547 7.87383L17.5046 7.65248C17.4628 7.63196 17.4139 7.63196 17.3722 7.65248L16.9221 7.87383C16.8138 7.92704 16.6902 7.83725 16.7074 7.71787L16.7788 7.22135C16.7854 7.17531 16.7703 7.12881 16.7379 7.09545L16.3883 6.73573C16.3042 6.64924 16.3514 6.50395 16.4703 6.48338L16.9646 6.39786C17.0104 6.38993 17.0499 6.36119 17.0717 6.32005L17.3057 5.87639Z" fill="url(#paint2_linear_5786_64807)"/>
<path d="M17.3057 16.7514C17.362 16.6447 17.5148 16.6447 17.5711 16.7514L17.8051 17.1951C17.8268 17.2362 17.8664 17.2649 17.9122 17.2729L18.4065 17.3584C18.5254 17.3789 18.5726 17.5242 18.4885 17.6107L18.1389 17.9705C18.1065 18.0038 18.0914 18.0503 18.098 18.0963L18.1694 18.5929C18.1866 18.7122 18.063 18.802 17.9547 18.7488L17.5046 18.5275C17.4628 18.507 17.4139 18.507 17.3722 18.5275L16.9221 18.7488C16.8138 18.802 16.6902 18.7122 16.7074 18.5929L16.7788 18.0963C16.7854 18.0503 16.7703 18.0038 16.7379 17.9705L16.3883 17.6107C16.3042 17.5242 16.3514 17.3789 16.4703 17.3584L16.9646 17.2729C17.0104 17.2649 17.0499 17.2362 17.0717 17.1951L17.3057 16.7514Z" fill="url(#paint3_linear_5786_64807)"/>
<path d="M6.43073 16.7514C6.48701 16.6447 6.63978 16.6447 6.69606 16.7514L6.93014 17.1951C6.95185 17.2362 6.99141 17.2649 7.03724 17.2729L7.53152 17.3584C7.65036 17.3789 7.69757 17.5242 7.61351 17.6107L7.2639 17.9705C7.23148 18.0038 7.21637 18.0503 7.22299 18.0963L7.2944 18.5929C7.31156 18.7122 7.18797 18.802 7.07974 18.7488L6.62958 18.5275C6.58785 18.507 6.53895 18.507 6.49721 18.5275L6.04706 18.7488C5.93883 18.802 5.81523 18.7122 5.8324 18.5929L5.9038 18.0963C5.91042 18.0503 5.89531 18.0038 5.8629 17.9705L5.51328 17.6107C5.42922 17.5242 5.47643 17.3789 5.59528 17.3584L6.08956 17.2729C6.13539 17.2649 6.17495 17.2362 6.19665 17.1951L6.43073 16.7514Z" fill="url(#paint4_linear_5786_64807)"/>
<path d="M6.43073 5.87639C6.48701 5.76972 6.63978 5.76972 6.69606 5.87639L6.93014 6.32005C6.95185 6.36119 6.99141 6.38993 7.03724 6.39786L7.53152 6.48338C7.65036 6.50395 7.69757 6.64924 7.61351 6.73573L7.2639 7.09545C7.23148 7.12881 7.21637 7.17531 7.22299 7.22135L7.2944 7.71787C7.31156 7.83725 7.18797 7.92704 7.07974 7.87383L6.62958 7.65248C6.58785 7.63196 6.53895 7.63196 6.49721 7.65248L6.04706 7.87383C5.93883 7.92704 5.81523 7.83725 5.8324 7.71787L5.9038 7.22135C5.91042 7.17531 5.89531 7.12881 5.8629 7.09545L5.51328 6.73573C5.42922 6.64924 5.47643 6.50395 5.59528 6.48338L6.08956 6.39786C6.13539 6.38993 6.17495 6.36119 6.19665 6.32005L6.43073 5.87639Z" fill="url(#paint5_linear_5786_64807)"/>
<path d="M12.0557 19.0014C12.112 18.8947 12.2648 18.8947 12.3211 19.0014L12.5551 19.4451C12.5768 19.4862 12.6164 19.5149 12.6622 19.5229L13.1565 19.6084C13.2754 19.6289 13.3226 19.7742 13.2385 19.8607L12.8889 20.2205C12.8565 20.2538 12.8414 20.3003 12.848 20.3463L12.9194 20.8429C12.9366 20.9622 12.813 21.052 12.7047 20.9988L12.2546 20.7775C12.2128 20.757 12.1639 20.757 12.1222 20.7775L11.6721 20.9988C11.5638 21.052 11.4402 20.9622 11.4574 20.8429L11.5288 20.3463C11.5354 20.3003 11.5203 20.2538 11.4879 20.2205L11.1383 19.8607C11.0542 19.7742 11.1014 19.6289 11.2203 19.6084L11.7146 19.5229C11.7604 19.5149 11.7999 19.4862 11.8217 19.4451L12.0557 19.0014Z" fill="url(#paint6_linear_5786_64807)"/>
<path d="M19.5557 11.5014C19.612 11.3947 19.7648 11.3947 19.8211 11.5014L20.0551 11.9451C20.0768 11.9862 20.1164 12.0149 20.1622 12.0229L20.6565 12.1084C20.7754 12.1289 20.8226 12.2742 20.7385 12.3607L20.3889 12.7205C20.3565 12.7538 20.3414 12.8003 20.348 12.8463L20.4194 13.3429C20.4366 13.4622 20.313 13.552 20.2047 13.4988L19.7546 13.2775C19.7128 13.257 19.6639 13.257 19.6222 13.2775L19.1721 13.4988C19.0638 13.552 18.9402 13.4622 18.9574 13.3429L19.0288 12.8463C19.0354 12.8003 19.0203 12.7538 18.9879 12.7205L18.6383 12.3607C18.5542 12.2742 18.6014 12.1289 18.7203 12.1084L19.2146 12.0229C19.2604 12.0149 19.2999 11.9862 19.3217 11.9451L19.5557 11.5014Z" fill="url(#paint7_linear_5786_64807)"/>
<path d="M4.18073 11.5014C4.23701 11.3947 4.38978 11.3947 4.44606 11.5014L4.68014 11.9451C4.70185 11.9862 4.74141 12.0149 4.78724 12.0229L5.28152 12.1084C5.40036 12.1289 5.44757 12.2742 5.36351 12.3607L5.0139 12.7205C4.98148 12.7538 4.96637 12.8003 4.97299 12.8463L5.0444 13.3429C5.06156 13.4622 4.93797 13.552 4.82974 13.4988L4.37958 13.2775C4.33785 13.257 4.28895 13.257 4.24721 13.2775L3.79706 13.4988C3.68883 13.552 3.56523 13.4622 3.5824 13.3429L3.6538 12.8463C3.66042 12.8003 3.64531 12.7538 3.6129 12.7205L3.26328 12.3607C3.17922 12.2742 3.22643 12.1289 3.34528 12.1084L3.83956 12.0229C3.88539 12.0149 3.92495 11.9862 3.94665 11.9451L4.18073 11.5014Z" fill="url(#paint8_linear_5786_64807)"/>
<path fill-rule="evenodd" clip-rule="evenodd" d="M10.125 9.375C10.125 8.33947 10.9645 7.5 12 7.5C13.0355 7.5 13.875 8.33947 13.875 9.375V10.1631C14.3625 10.211 14.6907 10.3194 14.9357 10.5643C15.375 11.0037 15.375 11.7108 15.375 13.125V13.5C15.375 14.9142 15.375 15.6213 14.9357 16.0607C14.4963 16.5 13.7892 16.5 12.375 16.5H11.625C10.2108 16.5 9.50368 16.5 9.06434 16.0607C8.625 15.6213 8.625 14.9142 8.625 13.5V13.125C8.625 11.7108 8.625 11.0037 9.06434 10.5643C9.30928 10.3194 9.63746 10.211 10.125 10.1631V9.375ZM11.25 10.1253C11.3692 10.125 11.4941 10.125 11.625 10.125H12.375C12.5059 10.125 12.6308 10.125 12.75 10.1253V9.375C12.75 8.96079 12.4142 8.625 12 8.625C11.5858 8.625 11.25 8.96079 11.25 9.375V10.1253ZM12.375 13.5872C12.5992 13.4575 12.75 13.2151 12.75 12.9375C12.75 12.5233 12.4142 12.1875 12 12.1875C11.5858 12.1875 11.25 12.5233 11.25 12.9375C11.25 13.2151 11.4008 13.4575 11.625 13.5872V14.0625C11.625 14.2696 11.7929 14.4375 12 14.4375C12.2071 14.4375 12.375 14.2696 12.375 14.0625V13.5872Z" fill="url(#paint9_linear_5786_64807)"/>
<defs>
<linearGradient id="paint0_linear_5786_64807" x1="12.8928" y1="24" x2="12.3104" y2="1.42975" gradientUnits="userSpaceOnUse">
<stop stop-color="#3D3D3D" stop-opacity="0.39"/>
<stop offset="0.235469" stop-color="#3D3D3D" stop-opacity="0.4"/>
<stop offset="0.581647" stop-color="#3D3D3D" stop-opacity="0.24"/>
</linearGradient>
<linearGradient id="paint1_linear_5786_64807" x1="12.1885" y1="5.15911" x2="12.1885" y2="5.9976" gradientUnits="userSpaceOnUse">
<stop stop-color="#FFCD2F"/>
<stop offset="0.268" stop-color="#FFBB00"/>
<stop offset="0.659" stop-color="#FFA801"/>
<stop offset="1" stop-color="#FF9102"/>
</linearGradient>
<linearGradient id="paint2_linear_5786_64807" x1="17.4385" y1="7.40911" x2="17.4385" y2="8.2476" gradientUnits="userSpaceOnUse">
<stop stop-color="#FFCD2F"/>
<stop offset="0.268" stop-color="#FFBB00"/>
<stop offset="0.659" stop-color="#FFA801"/>
<stop offset="1" stop-color="#FF9102"/>
</linearGradient>
<linearGradient id="paint3_linear_5786_64807" x1="17.4385" y1="18.2841" x2="17.4385" y2="19.1226" gradientUnits="userSpaceOnUse">
<stop stop-color="#FFCD2F"/>
<stop offset="0.268" stop-color="#FFBB00"/>
<stop offset="0.659" stop-color="#FFA801"/>
<stop offset="1" stop-color="#FF9102"/>
</linearGradient>
<linearGradient id="paint4_linear_5786_64807" x1="6.56352" y1="18.2841" x2="6.56352" y2="19.1226" gradientUnits="userSpaceOnUse">
<stop stop-color="#FFCD2F"/>
<stop offset="0.268" stop-color="#FFBB00"/>
<stop offset="0.659" stop-color="#FFA801"/>
<stop offset="1" stop-color="#FF9102"/>
</linearGradient>
<linearGradient id="paint5_linear_5786_64807" x1="6.56352" y1="7.40911" x2="6.56352" y2="8.2476" gradientUnits="userSpaceOnUse">
<stop stop-color="#FFCD2F"/>
<stop offset="0.268" stop-color="#FFBB00"/>
<stop offset="0.659" stop-color="#FFA801"/>
<stop offset="1" stop-color="#FF9102"/>
</linearGradient>
<linearGradient id="paint6_linear_5786_64807" x1="12.1885" y1="20.5341" x2="12.1885" y2="21.3726" gradientUnits="userSpaceOnUse">
<stop stop-color="#FFCD2F"/>
<stop offset="0.268" stop-color="#FFBB00"/>
<stop offset="0.659" stop-color="#FFA801"/>
<stop offset="1" stop-color="#FF9102"/>
</linearGradient>
<linearGradient id="paint7_linear_5786_64807" x1="19.6885" y1="13.0341" x2="19.6885" y2="13.8726" gradientUnits="userSpaceOnUse">
<stop stop-color="#FFCD2F"/>
<stop offset="0.268" stop-color="#FFBB00"/>
<stop offset="0.659" stop-color="#FFA801"/>
<stop offset="1" stop-color="#FF9102"/>
</linearGradient>
<linearGradient id="paint8_linear_5786_64807" x1="4.31352" y1="13.0341" x2="4.31352" y2="13.8726" gradientUnits="userSpaceOnUse">
<stop stop-color="#FFCD2F"/>
<stop offset="0.268" stop-color="#FFBB00"/>
<stop offset="0.659" stop-color="#FFA801"/>
<stop offset="1" stop-color="#FF9102"/>
</linearGradient>
<linearGradient id="paint9_linear_5786_64807" x1="12" y1="7.5" x2="12" y2="16.125" gradientUnits="userSpaceOnUse">
<stop offset="0.572917" stop-color="#004FC5"/>
<stop offset="0.8125" stop-color="#002DBD"/>
<stop offset="1" stop-color="#0000AC"/>
</linearGradient>
</defs>
</svg>
