<svg width="24" height="24" viewBox="0 0 24 24" fill="none" xmlns="http://www.w3.org/2000/svg">
<path d="M0 12C0 6.34315 0 3.51472 1.75736 1.75736C3.51472 0 6.34315 0 12 0C17.6569 0 20.4853 0 22.2426 1.75736C24 3.51472 24 6.34315 24 12C24 17.6569 24 20.4853 22.2426 22.2426C20.4853 24 17.6569 24 12 24C6.34315 24 3.51472 24 1.75736 22.2426C0 20.4853 0 17.6569 0 12Z" fill="white"/>
<path opacity="0.16" d="M0 12C0 6.34315 0 3.51472 1.75736 1.75736C3.51472 0 6.34315 0 12 0C17.6569 0 20.4853 0 22.2426 1.75736C24 3.51472 24 6.34315 24 12C24 17.6569 24 20.4853 22.2426 22.2426C20.4853 24 17.6569 24 12 24C6.34315 24 3.51472 24 1.75736 22.2426C0 20.4853 0 17.6569 0 12Z" fill="url(#paint0_linear_5786_64791)"/>
<g opacity="0.16">
<path d="M4.78125 14.4375C4.78125 14.0233 5.11704 13.6875 5.53125 13.6875H19.2188C19.633 13.6875 19.9688 14.0233 19.9688 14.4375C19.9688 14.8517 19.633 15.1875 19.2188 15.1875H5.53125C5.11704 15.1875 4.78125 14.8517 4.78125 14.4375Z" fill="#3D3D3D"/>
<path d="M4.78125 3.75C4.78125 3.33579 5.11704 3 5.53125 3H19.2188C19.633 3 19.9688 3.33579 19.9688 3.75C19.9688 4.16421 19.633 4.5 19.2188 4.5H5.53125C5.11704 4.5 4.78125 4.16421 4.78125 3.75Z" fill="#3D3D3D"/>
<path d="M4.78125 17.3438C4.78125 16.9295 5.11704 16.5938 5.53125 16.5938H19.2188C19.633 16.5938 19.9688 16.9295 19.9688 17.3438C19.9688 17.758 19.633 18.0938 19.2188 18.0938H5.53125C5.11704 18.0938 4.78125 17.758 4.78125 17.3438Z" fill="#3D3D3D"/>
<path d="M4.78125 6.75C4.78125 6.33579 5.11704 6 5.53125 6H19.2188C19.633 6 19.9688 6.33579 19.9688 6.75C19.9688 7.16421 19.633 7.5 19.2188 7.5H5.53125C5.11704 7.5 4.78125 7.16421 4.78125 6.75Z" fill="#3D3D3D"/>
<path d="M4.78125 20.25C4.78125 19.8358 5.11704 19.5 5.53125 19.5H19.2188C19.633 19.5 19.9688 19.8358 19.9688 20.25C19.9688 20.6642 19.633 21 19.2188 21H5.53125C5.11704 21 4.78125 20.6642 4.78125 20.25Z" fill="#3D3D3D"/>
</g>
<path d="M2.25 10.5703C2.25 10.2867 2.25 10.1449 2.28785 10.0304C2.36235 9.80487 2.53924 9.62797 2.76474 9.55348C2.87932 9.51562 3.02111 9.51562 3.30469 9.51562H5.83594C6.11951 9.51562 6.2613 9.51562 6.37589 9.55348C6.60138 9.62797 6.77828 9.80487 6.85277 10.0304C6.89062 10.1449 6.89062 10.2867 6.89062 10.5703C6.89062 10.8539 6.89062 10.9957 6.85277 11.1103C6.77828 11.3358 6.60138 11.5127 6.37589 11.5871C6.2613 11.625 6.11951 11.625 5.83594 11.625H3.30469C3.02111 11.625 2.87932 11.625 2.76474 11.5871C2.53924 11.5127 2.36235 11.3358 2.28785 11.1103C2.25 10.9957 2.25 10.8539 2.25 10.5703Z" fill="#FFBA1C"/>
<path d="M17.4375 10.5703C17.4375 10.2867 17.4375 10.1449 17.4754 10.0304C17.5498 9.80487 17.7267 9.62797 17.9522 9.55348C18.0668 9.51562 18.2086 9.51562 18.4922 9.51562H21.0234C21.307 9.51562 21.4488 9.51562 21.5634 9.55348C21.7889 9.62797 21.9658 9.80487 22.0403 10.0304C22.0781 10.1449 22.0781 10.2867 22.0781 10.5703C22.0781 10.8539 22.0781 10.9957 22.0403 11.1103C21.9658 11.3358 21.7889 11.5127 21.5634 11.5871C21.4488 11.625 21.307 11.625 21.0234 11.625H18.4922C18.2086 11.625 18.0668 11.625 17.9522 11.5871C17.7267 11.5127 17.5498 11.3358 17.4754 11.1103C17.4375 10.9957 17.4375 10.8539 17.4375 10.5703Z" fill="#BD081C"/>
<path d="M12.375 10.5703C12.375 10.2867 12.375 10.1449 12.4129 10.0304C12.4873 9.80487 12.6642 9.62797 12.8897 9.55348C13.0043 9.51562 13.1461 9.51562 13.4297 9.51562H15.9609C16.2445 9.51562 16.3863 9.51562 16.5009 9.55348C16.7264 9.62797 16.9033 9.80487 16.9778 10.0304C17.0156 10.1449 17.0156 10.2867 17.0156 10.5703C17.0156 10.8539 17.0156 10.9957 16.9778 11.1103C16.9033 11.3358 16.7264 11.5127 16.5009 11.5871C16.3863 11.625 16.2445 11.625 15.9609 11.625H13.4297C13.1461 11.625 13.0043 11.625 12.8897 11.5871C12.6642 11.5127 12.4873 11.3358 12.4129 11.1103C12.375 10.9957 12.375 10.8539 12.375 10.5703Z" fill="#91D400"/>
<path d="M7.3125 10.5703C7.3125 10.2867 7.3125 10.1449 7.35035 10.0304C7.42485 9.80487 7.60174 9.62797 7.82724 9.55348C7.94182 9.51562 8.08361 9.51562 8.36719 9.51562H10.8984C11.182 9.51562 11.3238 9.51562 11.4384 9.55348C11.6639 9.62797 11.8408 9.80487 11.9153 10.0304C11.9531 10.1449 11.9531 10.2867 11.9531 10.5703C11.9531 10.8539 11.9531 10.9957 11.9153 11.1103C11.8408 11.3358 11.6639 11.5127 11.4384 11.5871C11.3238 11.625 11.182 11.625 10.8984 11.625H8.36719C8.08361 11.625 7.94182 11.625 7.82724 11.5871C7.60174 11.5127 7.42485 11.3358 7.35035 11.1103C7.3125 10.9957 7.3125 10.8539 7.3125 10.5703Z" fill="#00A5F0"/>
<defs>
<linearGradient id="paint0_linear_5786_64791" x1="12.8928" y1="24" x2="12.3104" y2="1.42975" gradientUnits="userSpaceOnUse">
<stop stop-color="#3D3D3D" stop-opacity="0.6"/>
<stop offset="0.235469" stop-color="#3D3D3D" stop-opacity="0.4"/>
<stop offset="0.581647" stop-color="#3D3D3D" stop-opacity="0.24"/>
</linearGradient>
</defs>
</svg>
