<svg width="24" height="24" viewBox="0 0 24 24" fill="none" xmlns="http://www.w3.org/2000/svg">
<path d="M0 12C0 6.34315 0 3.51472 1.75736 1.75736C3.51472 0 6.34315 0 12 0C17.6569 0 20.4853 0 22.2426 1.75736C24 3.51472 24 6.34315 24 12C24 17.6569 24 20.4853 22.2426 22.2426C20.4853 24 17.6569 24 12 24C6.34315 24 3.51472 24 1.75736 22.2426C0 20.4853 0 17.6569 0 12Z" fill="white"/>
<path opacity="0.16" d="M0 12C0 6.34315 0 3.51472 1.75736 1.75736C3.51472 0 6.34315 0 12 0C17.6569 0 20.4853 0 22.2426 1.75736C24 3.51472 24 6.34315 24 12C24 17.6569 24 20.4853 22.2426 22.2426C20.4853 24 17.6569 24 12 24C6.34315 24 3.51472 24 1.75736 22.2426C0 20.4853 0 17.6569 0 12Z" fill="url(#paint0_linear_5786_64799)"/>
<g opacity="0.16">
<path d="M8.625 13.6875C8.625 13.2733 8.96079 12.9375 9.375 12.9375H20.0625C20.4767 12.9375 20.8125 13.2733 20.8125 13.6875C20.8125 14.1017 20.4767 14.4375 20.0625 14.4375H9.375C8.96079 14.4375 8.625 14.1017 8.625 13.6875Z" fill="#3D3D3D"/>
<path d="M8.625 10.6875C8.625 10.2733 8.96079 9.9375 9.375 9.9375H20.0625C20.4767 9.9375 20.8125 10.2733 20.8125 10.6875C20.8125 11.1017 20.4767 11.4375 20.0625 11.4375H9.375C8.96079 11.4375 8.625 11.1017 8.625 10.6875Z" fill="#3D3D3D"/>
<path d="M8.625 4.5C8.625 4.08579 8.96079 3.75 9.375 3.75H20.0625C20.4767 3.75 20.8125 4.08579 20.8125 4.5C20.8125 4.91421 20.4767 5.25 20.0625 5.25H9.375C8.96079 5.25 8.625 4.91421 8.625 4.5Z" fill="#3D3D3D"/>
<path d="M8.625 16.5938C8.625 16.1795 8.96079 15.8438 9.375 15.8438H20.0625C20.4767 15.8438 20.8125 16.1795 20.8125 16.5938C20.8125 17.008 20.4767 17.3438 20.0625 17.3438H9.375C8.96079 17.3438 8.625 17.008 8.625 16.5938Z" fill="#3D3D3D"/>
<path d="M8.625 7.5C8.625 7.08579 8.96079 6.75 9.375 6.75H20.0625C20.4767 6.75 20.8125 7.08579 20.8125 7.5C20.8125 7.91421 20.4767 8.25 20.0625 8.25H9.375C8.96079 8.25 8.625 7.91421 8.625 7.5Z" fill="#3D3D3D"/>
<path d="M8.625 19.5C8.625 19.0858 8.96079 18.75 9.375 18.75H20.0625C20.4767 18.75 20.8125 19.0858 20.8125 19.5C20.8125 19.9142 20.4767 20.25 20.0625 20.25H9.375C8.96079 20.25 8.625 19.9142 8.625 19.5Z" fill="#3D3D3D"/>
</g>
<path d="M2.25 6C2.25 5.29289 2.25 4.93934 2.46967 4.71967C2.68934 4.5 3.04289 4.5 3.75 4.5C4.45711 4.5 4.81066 4.5 5.03033 4.71967C5.25 4.93934 5.25 5.29289 5.25 6C5.25 6.70711 5.25 7.06066 5.03033 7.28033C4.81066 7.5 4.45711 7.5 3.75 7.5C3.04289 7.5 2.68934 7.5 2.46967 7.28033C2.25 7.06066 2.25 6.70711 2.25 6Z" fill="#FFBA1C"/>
<path d="M2.25 9.75C2.25 9.04289 2.25 8.68934 2.46967 8.46967C2.68934 8.25 3.04289 8.25 3.75 8.25C4.45711 8.25 4.81066 8.25 5.03033 8.46967C5.25 8.68934 5.25 9.04289 5.25 9.75C5.25 10.4571 5.25 10.8107 5.03033 11.0303C4.81066 11.25 4.45711 11.25 3.75 11.25C3.04289 11.25 2.68934 11.25 2.46967 11.0303C2.25 10.8107 2.25 10.4571 2.25 9.75Z" fill="#00A5F0"/>
<path d="M2.25 13.5C2.25 12.7929 2.25 12.4393 2.46967 12.2197C2.68934 12 3.04289 12 3.75 12C4.45711 12 4.81066 12 5.03033 12.2197C5.25 12.4393 5.25 12.7929 5.25 13.5C5.25 14.2071 5.25 14.5607 5.03033 14.7803C4.81066 15 4.45711 15 3.75 15C3.04289 15 2.68934 15 2.46967 14.7803C2.25 14.5607 2.25 14.2071 2.25 13.5Z" fill="#91D400"/>
<path d="M2.25 17.25C2.25 16.5429 2.25 16.1893 2.46967 15.9697C2.68934 15.75 3.04289 15.75 3.75 15.75C4.45711 15.75 4.81066 15.75 5.03033 15.9697C5.25 16.1893 5.25 16.5429 5.25 17.25C5.25 17.9571 5.25 18.3107 5.03033 18.5303C4.81066 18.75 4.45711 18.75 3.75 18.75C3.04289 18.75 2.68934 18.75 2.46967 18.5303C2.25 18.3107 2.25 17.9571 2.25 17.25Z" fill="#BD081C"/>
<defs>
<linearGradient id="paint0_linear_5786_64799" x1="12.8928" y1="24" x2="12.3104" y2="1.42975" gradientUnits="userSpaceOnUse">
<stop stop-color="#3D3D3D" stop-opacity="0.6"/>
<stop offset="0.235469" stop-color="#3D3D3D" stop-opacity="0.4"/>
<stop offset="0.581647" stop-color="#3D3D3D" stop-opacity="0.24"/>
</linearGradient>
</defs>
</svg>
